STARTFONT 2.1
FONT -FontForge-Good Times Rg-Book-R-Normal--51-490-75-75-P-378-ISO10646-1
SIZE 49 75 75
FONTBOUNDINGBOX 101 59 -14 -10
COMMENT "Generated by fontforge, http://fontforge.sourceforge.net"
COMMENT "(c) 1998-2012 Typodermic Fonts Inc. See attached license agreement. If agreement is missing visit typodermicfonts.com for more info. Languages by Chikako Larabie"
STARTPROPERTIES 39
FOUNDRY "FontForge"
FAMILY_NAME "Good Times Rg"
WEIGHT_NAME "Book"
SLANT "R"
SETWIDTH_NAME "Normal"
ADD_STYLE_NAME ""
PIXEL_SIZE 51
POINT_SIZE 490
RESOLUTION_X 75
RESOLUTION_Y 75
SPACING "P"
AVERAGE_WIDTH 378
CHARSET_REGISTRY "ISO10646"
CHARSET_ENCODING "1"
FONTNAME_REGISTRY ""
CHARSET_COLLECTIONS "ISO8859-2 ISO8859-9 ISO8859-4 ISO10646-1"
FONT_NAME "GoodTimesRg-Regular"
FACE_NAME "GoodTimesRg-Regular"
COPYRIGHT "(c) 1998-2012 Typodermic Fonts Inc. See attached license agreement. If agreement is missing visit typodermicfonts.com for more info. Languages by Chikako Larabie"
FONT_VERSION "4.001"
FONT_ASCENT 41
FONT_DESCENT 10
UNDERLINE_POSITION -7
UNDERLINE_THICKNESS 2
X_HEIGHT 36
CAP_HEIGHT 36
RAW_ASCENT 799
RAW_DESCENT 201
NORM_SPACE 15
RELATIVE_WEIGHT 40
RELATIVE_SETWIDTH 50
SUPERSCRIPT_X 0
SUPERSCRIPT_Y 15
SUPERSCRIPT_SIZE 15
SUBSCRIPT_X 0
SUBSCRIPT_Y 0
SUBSCRIPT_SIZE 15
AVG_LOWERCASE_WIDTH 434
AVG_UPPERCASE_WIDTH 432
ENDPROPERTIES
CHARS 372
STARTCHAR space
ENCODING 32
SWIDTH 294 0
DWIDTH 15 0
BBX 1 1 0 0
BITMAP
00
ENDCHAR
STARTCHAR exclam
ENCODING 33
SWIDTH 298 0
DWIDTH 15 0
BBX 7 37 4 0
BITMAP
7E
7E
7E
7E
7E
7E
7E
7E
7E
7E
7E
7E
7E
7E
7E
7E
7E
7E
7E
7E
7E
7E
7E
7E
7E
00
00
00
00
00
00
7C
FE
FE
FE
7E
3C
ENDCHAR
STARTCHAR quotedbl
ENCODING 34
SWIDTH 452 0
DWIDTH 23 0
BBX 17 13 3 24
BITMAP
FE3F80
7E3F00
7E3F00
7E3F00
7E3F00
7E1F00
7C1F00
7C1F00
7C1F00
7C1F00
7C1F00
3C1F00
3C1E00
ENDCHAR
STARTCHAR numbersign
ENCODING 35
SWIDTH 697 0
DWIDTH 36 0
BBX 32 37 2 0
BITMAP
0007C07C
00078078
000F80F8
000F80F8
000F00F8
001F00F0
001F01F0
001F01F0
001E01E0
003E03E0
0FFFFFFF
0FFFFFFF
0FFFFFFF
0FFFFFFF
00780780
00F80780
00F80F80
00F00F80
01F00F00
01F01F00
01F01F00
01E01E00
03E03E00
FFFFFFF0
FFFFFFF0
FFFFFFF0
FFFFFFF0
07807800
0F807800
0F80F800
0F00F800
1F00F000
1F01F000
1E01F000
1E01E000
3E03E000
3E03E000
ENDCHAR
STARTCHAR dollar
ENCODING 36
SWIDTH 744 0
DWIDTH 38 0
BBX 32 37 3 0
BITMAP
0001C000
0001C000
0001C000
0001C000
07FFFFFE
1FFFFFFE
3FFFFFFE
7FFFFFFE
7FFFFFFE
FE01C000
FC01C000
F801C000
F801C000
F801C000
FC01C000
7E01C000
7FFFFFE0
3FFFFFF8
1FFFFFFC
07FFFFFE
0001C07E
0001C03F
0001C01F
0001C01F
0001C01F
0001C01F
0001C03F
0001C07F
FFFFFFFE
FFFFFFFE
FFFFFFFC
FFFFFFF0
FFFFFFC0
0001C000
0001C000
0001C000
0001C000
ENDCHAR
STARTCHAR percent
ENCODING 37
SWIDTH 965 0
DWIDTH 49 0
BBX 45 43 2 -3
BITMAP
000000000F80
000000000F00
03F800001E00
0FFE00003C00
1FFF00007C00
3E0F8000F800
7803C000F000
7001E001E000
7000E003E000
F000E007C000
E000E0078000
E000E00F0000
E000E01E0000
F000E03E0000
7001E07C0000
7801C0780000
3803C0F00000
3E0781E00000
1FFF03E00000
07FE07C00000
01F807800000
00000F000000
00001F00FE00
00003E03FF80
00003C07FFC0
0000780F83E0
0000F01E00F0
0001F01C0070
0003E03C0078
0003C0380078
000780380038
000F00380038
001F00380038
003E00380038
003C003C0078
0078001C0070
00F8001E00F0
01F0000F83E0
03E00007FFC0
03C00003FF80
07800000FE00
0F8000000000
1F0000000000
ENDCHAR
STARTCHAR ampersand
ENCODING 38
SWIDTH 759 0
DWIDTH 39 0
BBX 35 37 2 0
BITMAP
007FF00000
03FFF00000
0FFFF00000
1FFFF00000
1FFFF00000
3FFFF00000
3FF8000000
7F80000000
7F00000000
7F00000000
7F00000000
7F00000000
7F00000000
3F00000000
3F80000000
1FC0000000
0FFFFFFF80
07FFFFFF80
07FFFFFF80
1FFFFFFF80
3FFFFFFF80
3FC003F800
7F0003F800
7E0003F800
7E0003F800
FE0003F800
FE0003F800
7E0003F800
7F0003F800
7F8003F800
7FF803F800
3FFFFFFFE0
3FFFFFFFE0
1FFFFFFFE0
0FFFFFFFE0
03FFFFFFE0
00FFFFFFE0
ENDCHAR
STARTCHAR quotesingle
ENCODING 39
SWIDTH 255 0
DWIDTH 13 0
BBX 7 13 3 24
BITMAP
FE
FE
FE
7C
7C
7C
7C
7C
7C
7C
7C
7C
7C
ENDCHAR
STARTCHAR parenleft
ENCODING 40
SWIDTH 356 0
DWIDTH 18 0
BBX 10 47 5 -5
BITMAP
07C0
0780
0F80
0F00
1F00
1F00
1E00
3E00
3E00
3C00
7C00
7C00
7800
7800
7800
F800
F800
F000
F000
F000
F000
F000
F000
F000
F000
F000
F000
F000
F000
F000
F800
F800
7800
7800
7800
7C00
7C00
3C00
3C00
3E00
1E00
1F00
1F00
0F00
0F80
0780
07C0
ENDCHAR
STARTCHAR parenright
ENCODING 41
SWIDTH 355 0
DWIDTH 18 0
BBX 10 47 3 -5
BITMAP
F800
7C00
7C00
3C00
3E00
3E00
1E00
1F00
0F00
0F00
0F80
0F80
0780
0780
07C0
07C0
03C0
03C0
03C0
03C0
03C0
03C0
03C0
03C0
03C0
03C0
03C0
03C0
03C0
03C0
03C0
07C0
07C0
0780
0780
0F80
0F80
0F00
0F00
1F00
1E00
1E00
3E00
3C00
7C00
7800
F800
ENDCHAR
STARTCHAR asterisk
ENCODING 42
SWIDTH 469 0
DWIDTH 24 0
BBX 18 17 3 20
BITMAP
01C000
01C000
01C000
01C000
01C000
71C380
7FDF80
FFFFC0
0FFC00
03E000
03F000
07F800
0F3C00
0E1C00
1E1E00
1C0E00
080800
ENDCHAR
STARTCHAR plus
ENCODING 43
SWIDTH 690 0
DWIDTH 35 0
BBX 29 29 3 4
BITMAP
000F8000
000F8000
000F8000
000F8000
000F8000
000F8000
000F8000
000F8000
000F8000
000F8000
000F8000
000F8000
000F8000
FFFFFFF8
FFFFFFF8
FFFFFFF8
FFFFFFF8
000F8000
000F8000
000F8000
000F8000
000F8000
000F8000
000F8000
000F8000
000F8000
000F8000
000F8000
000F8000
ENDCHAR
STARTCHAR comma
ENCODING 44
SWIDTH 259 0
DWIDTH 13 0
BBX 7 13 3 -6
BITMAP
FE
FE
FE
FC
FC
FC
FC
FC
F8
F8
F8
F8
F8
ENDCHAR
STARTCHAR hyphen
ENCODING 45
SWIDTH 296 0
DWIDTH 15 0
BBX 13 4 1 17
BITMAP
FFF8
FFF8
FFF8
FFF8
ENDCHAR
STARTCHAR period
ENCODING 46
SWIDTH 262 0
DWIDTH 13 0
BBX 7 6 3 0
BITMAP
7C
FE
FE
FE
7E
3C
ENDCHAR
STARTCHAR slash
ENCODING 47
SWIDTH 444 0
DWIDTH 23 0
BBX 22 37 0 0
BITMAP
00003C
000078
000078
0000F8
0000F0
0001F0
0001E0
0003E0
0003C0
0007C0
000780
000F80
000F00
000F00
001E00
001E00
003C00
003C00
007C00
007800
00F800
00F000
01F000
01E000
03E000
03C000
07C000
078000
0F8000
0F0000
0F0000
1F0000
1E0000
3E0000
3C0000
7C0000
F80000
ENDCHAR
STARTCHAR zero
ENCODING 48
SWIDTH 838 0
DWIDTH 43 0
BBX 39 37 2 0
BITMAP
0001FF0000
001FFFE000
007FFFF800
00FFFFFE00
03FFFFFF00
07FFFFFF80
0FFFEFFFC0
0FFC007FE0
1FF0001FF0
3FC0000FF0
3F800007F8
7F800003F8
7F000001FC
7F000001FC
FE000001FC
FE000000FC
FE000000FE
FE000000FE
FE000000FE
FE000000FE
FE000000FC
FE000000FC
7E000001FC
7F000001FC
7F000001FC
3F800003F8
3F800007F8
1FC0000FF0
1FF0001FE0
0FFC007FE0
07FFEFFFC0
03FFFFFF80
01FFFFFF00
00FFFFFE00
003FFFF800
000FFFE000
0001FF0000
ENDCHAR
STARTCHAR one
ENCODING 49
SWIDTH 385 0
DWIDTH 20 0
BBX 15 37 1 0
BITMAP
FF00
FFC0
FFF0
FFF8
FFF8
FFFC
0FFC
01FE
00FE
007E
007E
007E
007E
007E
007E
007E
007E
007E
007E
007E
007E
007E
007E
007E
007E
007E
007E
007E
007E
007E
007E
007E
007E
007E
007E
007E
007E
ENDCHAR
STARTCHAR two
ENCODING 50
SWIDTH 825 0
DWIDTH 42 0
BBX 36 37 3 0
BITMAP
7FFFFFF800
7FFFFFFE00
7FFFFFFF80
7FFFFFFFC0
7FFFFFFFE0
7FFFFFFFE0
0000007FF0
0000000FF0
00000007F0
00000007F0
00000003F0
00000003F0
00000003F0
00000007F0
00000007F0
0000001FE0
01FFFFFFE0
07FFFFFFC0
1FFFFFFF80
3FFFFFFE00
3FFFFFF800
7F80000000
7E00000000
FE00000000
FC00000000
FC00000000
FC00000000
FC00000000
FC00000000
FC00000000
FC00000000
FFFFFFFFF0
FFFFFFFFF0
FFFFFFFFF0
FFFFFFFFF0
FFFFFFFFF0
FFFFFFFFF0
ENDCHAR
STARTCHAR three
ENCODING 51
SWIDTH 827 0
DWIDTH 42 0
BBX 38 37 2 0
BITMAP
FFFFFFF800
FFFFFFFF00
FFFFFFFFC0
FFFFFFFFE0
FFFFFFFFF0
FFFFFFFFF0
000000FFF0
00000007F8
00000003F8
00000003F8
00000003F8
00000003F8
00000003F8
00000003F0
00000003F0
0000000FE0
007FFFFFC0
007FFFFF80
007FFFFF80
007FFFFFE0
007FFFFFF0
0000000FF8
00000003F8
00000001F8
00000001FC
00000001FC
00000001FC
00000001FC
00000003F8
00000007F8
000000FFF8
FFFFFFFFF0
FFFFFFFFF0
FFFFFFFFE0
FFFFFFFFC0
FFFFFFFF00
FFFFFFFC00
ENDCHAR
STARTCHAR four
ENCODING 52
SWIDTH 845 0
DWIDTH 43 0
BBX 40 37 2 0
BITMAP
FE00000FC0
FE00000FC0
FE00000FC0
FE00000FC0
FE00000FC0
FE00000FC0
FE00000FC0
FE00000FC0
FE00000FC0
FE00000FC0
FE00000FC0
FE00000FC0
FE00000FC0
FE00000FC0
FE00000FC0
FE00000FC0
FE00000FC0
7E00000FC0
7E00000FC0
7F00000FC0
7FC0000FC0
7FFFFFFFFF
3FFFFFFFFF
1FFFFFFFFF
1FFFFFFFFF
07FFFFFFFF
01FFFFFFFF
0000000FC0
0000000FC0
0000000FC0
0000000FC0
0000000FC0
0000000FC0
0000000FC0
0000000FC0
0000000FC0
0000000FC0
ENDCHAR
STARTCHAR five
ENCODING 53
SWIDTH 885 0
DWIDTH 45 0
BBX 39 37 3 0
BITMAP
FFFFFFFFFC
FFFFFFFFFC
FFFFFFFFFC
FFFFFFFFFC
FFFFFFFFFC
FFFFFFFFFC
FE00000000
FE00000000
FE00000000
FE00000000
FE00000000
FE00000000
FE00000000
FE00000000
FE00000000
FE00000000
FFFFFFFF00
FFFFFFFFE0
FFFFFFFFF0
FFFFFFFFF8
FFFFFFFFFC
00000001FE
00000000FE
000000007E
000000007E
000000007E
000000007E
000000007E
000000007E
00000000FE
0000000FFE
FFFFFFFFFC
FFFFFFFFFC
FFFFFFFFF8
FFFFFFFFF0
FFFFFFFFE0
FFFFFFFF00
ENDCHAR
STARTCHAR six
ENCODING 54
SWIDTH 872 0
DWIDTH 44 0
BBX 40 37 2 0
BITMAP
000FFFFFFC
007FFFFFFC
01FFFFFFFC
03FFFFFFFC
0FFFFFFFFC
0FFFFFFFFC
1FFF000000
3FF0000000
3FC0000000
7F80000000
7F00000000
7F00000000
7E00000000
FE00000000
FE00000000
FFFFFFFF80
FFFFFFFFE0
FFFFFFFFF8
FFFFFFFFFC
FFFFFFFFFC
FFFFFFFFFE
FE000001FE
FE000000FE
7E0000007F
7E0000007F
7F0000003F
7F0000007F
3F8000007F
3FC000007F
1FF00000FE
1FFF800FFE
0FFFFFFFFE
07FFFFFFFC
03FFFFFFF8
01FFFFFFF0
007FFFFFE0
000FFFFF80
ENDCHAR
STARTCHAR seven
ENCODING 55
SWIDTH 756 0
DWIDTH 39 0
BBX 35 37 2 0
BITMAP
FFFFFFFFC0
FFFFFFFFE0
FFFFFFFFE0
FFFFFFFFE0
FFFFFFFFE0
FFFFFFFFE0
0000003FC0
0000007F80
000000FF00
000001FF00
000001FE00
000003FC00
000007F800
00000FF000
00001FE000
00003FE000
00003FC000
00007F8000
0000FF0000
0001FE0000
0003FE0000
0007FC0000
0007F80000
000FF00000
001FE00000
003FC00000
007FC00000
00FF800000
00FF000000
01FE000000
03FC000000
07F8000000
0FF8000000
1FF0000000
1FE0000000
3FC0000000
7F80000000
ENDCHAR
STARTCHAR eight
ENCODING 56
SWIDTH 898 0
DWIDTH 46 0
BBX 40 37 3 0
BITMAP
00FFFFFF00
07FFFFFFE0
0FFFFFFFF0
3FFFFFFFF8
3FFFFFFFFC
7FFFFFFFFE
7FF8001FFE
7F800001FE
FF000000FE
FE0000007F
FE0000007F
FE0000007E
7E0000007E
7E0000007E
7F000000FC
3F800001FC
1FFFFFFFF8
0FFFFFFFE0
0FFFFFFFF0
3FFFFFFFF8
7FFFFFFFFC
7F800001FE
FE000000FF
FE0000007F
FC0000003F
FC0000003F
FC0000003F
FC0000007F
FE0000007F
FF000001FF
FFF8001FFE
7FFFFFFFFE
3FFFFFFFFC
3FFFFFFFF8
1FFFFFFFF0
07FFFFFFE0
01FFFFFF00
ENDCHAR
STARTCHAR nine
ENCODING 57
SWIDTH 861 0
DWIDTH 44 0
BBX 40 37 2 0
BITMAP
01FFFFF000
07FFFFFE00
0FFFFFFF80
1FFFFFFFC0
3FFFFFFFE0
7FFFFFFFF0
7FF001FFF8
7F80000FF8
FF000003FC
FE000001FC
FE000001FE
FE000000FE
FE000000FE
FE0000007E
FE0000007E
7F0000007F
7F8000007F
7FFFFFFFFF
3FFFFFFFFF
1FFFFFFFFF
0FFFFFFFFF
01FFFFFFFF
000000007F
000000007E
00000000FE
00000000FE
00000001FE
00000001FC
00000003FC
0000000FFC
000001FFF8
0FFFFFFFF0
0FFFFFFFE0
0FFFFFFFC0
0FFFFFFF80
0FFFFFFE00
0FFFFFF000
ENDCHAR
STARTCHAR colon
ENCODING 58
SWIDTH 262 0
DWIDTH 13 0
BBX 7 23 3 0
BITMAP
7C
FE
FE
FE
7E
3C
00
00
00
00
00
00
00
00
00
00
00
7C
FE
FE
FE
7E
3C
ENDCHAR
STARTCHAR semicolon
ENCODING 59
SWIDTH 262 0
DWIDTH 13 0
BBX 7 29 3 -6
BITMAP
3C
7E
FE
FE
FE
7C
00
00
00
00
00
00
00
00
00
00
FE
FE
FE
FC
FC
FC
FC
FC
F8
F8
F8
F8
F8
ENDCHAR
STARTCHAR less
ENCODING 60
SWIDTH 690 0
DWIDTH 35 0
BBX 29 28 3 5
BITMAP
00000008
00000018
000000F8
000003F8
00001FF8
00007FF0
0001FF80
000FFE00
003FF000
01FFC000
07FE0000
1FF80000
7FC00000
FE000000
FE000000
7F800000
3FF00000
0FFC0000
01FF8000
007FE000
001FFC00
0003FF00
0000FFE0
00003FF8
000007F8
000001F8
00000038
00000008
ENDCHAR
STARTCHAR equal
ENCODING 61
SWIDTH 690 0
DWIDTH 35 0
BBX 29 18 3 10
BITMAP
FFFFFFF8
FFFFFFF8
FFFFFFF8
FFFFFFF8
00000000
00000000
00000000
00000000
00000000
00000000
00000000
00000000
00000000
00000000
FFFFFFF8
FFFFFFF8
FFFFFFF8
FFFFFFF8
ENDCHAR
STARTCHAR greater
ENCODING 62
SWIDTH 690 0
DWIDTH 35 0
BBX 29 28 3 5
BITMAP
80000000
E0000000
F8000000
FE000000
FFC00000
7FF00000
0FFE0000
03FF8000
007FE000
001FFC00
0003FF00
00007FE0
00001FF0
000003F8
000001F8
00000FF8
00003FE0
0001FF80
000FFE00
003FF000
01FFC000
07FE0000
3FF80000
FFE00000
FF000000
FC000000
F0000000
80000000
ENDCHAR
STARTCHAR question
ENCODING 63
SWIDTH 776 0
DWIDTH 40 0
BBX 36 37 2 0
BITMAP
FFFFFFF800
FFFFFFFE00
FFFFFFFF80
FFFFFFFFC0
FFFFFFFFE0
FFFFFFFFE0
0000007FE0
0000000FF0
00000007F0
00000007F0
00000007F0
00000007F0
00000007F0
0000000FE0
0000001FE0
007FFFFFC0
03FFFFFFC0
07FFFFFF80
07FFFFFE00
0FFFFFF800
0FE0000000
0FC0000000
0FC0000000
0FC0000000
0FC0000000
0000000000
0000000000
0000000000
0000000000
0000000000
0000000000
0F80000000
0FC0000000
1FC0000000
1FC0000000
0FC0000000
0780000000
ENDCHAR
STARTCHAR at
ENCODING 64
SWIDTH 833 0
DWIDTH 42 0
BBX 37 37 2 0
BITMAP
0003FFFFF8
001FFFFFF8
007FFFFFF8
00FFFFFFF8
03FFFFFFF8
07FE0000F8
07F00000F8
0FC00000F8
1F800000F8
3F000000F8
3E01FFF0F8
3E03FFF0F8
7C07FFF0F8
7C0FFFF0F8
781F80F0F8
F81F00F0F8
F81E00F0F8
F81E00F0F8
F81E00F0F8
F81E00F0F8
F81E00F0F8
F81F00F0F8
F81F80F0F8
7C0FFFFFF8
7C07FFFFF8
7E03FFFFF8
3E01FFFFF8
3F00000000
1F80000000
1FC0000000
0FF0000000
07FE000000
03FFFFFFF8
01FFFFFFF8
007FFFFFF8
001FFFFFF8
0003FFFFF8
ENDCHAR
STARTCHAR A
ENCODING 65
SWIDTH 989 0
DWIDTH 50 0
BBX 49 38 1 0
BITMAP
00000080000000
000003C0000000
000007E0000000
00000FF0000000
00000FF0000000
00001FF8000000
00001FFC000000
00003FFC000000
00007FFE000000
00007FFE000000
0000FFFF000000
0000FE7F800000
0001FC7F800000
0003FC3FC00000
0003F81FE00000
0007F81FE00000
0007F00FF00000
000FE00FF00000
001FE007F80000
001FC003FC0000
003FC003FC0000
003F8001FE0000
007F0001FE0000
00FF0000FF0000
00FE07FFFF8000
01FE0FFFFF8000
01FC1FFFFFC000
03F81FFFFFC000
07F83FFFFFE000
07F000000FF000
0FF000000FF000
0FE0000007F800
1FC0000007F800
3FC0000003FC00
3F80000001FE00
7F80000001FE00
7F00000000FF00
FE000000007F80
ENDCHAR
STARTCHAR B
ENCODING 66
SWIDTH 891 0
DWIDTH 45 0
BBX 40 37 3 0
BITMAP
FFFFFFFF00
FFFFFFFFC0
FFFFFFFFF0
FFFFFFFFF8
FFFFFFFFFC
FFFFFFFFFC
FE00007FFE
FE000001FE
FE000000FE
FE000000FE
FE0000007E
FE0000007E
FE0000007E
FE000000FE
FE000000FC
FE000003FC
FE1FFFFFF8
FE1FFFFFE0
FE1FFFFFF0
FE1FFFFFF8
FE1FFFFFFC
FE000001FE
FE000000FE
FE0000007F
FE0000007F
FE0000007F
FE0000007F
FE0000007F
FE000000FF
FE000001FF
FE00003FFE
FFFFFFFFFE
FFFFFFFFFC
FFFFFFFFF8
FFFFFFFFF0
FFFFFFFFE0
FFFFFFFF00
ENDCHAR
STARTCHAR C
ENCODING 67
SWIDTH 829 0
DWIDTH 42 0
BBX 38 37 2 0
BITMAP
0003FFFFFC
003FFFFFFC
00FFFFFFFC
01FFFFFFFC
03FFFFFFFC
07FFFFFFFC
0FFFC00000
1FF8000000
1FE0000000
3FC0000000
3F80000000
7F80000000
7F00000000
7F00000000
FE00000000
FE00000000
FE00000000
FE00000000
FE00000000
FE00000000
FE00000000
FE00000000
7E00000000
7F00000000
7F00000000
7F80000000
3F80000000
3FC0000000
1FF0000000
0FF8000000
0FFFC00000
07FFFFFFFC
03FFFFFFFC
01FFFFFFFC
007FFFFFFC
001FFFFFFC
0003FFFFFC
ENDCHAR
STARTCHAR D
ENCODING 68
SWIDTH 879 0
DWIDTH 45 0
BBX 40 37 3 0
BITMAP
FFFFFFC000
FFFFFFF800
FFFFFFFE00
FFFFFFFF80
FFFFFFFFC0
FFFFFFFFE0
FE0003FFF0
FE00001FF8
FE00000FF8
FE000003FC
FE000001FC
FE000001FE
FE000000FE
FE000000FE
FE0000007E
FE0000007F
FE0000007F
FE0000007F
FE0000007F
FE0000007F
FE0000007F
FE0000007E
FE0000007E
FE000000FE
FE000000FE
FE000001FC
FE000001FC
FE000003FC
FE00000FF8
FE00001FF0
FE0003FFF0
FFFFFFFFE0
FFFFFFFFC0
FFFFFFFF00
FFFFFFFE00
FFFFFFF800
FFFFFFC000
ENDCHAR
STARTCHAR E
ENCODING 69
SWIDTH 759 0
DWIDTH 39 0
BBX 33 37 3 0
BITMAP
FFFFFFFF80
FFFFFFFF80
FFFFFFFF80
FFFFFFFF80
FFFFFFFF80
FFFFFFFF80
FE00000000
FE00000000
FE00000000
FE00000000
FE00000000
FE00000000
FE00000000
FE00000000
FE00000000
FE00000000
FE1FFFFF00
FE1FFFFF00
FE1FFFFF00
FE1FFFFF00
FE1FFFFF00
FE00000000
FE00000000
FE00000000
FE00000000
FE00000000
FE00000000
FE00000000
FE00000000
FE00000000
FE00000000
FFFFFFFF80
FFFFFFFF80
FFFFFFFF80
FFFFFFFF80
FFFFFFFF80
FFFFFFFF80
ENDCHAR
STARTCHAR F
ENCODING 70
SWIDTH 705 0
DWIDTH 36 0
BBX 32 37 3 0
BITMAP
FFFFFFFF
FFFFFFFF
FFFFFFFF
FFFFFFFF
FFFFFFFF
FFFFFFFF
FE000000
FE000000
FE000000
FE000000
FE000000
FE000000
FE000000
FE000000
FE000000
FE000000
FE1FFFFC
FE1FFFFC
FE1FFFFC
FE1FFFFC
FE1FFFFC
FE1FFFFC
FE000000
FE000000
FE000000
FE000000
FE000000
FE000000
FE000000
FE000000
FE000000
FE000000
FE000000
FE000000
FE000000
FE000000
FE000000
ENDCHAR
STARTCHAR G
ENCODING 71
SWIDTH 888 0
DWIDTH 45 0
BBX 41 37 2 0
BITMAP
0003FFFFFC00
003FFFFFFC00
00FFFFFFFC00
01FFFFFFFC00
03FFFFFFFC00
07FFFFFFFC00
0FFFC0000000
1FF800000000
1FE000000000
3FC000000000
3F8000000000
7F8000000000
7F0000000000
7F0000000000
FE0000000000
FE0000000000
FE007FFFFF80
FE007FFFFF80
FE007FFFFF80
FE007FFFFF80
FE007FFFFF80
FE0000003F80
7E0000003F80
7F0000003F80
7F0000003F80
7F8000003F80
3F8000003F80
3FC000003F80
1FF000003F80
0FF800003F80
0FFFC0003F80
07FFFFFFFF80
03FFFFFFFF80
01FFFFFFFF80
007FFFFFFF80
001FFFFFFF80
0003FFFFFF80
ENDCHAR
STARTCHAR H
ENCODING 72
SWIDTH 838 0
DWIDTH 43 0
BBX 37 37 3 0
BITMAP
FE000003F8
FE000003F8
FE000003F8
FE000003F8
FE000003F8
FE000003F8
FE000003F8
FE000003F8
FE000003F8
FE000003F8
FE000003F8
FE000003F8
FE000003F8
FE000003F8
FE000003F8
FE1FFFFFF8
FE1FFFFFF8
FE1FFFFFF8
FE1FFFFFF8
FE1FFFFFF8
FE1FFFFFF8
FE000003F8
FE000003F8
FE000003F8
FE000003F8
FE000003F8
FE000003F8
FE000003F8
FE000003F8
FE000003F8
FE000003F8
FE000003F8
FE000003F8
FE000003F8
FE000003F8
FE000003F8
FE000003F8
ENDCHAR
STARTCHAR I
ENCODING 73
SWIDTH 267 0
DWIDTH 14 0
BBX 6 37 4 0
BITMAP
FC
FC
FC
FC
FC
FC
FC
FC
FC
FC
FC
FC
FC
FC
FC
FC
FC
FC
FC
FC
FC
FC
FC
FC
FC
FC
FC
FC
FC
FC
FC
FC
FC
FC
FC
FC
FC
ENDCHAR
STARTCHAR J
ENCODING 74
SWIDTH 708 0
DWIDTH 36 0
BBX 32 37 1 0
BITMAP
0000003F
0000003F
0000003F
0000003F
0000003F
0000003F
0000003F
0000003F
0000003F
0000003F
0000003F
0000003F
0000003F
0000003F
0000003F
0000003F
0000003F
0000003F
0000003F
0000003F
0000003F
0000003F
0000003F
0000003F
0000007F
0000007F
000000FF
000000FE
000001FE
000007FE
0003FFFC
FFFFFFF8
FFFFFFF0
FFFFFFE0
FFFFFFC0
FFFFFF00
FFFFF000
ENDCHAR
STARTCHAR K
ENCODING 75
SWIDTH 875 0
DWIDTH 45 0
BBX 41 37 3 0
BITMAP
FE000007FF00
FE00000FFC00
FE00001FF800
FE00007FE000
FE0000FFC000
FE0001FF8000
FE0007FE0000
FE000FFC0000
FE001FF80000
FE003FE00000
FE00FFC00000
FE01FF800000
FE03FE000000
FE0FFC000000
FE1FF8000000
FE3FE0000000
FE7FC0000000
FE7F80000000
FE7F00000000
FE7F80000000
FE3FE0000000
FE1FF0000000
FE0FF8000000
FE03FE000000
FE01FF000000
FE00FF800000
FE007FE00000
FE001FF00000
FE000FF80000
FE0007FE0000
FE0003FF0000
FE0000FF8000
FE00007FE000
FE00003FF000
FE00000FF800
FE000007FE00
FE000003FF80
ENDCHAR
STARTCHAR L
ENCODING 76
SWIDTH 707 0
DWIDTH 36 0
BBX 32 37 3 0
BITMAP
FE000000
FE000000
FE000000
FE000000
FE000000
FE000000
FE000000
FE000000
FE000000
FE000000
FE000000
FE000000
FE000000
FE000000
FE000000
FE000000
FE000000
FE000000
FE000000
FE000000
FE000000
FE000000
FE000000
FE000000
FE000000
FE000000
FE000000
FE000000
FE000000
FE000000
FE000000
FFFFFFFF
FFFFFFFF
FFFFFFFF
FFFFFFFF
FFFFFFFF
FFFFFFFF
ENDCHAR
STARTCHAR M
ENCODING 77
SWIDTH 1115 0
DWIDTH 57 0
BBX 55 38 1 -1
BITMAP
001E000000F000
003F000001F800
003F000001F800
003F800003FC00
007F800003FC00
007FC00003FC00
007FC00007FC00
00FFE00007FE00
00FFE0000FFE00
00FFE0000FFE00
00FFF0001FFE00
01FFF0001FFF00
01FBF8001FBF00
01F9F8003F3F00
03F9FC003F3F80
03F9FC007E3F80
03F0FE007E1F80
03F0FE00FE1F80
07F07E00FC1FC0
07E07F01FC0FC0
07E03F01F80FC0
07E03F81F80FE0
0FE01F83F00FE0
0FC01FC3F007E0
0FC01FC7E007E0
1FC00FE7E007F0
1FC00FEFE007F0
1F8007EFC003F0
1F8007FFC003F0
3F8003FF8003F8
3F0003FF8001F8
3F0001FF0001F8
7F0001FF0001FC
7F0001FE0001FC
7E0000FE0000FC
7E0000FE0000FC
FE00007C0000FE
00000010000000
ENDCHAR
STARTCHAR N
ENCODING 78
SWIDTH 873 0
DWIDTH 45 0
BBX 38 37 3 0
BITMAP
38000000FC
7C000000FC
FE000000FC
FF000000FC
FF800000FC
FFC00000FC
FFE00000FC
FFF00000FC
FFF80000FC
FFFC0000FC
FFFF0000FC
FDFF8000FC
FCFFC000FC
FC7FE000FC
FC1FF000FC
FC0FF800FC
FC07FC00FC
FC03FE00FC
FC01FF00FC
FC00FF80FC
FC007FC0FC
FC003FE0FC
FC001FF0FC
FC000FF8FC
FC0007FCFC
FC0003FEFC
FC0001FFFC
FC0000FFFC
FC00007FFC
FC00003FFC
FC00001FFC
FC00000FFC
FC000007FC
FC000003FC
FC000001FC
FC000000FC
FC00000078
ENDCHAR
STARTCHAR O
ENCODING 79
SWIDTH 968 0
DWIDTH 49 0
BBX 45 37 2 0
BITMAP
0003FFFF0000
003FFFFFE000
00FFFFFFF800
01FFFFFFFC00
03FFFFFFFF00
07FFFFFFFF80
0FFFC01FFFC0
1FF80000FFC0
1FE000003FE0
3FC000001FE0
3F8000000FF0
7F80000007F0
7F00000007F8
7F00000003F8
FE00000003F8
FE00000001F8
FE00000001F8
FE00000001F8
FE00000001F8
FE00000001F8
FE00000001F8
FE00000003F8
7E00000003F8
7F00000003F8
7F00000007F0
7F80000007F0
3F8000000FF0
3FC000001FE0
1FF000003FE0
0FF80000FFC0
0FFFC00FFF80
07FFFFFFFF00
03FFFFFFFE00
01FFFFFFFC00
007FFFFFF000
001FFFFFE000
0003FFFE0000
ENDCHAR
STARTCHAR P
ENCODING 80
SWIDTH 867 0
DWIDTH 44 0
BBX 40 37 3 0
BITMAP
FFFFFFFE00
FFFFFFFF80
FFFFFFFFE0
FFFFFFFFF0
FFFFFFFFF8
FFFFFFFFFC
FE00003FFC
FE000003FE
FE000000FE
FE000000FE
FE0000007F
FE0000007F
FE0000007F
FE0000007F
FE0000007F
FE0000007F
FE0000007F
FE000000FE
FE000000FE
FE000003FE
FE00003FFC
FE1FFFFFFC
FE1FFFFFF8
FE1FFFFFF0
FE1FFFFFE0
FE1FFFFF80
FE1FFFFC00
FE00000000
FE00000000
FE00000000
FE00000000
FE00000000
FE00000000
FE00000000
FE00000000
FE00000000
FE00000000
ENDCHAR
STARTCHAR Q
ENCODING 81
SWIDTH 968 0
DWIDTH 49 0
BBX 47 37 2 0
BITMAP
0003FFFF0000
003FFFFFE000
00FFFFFFF800
01FFFFFFFC00
03FFFFFFFF00
07FFFFFFFF80
0FFFC01FFFC0
1FF80000FFC0
1FE000003FE0
3FC000001FE0
3F8000000FF0
7F80000007F0
7F00000007F8
7F00000003F8
FE00000003F8
FE00000001F8
FE00000001F8
FE00000001F8
FE00000001F8
FE00000001F8
FE00000001F8
FE00000003F8
7E000FF803F8
7F0003FC03F8
7F0001FF07F0
7F8000FF87F0
3F80003FCFF0
3FC0001FFFE0
1FF0000FFFE0
0FF80003FFC0
0FFFC01FFF80
07FFFFFFFF00
03FFFFFFFF80
01FFFFFFFFE0
007FFFFFFFF0
001FFFFFE7F8
0003FFFE03FE
ENDCHAR
STARTCHAR R
ENCODING 82
SWIDTH 921 0
DWIDTH 47 0
BBX 44 37 3 0
BITMAP
FFFFFFFE0000
FFFFFFFFC000
FFFFFFFFE000
FFFFFFFFF800
FFFFFFFFF800
FFFFFFFFFC00
FE00001FFE00
FE000001FE00
FE000000FF00
FE0000007F00
FE0000007F00
FE0000003F00
FE0000003F00
FE0000003F00
FE0000003F00
FE0000003F00
FE0000003F00
FE0000007F00
FE0000007F00
FE000000FE00
FE000003FE00
FE1FFFFFFC00
FE1FFFFFF800
FE1FFFFFF800
FE1FFFFFE000
FE1FFFFFC000
FE1FFFFF8000
FE00003FC000
FE00001FE000
FE00000FF000
FE000007F800
FE000007FC00
FE000003FE00
FE000001FF00
FE000000FF80
FE0000007FC0
FE0000003FF0
ENDCHAR
STARTCHAR S
ENCODING 83
SWIDTH 880 0
DWIDTH 45 0
BBX 40 37 3 0
BITMAP
01FFFFFFFC
07FFFFFFFC
1FFFFFFFFC
3FFFFFFFFC
7FFFFFFFFC
7FFFFFFFFC
FFE0000000
FF00000000
FE00000000
FE00000000
FC00000000
FC00000000
FE00000000
FE00000000
FE00000000
7F80000000
7FFFFFFF00
3FFFFFFFE0
1FFFFFFFF8
07FFFFFFF8
01FFFFFFFC
00000001FE
00000000FE
000000007E
000000007E
000000007F
000000007F
000000007F
000000007E
00000000FE
0000000FFE
FFFFFFFFFC
FFFFFFFFFC
FFFFFFFFF8
FFFFFFFFF0
FFFFFFFFE0
FFFFFFFF00
ENDCHAR
STARTCHAR T
ENCODING 84
SWIDTH 720 0
DWIDTH 37 0
BBX 35 37 1 0
BITMAP
FFFFFFFFE0
FFFFFFFFE0
FFFFFFFFE0
FFFFFFFFE0
FFFFFFFFE0
FFFFFFFFE0
0003F80000
0003F80000
0003F80000
0003F80000
0003F80000
0003F80000
0003F80000
0003F80000
0003F80000
0003F80000
0003F80000
0003F80000
0003F80000
0003F80000
0003F80000
0003F80000
0003F80000
0003F80000
0003F80000
0003F80000
0003F80000
0003F80000
0003F80000
0003F80000
0003F80000
0003F80000
0003F80000
0003F80000
0003F80000
0003F80000
0003F80000
ENDCHAR
STARTCHAR U
ENCODING 85
SWIDTH 889 0
DWIDTH 45 0
BBX 40 37 3 0
BITMAP
FC0000007F
FC0000007F
FC0000007F
FC0000007F
FC0000007F
FC0000007F
FC0000007F
FC0000007F
FC0000007F
FC0000007F
FC0000007F
FC0000007F
FC0000007F
FC0000007F
FC0000007F
FC0000007F
FC0000007F
FC0000007F
FC0000007F
FC0000007F
FC0000007F
FC0000007F
FC0000007F
FE0000007F
FE0000007E
FE0000007E
FF000000FE
7F000001FE
7F800003FC
7FE00007FC
3FFC003FF8
1FFFFFFFF8
1FFFFFFFF0
0FFFFFFFE0
03FFFFFF80
00FFFFFF00
001FFFF800
ENDCHAR
STARTCHAR V
ENCODING 86
SWIDTH 989 0
DWIDTH 50 0
BBX 49 38 1 -1
BITMAP
FF000000007F80
7F80000000FF00
7F80000000FE00
3FC0000001FE00
3FC0000001FC00
1FE0000003F800
0FE0000007F800
0FF0000007F000
07F800000FF000
07F800000FE000
03FC00001FC000
01FC00003FC000
01FE00003F8000
00FF00007F8000
00FF00007F0000
007F8000FE0000
003F8000FE0000
003FC001FC0000
001FE003FC0000
001FE003F80000
000FF007F00000
0007F007F00000
0007F80FE00000
0003F81FE00000
0003FC1FC00000
0001FE3F800000
0000FE3F800000
0000FF7F000000
00007F7E000000
00007FFE000000
00003FFC000000
00001FFC000000
00001FF8000000
00000FF0000000
00000FF0000000
000007E0000000
000003C0000000
00000080000000
ENDCHAR
STARTCHAR W
ENCODING 87
SWIDTH 1268 0
DWIDTH 65 0
BBX 63 38 1 -1
BITMAP
FF003FC0000001FE
7F001FE0000001FC
7F800FE0000003FC
3F800FF0000003F8
3FC007F0000007F8
1FC007F8000007F0
1FE003F800000FE0
0FE003FC00000FE0
0FF001FC00001FC0
07F001FE00001FC0
07F800FE00003F80
03F800FF00003F80
03FC007F00007F00
01FC007F80007F00
01FE003F8000FE00
00FF003FC000FE00
007F001FC001FC00
007F801FE001FC00
003F800FE003F800
003FC00FF007F800
001FC01FF007F000
001FE01FF80FE000
000FE03FF80FE000
000FF07FFC1FC000
0007F07FFC1FC000
0007F8FEFE3F8000
0003F8FEFE3F8000
0003FDFC7F7F0000
0001FDFC7F7F0000
0001FFF83FFE0000
0000FFF03FFE0000
00007FF01FFC0000
00007FE01FFC0000
00003FE00FF80000
00003FC00FF80000
00001FC007F00000
00001F8007E00000
00000F0003C00000
ENDCHAR
STARTCHAR X
ENCODING 88
SWIDTH 1000 0
DWIDTH 51 0
BBX 49 37 1 0
BITMAP
3FE0000003FE00
1FF0000007F800
0FF800000FF000
07FC00001FE000
03FE00003FC000
01FF00007F8000
00FF8000FF0000
007FC001FE0000
003FE003FC0000
001FF007F80000
000FF80FF00000
0007FC1FE00000
0003FE3FC00000
0001FF7F800000
0000FFFF000000
00007FFE000000
00003FFC000000
00001FF8000000
00000FF8000000
00003FFC000000
00007FFE000000
0000FFFF000000
0001FFFF800000
0003FE7FC00000
0007F83FE00000
000FF01FF00000
001FE00FF80000
003FC003FE0000
007F8001FF0000
00FF0000FF8000
01FE00007FC000
03FC00003FE000
07F800001FF000
0FF000000FF800
1FE0000007FC00
3FC0000003FE00
FF80000001FF80
ENDCHAR
STARTCHAR Y
ENCODING 89
SWIDTH 926 0
DWIDTH 47 0
BBX 46 37 1 0
BITMAP
FF80000007FC
7FC000000FF0
3FC000001FE0
1FE000003FE0
1FF000003FC0
0FF800007F80
07FC0000FF00
03FE0001FE00
01FE0003FC00
00FF0007F800
007F8007F800
007FC00FF000
003FE01FE000
001FF03FC000
000FF07F8000
0007F8FF0000
0003FCFF0000
0001FFFE0000
0001FFFC0000
0000FFF80000
00007FF00000
00003FE00000
00001FC00000
00001FC00000
00001FC00000
00001FC00000
00001FC00000
00001FC00000
00001FC00000
00001FC00000
00001FC00000
00001FC00000
00001FC00000
00001FC00000
00001FC00000
00001FC00000
00001FC00000
ENDCHAR
STARTCHAR Z
ENCODING 90
SWIDTH 802 0
DWIDTH 41 0
BBX 37 37 2 0
BITMAP
FFFFFFFFE0
FFFFFFFFF0
FFFFFFFFF8
FFFFFFFFF8
FFFFFFFFF0
FFFFFFFFF0
0000003FE0
0000007FC0
000000FF80
000001FF00
000003FE00
000007FC00
00000FF800
00001FF000
00003FE000
00007FC000
0000FF8000
0001FF0000
0003FE0000
0007FC0000
000FF80000
001FF00000
003FE00000
007FC00000
00FF800000
01FF000000
03FE000000
07FC000000
0FF8000000
1FF0000000
3FE0000000
7FFFFFFFF0
FFFFFFFFF0
FFFFFFFFF0
FFFFFFFFF0
7FFFFFFFF0
3FFFFFFFF0
ENDCHAR
STARTCHAR bracketleft
ENCODING 91
SWIDTH 333 0
DWIDTH 17 0
BBX 9 46 5 -5
BITMAP
FF80
FF80
FF80
FF80
F000
F000
F000
F000
F000
F000
F000
F000
F000
F000
F000
F000
F000
F000
F000
F000
F000
F000
F000
F000
F000
F000
F000
F000
F000
F000
F000
F000
F000
F000
F000
F000
F000
F000
F000
F000
F000
F000
FF80
FF80
FF80
FF80
ENDCHAR
STARTCHAR backslash
ENCODING 92
SWIDTH 445 0
DWIDTH 23 0
BBX 21 37 1 0
BITMAP
F00000
F80000
780000
780000
3C0000
3C0000
1E0000
1E0000
1F0000
0F0000
0F8000
078000
07C000
03C000
03E000
01E000
01F000
00F000
00F000
007800
007800
007C00
003C00
003E00
001E00
001F00
000F00
000F80
000780
0007C0
0003C0
0003E0
0001E0
0001F0
0000F0
0000F0
0000F8
ENDCHAR
STARTCHAR bracketright
ENCODING 93
SWIDTH 333 0
DWIDTH 17 0
BBX 9 46 3 -5
BITMAP
FF80
FF80
FF80
FF80
0780
0780
0780
0780
0780
0780
0780
0780
0780
0780
0780
0780
0780
0780
0780
0780
0780
0780
0780
0780
0780
0780
0780
0780
0780
0780
0780
0780
0780
0780
0780
0780
0780
0780
0780
0780
0780
0780
FF80
FF80
FF80
FF80
ENDCHAR
STARTCHAR asciicircum
ENCODING 94
SWIDTH 559 0
DWIDTH 29 0
BBX 22 22 3 15
BITMAP
003800
007C00
007C00
00FC00
00FE00
01FE00
01EF00
03CF00
03CF80
03C780
078780
0783C0
0F03C0
0F03E0
1F01E0
1E01F0
1E00F0
3C00F0
3C00F8
7C0078
78007C
F8003C
ENDCHAR
STARTCHAR underscore
ENCODING 95
SWIDTH 668 0
DWIDTH 34 0
BBX 34 3 0 -8
BITMAP
FFFFFFFFC0
FFFFFFFFC0
FFFFFFFFC0
ENDCHAR
STARTCHAR grave
ENCODING 96
SWIDTH 362 0
DWIDTH 18 0
BBX 13 7 3 39
BITMAP
C000
F800
FF00
FFF0
3FF8
01F8
0008
ENDCHAR
STARTCHAR a
ENCODING 97
SWIDTH 989 0
DWIDTH 50 0
BBX 49 38 1 0
BITMAP
00000080000000
000003C0000000
000007E0000000
00000FF0000000
00000FF0000000
00001FF8000000
00001FFC000000
00003FFC000000
00007FFE000000
00007FFE000000
0000FFFF000000
0000FE7F800000
0001FC7F800000
0003FC3FC00000
0003F81FE00000
0007F81FE00000
0007F00FF00000
000FE00FF00000
001FE007F80000
001FC003FC0000
003FC003FC0000
003F8001FE0000
007F0001FE0000
00FF0000FF0000
00FE07FFFF8000
01FE0FFFFF8000
01FC1FFFFFC000
03F81FFFFFC000
07F83FFFFFE000
07F000000FF000
0FF000000FF000
0FE0000007F800
1FC0000007F800
3FC0000003FC00
3F80000001FE00
7F80000001FE00
7F00000000FF00
FE000000007F80
ENDCHAR
STARTCHAR b
ENCODING 98
SWIDTH 891 0
DWIDTH 45 0
BBX 40 37 3 0
BITMAP
FFFFFFFF00
FFFFFFFFC0
FFFFFFFFF0
FFFFFFFFF8
FFFFFFFFFC
FFFFFFFFFC
FE00007FFE
FE000001FE
FE000000FE
FE000000FE
FE0000007E
FE0000007E
FE0000007E
FE000000FE
FE000000FC
FE000003FC
FE1FFFFFF8
FE1FFFFFE0
FE1FFFFFF0
FE1FFFFFF8
FE1FFFFFFC
FE000001FE
FE000000FE
FE0000007F
FE0000007F
FE0000007F
FE0000007F
FE0000007F
FE000000FF
FE000001FF
FE00003FFE
FFFFFFFFFE
FFFFFFFFFC
FFFFFFFFF8
FFFFFFFFF0
FFFFFFFFE0
FFFFFFFF00
ENDCHAR
STARTCHAR c
ENCODING 99
SWIDTH 829 0
DWIDTH 42 0
BBX 38 37 2 0
BITMAP
0003FFFFFC
003FFFFFFC
00FFFFFFFC
01FFFFFFFC
03FFFFFFFC
07FFFFFFFC
0FFFC00000
1FF8000000
1FE0000000
3FC0000000
3F80000000
7F80000000
7F00000000
7F00000000
FE00000000
FE00000000
FE00000000
FE00000000
FE00000000
FE00000000
FE00000000
FE00000000
7E00000000
7F00000000
7F00000000
7F80000000
3F80000000
3FC0000000
1FF0000000
0FF8000000
0FFFC00000
07FFFFFFFC
03FFFFFFFC
01FFFFFFFC
007FFFFFFC
001FFFFFFC
0003FFFFFC
ENDCHAR
STARTCHAR d
ENCODING 100
SWIDTH 879 0
DWIDTH 45 0
BBX 40 37 3 0
BITMAP
FFFFFFC000
FFFFFFF800
FFFFFFFE00
FFFFFFFF80
FFFFFFFFC0
FFFFFFFFE0
FE0003FFF0
FE00001FF8
FE00000FF8
FE000003FC
FE000001FC
FE000001FE
FE000000FE
FE000000FE
FE0000007E
FE0000007F
FE0000007F
FE0000007F
FE0000007F
FE0000007F
FE0000007F
FE0000007E
FE0000007E
FE000000FE
FE000000FE
FE000001FC
FE000001FC
FE000003FC
FE00000FF8
FE00001FF0
FE0003FFF0
FFFFFFFFE0
FFFFFFFFC0
FFFFFFFF00
FFFFFFFE00
FFFFFFF800
FFFFFFC000
ENDCHAR
STARTCHAR e
ENCODING 101
SWIDTH 759 0
DWIDTH 39 0
BBX 33 37 3 0
BITMAP
FFFFFFFF80
FFFFFFFF80
FFFFFFFF80
FFFFFFFF80
FFFFFFFF80
FFFFFFFF80
FE00000000
FE00000000
FE00000000
FE00000000
FE00000000
FE00000000
FE00000000
FE00000000
FE00000000
FE00000000
FE1FFFFF00
FE1FFFFF00
FE1FFFFF00
FE1FFFFF00
FE1FFFFF00
FE00000000
FE00000000
FE00000000
FE00000000
FE00000000
FE00000000
FE00000000
FE00000000
FE00000000
FE00000000
FFFFFFFF80
FFFFFFFF80
FFFFFFFF80
FFFFFFFF80
FFFFFFFF80
FFFFFFFF80
ENDCHAR
STARTCHAR f
ENCODING 102
SWIDTH 705 0
DWIDTH 36 0
BBX 32 37 3 0
BITMAP
FFFFFFFF
FFFFFFFF
FFFFFFFF
FFFFFFFF
FFFFFFFF
FFFFFFFF
FE000000
FE000000
FE000000
FE000000
FE000000
FE000000
FE000000
FE000000
FE000000
FE000000
FE1FFFFC
FE1FFFFC
FE1FFFFC
FE1FFFFC
FE1FFFFC
FE1FFFFC
FE000000
FE000000
FE000000
FE000000
FE000000
FE000000
FE000000
FE000000
FE000000
FE000000
FE000000
FE000000
FE000000
FE000000
FE000000
ENDCHAR
STARTCHAR g
ENCODING 103
SWIDTH 888 0
DWIDTH 45 0
BBX 41 37 2 0
BITMAP
0003FFFFFC00
003FFFFFFC00
00FFFFFFFC00
01FFFFFFFC00
03FFFFFFFC00
07FFFFFFFC00
0FFFC0000000
1FF800000000
1FE000000000
3FC000000000
3F8000000000
7F8000000000
7F0000000000
7F0000000000
FE0000000000
FE0000000000
FE007FFFFF80
FE007FFFFF80
FE007FFFFF80
FE007FFFFF80
FE007FFFFF80
FE0000003F80
7E0000003F80
7F0000003F80
7F0000003F80
7F8000003F80
3F8000003F80
3FC000003F80
1FF000003F80
0FF800003F80
0FFFC0003F80
07FFFFFFFF80
03FFFFFFFF80
01FFFFFFFF80
007FFFFFFF80
001FFFFFFF80
0003FFFFFF80
ENDCHAR
STARTCHAR h
ENCODING 104
SWIDTH 838 0
DWIDTH 43 0
BBX 37 37 3 0
BITMAP
FE000003F8
FE000003F8
FE000003F8
FE000003F8
FE000003F8
FE000003F8
FE000003F8
FE000003F8
FE000003F8
FE000003F8
FE000003F8
FE000003F8
FE000003F8
FE000003F8
FE000003F8
FE1FFFFFF8
FE1FFFFFF8
FE1FFFFFF8
FE1FFFFFF8
FE1FFFFFF8
FE1FFFFFF8
FE000003F8
FE000003F8
FE000003F8
FE000003F8
FE000003F8
FE000003F8
FE000003F8
FE000003F8
FE000003F8
FE000003F8
FE000003F8
FE000003F8
FE000003F8
FE000003F8
FE000003F8
FE000003F8
ENDCHAR
STARTCHAR i
ENCODING 105
SWIDTH 267 0
DWIDTH 14 0
BBX 6 37 4 0
BITMAP
FC
FC
FC
FC
FC
FC
FC
FC
FC
FC
FC
FC
FC
FC
FC
FC
FC
FC
FC
FC
FC
FC
FC
FC
FC
FC
FC
FC
FC
FC
FC
FC
FC
FC
FC
FC
FC
ENDCHAR
STARTCHAR j
ENCODING 106
SWIDTH 708 0
DWIDTH 36 0
BBX 32 37 1 0
BITMAP
0000003F
0000003F
0000003F
0000003F
0000003F
0000003F
0000003F
0000003F
0000003F
0000003F
0000003F
0000003F
0000003F
0000003F
0000003F
0000003F
0000003F
0000003F
0000003F
0000003F
0000003F
0000003F
0000003F
0000003F
0000007F
0000007F
000000FF
000000FE
000001FE
000007FE
0003FFFC
FFFFFFF8
FFFFFFF0
FFFFFFE0
FFFFFFC0
FFFFFF00
FFFFF000
ENDCHAR
STARTCHAR k
ENCODING 107
SWIDTH 875 0
DWIDTH 45 0
BBX 41 37 3 0
BITMAP
FE000007FF00
FE00000FFC00
FE00001FF800
FE00007FE000
FE0000FFC000
FE0001FF8000
FE0007FE0000
FE000FFC0000
FE001FF80000
FE003FE00000
FE00FFC00000
FE01FF800000
FE03FE000000
FE0FFC000000
FE1FF8000000
FE3FE0000000
FE7FC0000000
FE7F80000000
FE7F00000000
FE7F80000000
FE3FE0000000
FE1FF0000000
FE0FF8000000
FE03FE000000
FE01FF000000
FE00FF800000
FE007FE00000
FE001FF00000
FE000FF80000
FE0007FE0000
FE0003FF0000
FE0000FF8000
FE00007FE000
FE00003FF000
FE00000FF800
FE000007FE00
FE000003FF80
ENDCHAR
STARTCHAR l
ENCODING 108
SWIDTH 707 0
DWIDTH 36 0
BBX 32 37 3 0
BITMAP
FE000000
FE000000
FE000000
FE000000
FE000000
FE000000
FE000000
FE000000
FE000000
FE000000
FE000000
FE000000
FE000000
FE000000
FE000000
FE000000
FE000000
FE000000
FE000000
FE000000
FE000000
FE000000
FE000000
FE000000
FE000000
FE000000
FE000000
FE000000
FE000000
FE000000
FE000000
FFFFFFFF
FFFFFFFF
FFFFFFFF
FFFFFFFF
FFFFFFFF
FFFFFFFF
ENDCHAR
STARTCHAR m
ENCODING 109
SWIDTH 1115 0
DWIDTH 57 0
BBX 55 38 1 -1
BITMAP
001E000000F000
003F000001F800
003F000001F800
003F800003FC00
007F800003FC00
007FC00003FC00
007FC00007FC00
00FFE00007FE00
00FFE0000FFE00
00FFE0000FFE00
00FFF0001FFE00
01FFF0001FFF00
01FBF8001FBF00
01F9F8003F3F00
03F9FC003F3F80
03F9FC007E3F80
03F0FE007E1F80
03F0FE00FE1F80
07F07E00FC1FC0
07E07F01FC0FC0
07E03F01F80FC0
07E03F81F80FE0
0FE01F83F00FE0
0FC01FC3F007E0
0FC01FC7E007E0
1FC00FE7E007F0
1FC00FEFE007F0
1F8007EFC003F0
1F8007FFC003F0
3F8003FF8003F8
3F0003FF8001F8
3F0001FF0001F8
7F0001FF0001FC
7F0001FE0001FC
7E0000FE0000FC
7E0000FE0000FC
FE00007C0000FE
00000010000000
ENDCHAR
STARTCHAR n
ENCODING 110
SWIDTH 873 0
DWIDTH 45 0
BBX 38 37 3 0
BITMAP
38000000FC
7C000000FC
FE000000FC
FF000000FC
FF800000FC
FFC00000FC
FFE00000FC
FFF00000FC
FFF80000FC
FFFC0000FC
FFFF0000FC
FDFF8000FC
FCFFC000FC
FC7FE000FC
FC1FF000FC
FC0FF800FC
FC07FC00FC
FC03FE00FC
FC01FF00FC
FC00FF80FC
FC007FC0FC
FC003FE0FC
FC001FF0FC
FC000FF8FC
FC0007FCFC
FC0003FEFC
FC0001FFFC
FC0000FFFC
FC00007FFC
FC00003FFC
FC00001FFC
FC00000FFC
FC000007FC
FC000003FC
FC000001FC
FC000000FC
FC00000078
ENDCHAR
STARTCHAR o
ENCODING 111
SWIDTH 968 0
DWIDTH 49 0
BBX 45 37 2 0
BITMAP
0003FFFF0000
003FFFFFE000
00FFFFFFF800
01FFFFFFFC00
03FFFFFFFF00
07FFFFFFFF80
0FFFC01FFFC0
1FF80000FFC0
1FE000003FE0
3FC000001FE0
3F8000000FF0
7F80000007F0
7F00000007F8
7F00000003F8
FE00000003F8
FE00000001F8
FE00000001F8
FE00000001F8
FE00000001F8
FE00000001F8
FE00000001F8
FE00000003F8
7E00000003F8
7F00000003F8
7F00000007F0
7F80000007F0
3F8000000FF0
3FC000001FE0
1FF000003FE0
0FF80000FFC0
0FFFC00FFF80
07FFFFFFFF00
03FFFFFFFE00
01FFFFFFFC00
007FFFFFF000
001FFFFFE000
0003FFFE0000
ENDCHAR
STARTCHAR p
ENCODING 112
SWIDTH 867 0
DWIDTH 44 0
BBX 40 37 3 0
BITMAP
FFFFFFFE00
FFFFFFFF80
FFFFFFFFE0
FFFFFFFFF0
FFFFFFFFF8
FFFFFFFFFC
FE00003FFC
FE000003FE
FE000000FE
FE000000FE
FE0000007F
FE0000007F
FE0000007F
FE0000007F
FE0000007F
FE0000007F
FE0000007F
FE000000FE
FE000000FE
FE000003FE
FE00003FFC
FE1FFFFFFC
FE1FFFFFF8
FE1FFFFFF0
FE1FFFFFE0
FE1FFFFF80
FE1FFFFC00
FE00000000
FE00000000
FE00000000
FE00000000
FE00000000
FE00000000
FE00000000
FE00000000
FE00000000
FE00000000
ENDCHAR
STARTCHAR q
ENCODING 113
SWIDTH 968 0
DWIDTH 49 0
BBX 47 37 2 0
BITMAP
0003FFFF0000
003FFFFFE000
00FFFFFFF800
01FFFFFFFC00
03FFFFFFFF00
07FFFFFFFF80
0FFFC01FFFC0
1FF80000FFC0
1FE000003FE0
3FC000001FE0
3F8000000FF0
7F80000007F0
7F00000007F8
7F00000003F8
FE00000003F8
FE00000001F8
FE00000001F8
FE00000001F8
FE00000001F8
FE00000001F8
FE00000001F8
FE00000003F8
7E000FF803F8
7F0003FC03F8
7F0001FF07F0
7F8000FF87F0
3F80003FCFF0
3FC0001FFFE0
1FF0000FFFE0
0FF80003FFC0
0FFFC01FFF80
07FFFFFFFF00
03FFFFFFFF80
01FFFFFFFFE0
007FFFFFFFF0
001FFFFFE7F8
0003FFFE03FE
ENDCHAR
STARTCHAR r
ENCODING 114
SWIDTH 921 0
DWIDTH 47 0
BBX 44 37 3 0
BITMAP
FFFFFFFE0000
FFFFFFFFC000
FFFFFFFFE000
FFFFFFFFF800
FFFFFFFFF800
FFFFFFFFFC00
FE00001FFE00
FE000001FE00
FE000000FF00
FE0000007F00
FE0000007F00
FE0000003F00
FE0000003F00
FE0000003F00
FE0000003F00
FE0000003F00
FE0000003F00
FE0000007F00
FE0000007F00
FE000000FE00
FE000003FE00
FE1FFFFFFC00
FE1FFFFFF800
FE1FFFFFF800
FE1FFFFFE000
FE1FFFFFC000
FE1FFFFF8000
FE00003FC000
FE00001FE000
FE00000FF000
FE000007F800
FE000007FC00
FE000003FE00
FE000001FF00
FE000000FF80
FE0000007FC0
FE0000003FF0
ENDCHAR
STARTCHAR s
ENCODING 115
SWIDTH 880 0
DWIDTH 45 0
BBX 40 37 3 0
BITMAP
01FFFFFFFC
07FFFFFFFC
1FFFFFFFFC
3FFFFFFFFC
7FFFFFFFFC
7FFFFFFFFC
FFE0000000
FF00000000
FE00000000
FE00000000
FC00000000
FC00000000
FE00000000
FE00000000
FE00000000
7F80000000
7FFFFFFF00
3FFFFFFFE0
1FFFFFFFF8
07FFFFFFF8
01FFFFFFFC
00000001FE
00000000FE
000000007E
000000007E
000000007F
000000007F
000000007F
000000007E
00000000FE
0000000FFE
FFFFFFFFFC
FFFFFFFFFC
FFFFFFFFF8
FFFFFFFFF0
FFFFFFFFE0
FFFFFFFF00
ENDCHAR
STARTCHAR t
ENCODING 116
SWIDTH 720 0
DWIDTH 37 0
BBX 35 37 1 0
BITMAP
FFFFFFFFE0
FFFFFFFFE0
FFFFFFFFE0
FFFFFFFFE0
FFFFFFFFE0
FFFFFFFFE0
0003F80000
0003F80000
0003F80000
0003F80000
0003F80000
0003F80000
0003F80000
0003F80000
0003F80000
0003F80000
0003F80000
0003F80000
0003F80000
0003F80000
0003F80000
0003F80000
0003F80000
0003F80000
0003F80000
0003F80000
0003F80000
0003F80000
0003F80000
0003F80000
0003F80000
0003F80000
0003F80000
0003F80000
0003F80000
0003F80000
0003F80000
ENDCHAR
STARTCHAR u
ENCODING 117
SWIDTH 889 0
DWIDTH 45 0
BBX 40 37 3 0
BITMAP
FC0000007F
FC0000007F
FC0000007F
FC0000007F
FC0000007F
FC0000007F
FC0000007F
FC0000007F
FC0000007F
FC0000007F
FC0000007F
FC0000007F
FC0000007F
FC0000007F
FC0000007F
FC0000007F
FC0000007F
FC0000007F
FC0000007F
FC0000007F
FC0000007F
FC0000007F
FC0000007F
FE0000007F
FE0000007E
FE0000007E
FF000000FE
7F000001FE
7F800003FC
7FE00007FC
3FFC003FF8
1FFFFFFFF8
1FFFFFFFF0
0FFFFFFFE0
03FFFFFF80
00FFFFFF00
001FFFF800
ENDCHAR
STARTCHAR v
ENCODING 118
SWIDTH 989 0
DWIDTH 50 0
BBX 49 38 1 -1
BITMAP
FF000000007F80
7F80000000FF00
7F80000000FE00
3FC0000001FE00
3FC0000001FC00
1FE0000003F800
0FE0000007F800
0FF0000007F000
07F800000FF000
07F800000FE000
03FC00001FC000
01FC00003FC000
01FE00003F8000
00FF00007F8000
00FF00007F0000
007F8000FE0000
003F8000FE0000
003FC001FC0000
001FE003FC0000
001FE003F80000
000FF007F00000
0007F007F00000
0007F80FE00000
0003F81FE00000
0003FC1FC00000
0001FE3F800000
0000FE3F800000
0000FF7F000000
00007F7E000000
00007FFE000000
00003FFC000000
00001FFC000000
00001FF8000000
00000FF0000000
00000FF0000000
000007E0000000
000003C0000000
00000080000000
ENDCHAR
STARTCHAR w
ENCODING 119
SWIDTH 1268 0
DWIDTH 65 0
BBX 63 38 1 -1
BITMAP
FF003FC0000001FE
7F001FE0000001FC
7F800FE0000003FC
3F800FF0000003F8
3FC007F0000007F8
1FC007F8000007F0
1FE003F800000FE0
0FE003FC00000FE0
0FF001FC00001FC0
07F001FE00001FC0
07F800FE00003F80
03F800FF00003F80
03FC007F00007F00
01FC007F80007F00
01FE003F8000FE00
00FF003FC000FE00
007F001FC001FC00
007F801FE001FC00
003F800FE003F800
003FC00FF007F800
001FC01FF007F000
001FE01FF80FE000
000FE03FF80FE000
000FF07FFC1FC000
0007F07FFC1FC000
0007F8FEFE3F8000
0003F8FEFE3F8000
0003FDFC7F7F0000
0001FDFC7F7F0000
0001FFF83FFE0000
0000FFF03FFE0000
00007FF01FFC0000
00007FE01FFC0000
00003FE00FF80000
00003FC00FF80000
00001FC007F00000
00001F8007E00000
00000F0003C00000
ENDCHAR
STARTCHAR x
ENCODING 120
SWIDTH 1000 0
DWIDTH 51 0
BBX 49 37 1 0
BITMAP
3FE0000003FE00
1FF0000007F800
0FF800000FF000
07FC00001FE000
03FE00003FC000
01FF00007F8000
00FF8000FF0000
007FC001FE0000
003FE003FC0000
001FF007F80000
000FF80FF00000
0007FC1FE00000
0003FE3FC00000
0001FF7F800000
0000FFFF000000
00007FFE000000
00003FFC000000
00001FF8000000
00000FF8000000
00003FFC000000
00007FFE000000
0000FFFF000000
0001FFFF800000
0003FE7FC00000
0007F83FE00000
000FF01FF00000
001FE00FF80000
003FC003FE0000
007F8001FF0000
00FF0000FF8000
01FE00007FC000
03FC00003FE000
07F800001FF000
0FF000000FF800
1FE0000007FC00
3FC0000003FE00
FF80000001FF80
ENDCHAR
STARTCHAR y
ENCODING 121
SWIDTH 926 0
DWIDTH 47 0
BBX 46 37 1 0
BITMAP
FF80000007FC
7FC000000FF0
3FC000001FE0
1FE000003FE0
1FF000003FC0
0FF800007F80
07FC0000FF00
03FE0001FE00
01FE0003FC00
00FF0007F800
007F8007F800
007FC00FF000
003FE01FE000
001FF03FC000
000FF07F8000
0007F8FF0000
0003FCFF0000
0001FFFE0000
0001FFFC0000
0000FFF80000
00007FF00000
00003FE00000
00001FC00000
00001FC00000
00001FC00000
00001FC00000
00001FC00000
00001FC00000
00001FC00000
00001FC00000
00001FC00000
00001FC00000
00001FC00000
00001FC00000
00001FC00000
00001FC00000
00001FC00000
ENDCHAR
STARTCHAR z
ENCODING 122
SWIDTH 802 0
DWIDTH 41 0
BBX 37 37 2 0
BITMAP
FFFFFFFFE0
FFFFFFFFF0
FFFFFFFFF8
FFFFFFFFF8
FFFFFFFFF0
FFFFFFFFF0
0000003FE0
0000007FC0
000000FF80
000001FF00
000003FE00
000007FC00
00000FF800
00001FF000
00003FE000
00007FC000
0000FF8000
0001FF0000
0003FE0000
0007FC0000
000FF80000
001FF00000
003FE00000
007FC00000
00FF800000
01FF000000
03FE000000
07FC000000
0FF8000000
1FF0000000
3FE0000000
7FFFFFFFF0
FFFFFFFFF0
FFFFFFFFF0
FFFFFFFFF0
7FFFFFFFF0
3FFFFFFFF0
ENDCHAR
STARTCHAR braceleft
ENCODING 123
SWIDTH 337 0
DWIDTH 17 0
BBX 11 47 3 -5
BITMAP
03E0
0FE0
0FE0
1FE0
1F00
1F00
1E00
1E00
1E00
1E00
1E00
1E00
1E00
1E00
1E00
1E00
1E00
1E00
1E00
1E00
1E00
3E00
FE00
FC00
FC00
FE00
3E00
1E00
1E00
1E00
1E00
1E00
1E00
1E00
1E00
1E00
1E00
1E00
1E00
1E00
1E00
1E00
1F00
1FE0
0FE0
0FE0
03E0
ENDCHAR
STARTCHAR bar
ENCODING 124
SWIDTH 297 0
DWIDTH 15 0
BBX 3 47 6 -5
BITMAP
E0
E0
E0
E0
E0
E0
E0
E0
E0
E0
E0
E0
E0
E0
E0
E0
E0
E0
E0
E0
E0
E0
E0
E0
E0
E0
E0
E0
E0
E0
E0
E0
E0
E0
E0
E0
E0
E0
E0
E0
E0
E0
E0
E0
E0
E0
E0
ENDCHAR
STARTCHAR braceright
ENCODING 125
SWIDTH 337 0
DWIDTH 17 0
BBX 11 47 3 -5
BITMAP
F800
FE00
FE00
FF00
1F00
0F00
0F00
0F00
0F00
0F00
0F00
0F00
0F00
0F00
0F00
0F00
0F00
0F00
0F00
0F00
0F00
0F80
0FE0
07E0
07E0
0FE0
0F80
0F00
0F00
0F00
0F00
0F00
0F00
0F00
0F00
0F00
0F00
0F00
0F00
0F00
0F00
0F00
1F00
FF00
FF00
FE00
F800
ENDCHAR
STARTCHAR asciitilde
ENCODING 126
SWIDTH 691 0
DWIDTH 35 0
BBX 29 8 3 15
BITMAP
0FE00000
3FF80008
7FFF0018
FFFFC078
F81FFFF8
E007FFF8
8000FFE0
80003F80
ENDCHAR
STARTCHAR nonbreakingspace
ENCODING 160
SWIDTH 294 0
DWIDTH 15 0
BBX 1 1 0 0
BITMAP
00
ENDCHAR
STARTCHAR exclamdown
ENCODING 161
SWIDTH 298 0
DWIDTH 15 0
BBX 7 37 4 0
BITMAP
3C
7E
FE
FE
FE
7C
00
00
00
00
00
00
7E
7E
7E
7E
7E
7E
7E
7E
7E
7E
7E
7E
7E
7E
7E
7E
7E
7E
7E
7E
7E
7E
7E
7E
7E
ENDCHAR
STARTCHAR cent
ENCODING 162
SWIDTH 692 0
DWIDTH 35 0
BBX 31 37 2 0
BITMAP
00003800
00003800
00003800
00003800
001FFFFE
00FFFFFE
03FFFFFE
07FFFFFE
0FFFFFFE
1FF03800
3F803800
3F003800
7E003800
7E003800
7C003800
FC003800
FC003800
F8003800
F8003800
F8003800
FC003800
FC003800
7C003800
7E003800
7E003800
3F003800
3F803800
1FF03800
0FFFFFFE
07FFFFFE
03FFFFFE
00FFFFFE
003FFFFE
00003800
00003800
00003800
00003800
ENDCHAR
STARTCHAR sterling
ENCODING 163
SWIDTH 709 0
DWIDTH 36 0
BBX 33 37 1 0
BITMAP
000FFFF000
003FFFF000
00FFFFF000
01FFFFF000
01FFFFF000
03FFFFF000
03FF800000
07F8000000
07F0000000
07E0000000
07E0000000
07E0000000
07E0000000
07E0000000
07E0000000
3FFFF80000
3FFFF80000
3FFFF80000
3FFFF80000
3FFFF80000
07E0000000
07E0000000
07E0000000
07E0000000
07E0000000
07E0000000
07E0000000
07E0000000
07E0000000
07E0000000
07E0000000
FFFFFFFF80
FFFFFFFF80
FFFFFFFF80
FFFFFFFF80
FFFFFFFF80
FFFFFFFF80
ENDCHAR
STARTCHAR yen
ENCODING 165
SWIDTH 787 0
DWIDTH 40 0
BBX 38 37 1 0
BITMAP
FF000003FC
7F800007F8
3F800007F0
3FC0000FF0
1FE0001FE0
0FE0001FC0
0FF0003FC0
07F8003F80
03F8007F00
03FC00FF00
01FC00FE00
00FE01FC00
00FF03FC00
007F03F800
003F87F000
003FC7F000
001FCFE000
000FFFC000
000FFFC000
0007FF8000
07FFFFFF80
07FFFFFF80
07FFFFFF80
07FFFFFF80
0000FC0000
0000FC0000
0000FC0000
0000FC0000
0000FC0000
07FFFFFF80
07FFFFFF80
07FFFFFF80
07FFFFFF80
0000FC0000
0000FC0000
0000FC0000
0000FC0000
ENDCHAR
STARTCHAR brokenbar
ENCODING 166
SWIDTH 297 0
DWIDTH 15 0
BBX 3 47 6 -5
BITMAP
E0
E0
E0
E0
E0
E0
E0
E0
E0
E0
E0
E0
E0
E0
E0
E0
E0
E0
E0
E0
E0
00
00
00
00
00
00
E0
E0
E0
E0
E0
E0
E0
E0
E0
E0
E0
E0
E0
E0
E0
E0
E0
E0
E0
E0
ENDCHAR
STARTCHAR section
ENCODING 167
SWIDTH 773 0
DWIDTH 39 0
BBX 34 47 2 -10
BITMAP
01FFFFFC00
07FFFFFC00
0FFFFFFC00
1FFFFFFC00
3FFFFFFC00
7FFFFFFC00
7FF0000000
7F00000000
7E00000000
FE00000000
7E00000000
7E00000000
7E00000000
7F00000000
7F80000000
3FFFFFE000
1FFFFFFC00
0FFFFFFE00
07FFFFFE00
0FFFFFFF00
1FC0007F00
1F80003F00
1F00001F80
3F00001F80
3F00001F80
3F00001F00
3F80003F00
1FC0007F00
1FFFFFFE00
1FFFFFFC00
0FFFFFFE00
07FFFFFF00
01FFFFFF80
0000003F80
0000001FC0
0000000FC0
0000000FC0
0000000FC0
0000000FC0
0000001FC0
0000003FC0
07FFFFFFC0
07FFFFFF80
07FFFFFF80
07FFFFFF00
07FFFFFE00
07FFFFF800
ENDCHAR
STARTCHAR dieresis
ENCODING 168
SWIDTH 393 0
DWIDTH 20 0
BBX 14 5 3 41
BITMAP
7038
F87C
F87C
F87C
7038
ENDCHAR
STARTCHAR copyright
ENCODING 169
SWIDTH 829 0
DWIDTH 42 0
BBX 38 38 2 -1
BITMAP
0001FF0000
000FFFE000
003E00F800
00F0001C00
01C0000E00
0300000380
0600000180
0C000000C0
1C00000060
1800000030
3000000030
3001FF8018
6007FF8018
600F000008
601E00000C
C03C00000C
C03800000C
C03800000C
C03000000C
C03000000C
C03000000C
C03800000C
C03800000C
601C00000C
601E000008
600F800018
3003FF8018
3000FF8030
1800000030
1C00000060
0C000000C0
0600000180
0380000380
01C0000E00
00F0001C00
003E00F800
000FFFE000
0001FE0000
ENDCHAR
STARTCHAR ordfeminine
ENCODING 170
SWIDTH 604 0
DWIDTH 31 0
BBX 27 21 2 15
BITMAP
00040000
000E0000
001F0000
001F0000
003F8000
007F8000
007BC000
00F3E000
01E1E000
01E0F000
03C0F000
03C07800
07807C00
0F1FFC00
0F1FFE00
1E3FFF00
1E000F00
3C000F80
78000780
780003C0
F00003E0
ENDCHAR
STARTCHAR guillemotleft
ENCODING 171
SWIDTH 629 0
DWIDTH 32 0
BBX 28 19 2 9
BITMAP
00060030
001E0070
003E01F0
00F807E0
03F00F80
07C03E00
1F00FC00
7C01F000
F803C000
F0078000
7C03E000
1F00F800
07803E00
03E01F00
00F807C0
007C01F0
001E00F0
00060030
00020010
ENDCHAR
STARTCHAR registered
ENCODING 174
SWIDTH 585 0
DWIDTH 30 0
BBX 24 23 3 14
BITMAP
00FE00
03FFC0
0701E0
1C0070
180018
30000C
61FF0C
61FF86
610186
C10086
C10083
C10183
C11F83
C11F02
410386
6101C6
60000C
30000C
180018
1C0070
0701E0
03FFC0
00FE00
ENDCHAR
STARTCHAR macron
ENCODING 175
SWIDTH 362 0
DWIDTH 18 0
BBX 13 3 3 41
BITMAP
FFF8
FFF8
FFF8
ENDCHAR
STARTCHAR degree
ENCODING 176
SWIDTH 361 0
DWIDTH 18 0
BBX 14 14 2 23
BITMAP
0FC0
3FF0
7FF8
783C
F01C
E01C
E01C
E01C
E01C
F01C
783C
7FF8
3FF0
0FE0
ENDCHAR
STARTCHAR plusminus
ENCODING 177
SWIDTH 690 0
DWIDTH 35 0
BBX 29 35 3 -2
BITMAP
000F8000
000F8000
000F8000
000F8000
000F8000
000F8000
000F8000
000F8000
000F8000
000F8000
000F8000
000F8000
000F8000
FFFFFFF8
FFFFFFF8
FFFFFFF8
FFFFFFF8
000F8000
000F8000
000F8000
000F8000
000F8000
000F8000
000F8000
000F8000
000F8000
000F8000
000F8000
000F8000
00000000
00000000
FFFFFFF8
FFFFFFF8
FFFFFFF8
FFFFFFF8
ENDCHAR
STARTCHAR twosuperior
ENCODING 178
SWIDTH 442 0
DWIDTH 23 0
BBX 18 18 2 19
BITMAP
FFFF00
FFFF80
FFFFC0
0003C0
0001C0
0001C0
0001C0
0FFFC0
3FFF80
7FFE00
700000
F00000
E00000
E00000
E00000
FFFFC0
FFFFC0
FFFFC0
ENDCHAR
STARTCHAR threesuperior
ENCODING 179
SWIDTH 443 0
DWIDTH 23 0
BBX 19 18 2 19
BITMAP
FFFE00
FFFF80
FFFFC0
0003C0
0001C0
0001C0
0003C0
0FFF80
0FFF00
0FFFC0
0003C0
0001E0
0001E0
0001E0
0003C0
FFFFC0
FFFF80
FFFE00
ENDCHAR
STARTCHAR acute
ENCODING 180
SWIDTH 362 0
DWIDTH 18 0
BBX 13 7 3 39
BITMAP
0018
01F8
0FF8
7FF8
FFC0
F800
8000
ENDCHAR
STARTCHAR paragraph
ENCODING 182
SWIDTH 629 0
DWIDTH 32 0
BBX 27 42 2 -5
BITMAP
07FFFFE0
1FFFFFE0
3FFFFFE0
3FFFFFE0
7FFF01E0
7FFF01E0
FFFF01E0
FFFF01E0
FFFF01E0
FFFF01E0
FFFF01E0
7FFF01E0
7FFF01E0
3FFF01E0
1FFF01E0
0FFF01E0
01FF01E0
000F01E0
000F01E0
000F01E0
000F01E0
000F01E0
000F01E0
000F01E0
000F01E0
000F01E0
000F01E0
000F01E0
000F01E0
000F01E0
000F01E0
000F01E0
000F01E0
000F01E0
000F01E0
000F01E0
000F01E0
000F01E0
000F01E0
000F01E0
000F01E0
000F01E0
ENDCHAR
STARTCHAR periodcentered
ENCODING 183
SWIDTH 262 0
DWIDTH 13 0
BBX 7 6 3 15
BITMAP
7C
FE
FE
FE
7E
3C
ENDCHAR
STARTCHAR cedilla
ENCODING 184
SWIDTH 219 0
DWIDTH 11 0
BBX 7 8 2 -10
BITMAP
FE
7C
7C
38
38
18
10
10
ENDCHAR
STARTCHAR onesuperior
ENCODING 185
SWIDTH 222 0
DWIDTH 11 0
BBX 8 19 1 19
BITMAP
F8
FC
FE
0F
07
07
07
07
07
07
07
07
07
07
07
07
07
07
07
ENDCHAR
STARTCHAR ordmasculine
ENCODING 186
SWIDTH 592 0
DWIDTH 30 0
BBX 25 21 3 15
BITMAP
03FFC000
0FFFF000
1FFFF800
3FFFFC00
7E007E00
78001F00
F8000F00
F0000F00
F0000700
E0000780
E0000780
E0000780
F0000700
F0000F00
F0000F00
78001E00
7E007E00
3FFFFC00
1FFFF800
0FFFF000
03FFC000
ENDCHAR
STARTCHAR guillemotright
ENCODING 187
SWIDTH 629 0
DWIDTH 32 0
BBX 28 19 2 9
BITMAP
C0060000
E0078000
F807C000
7E01F000
1F00FC00
07C03E00
01F00F80
00F803E0
003E01F0
001E00F0
007C03E0
01F00780
07C01F00
0F807C00
3E01F000
F803E000
F0078000
C0060000
80040000
ENDCHAR
STARTCHAR onequarter
ENCODING 188
SWIDTH 972 0
DWIDTH 50 0
BBX 45 43 2 -3
BITMAP
000000003C00
000000007800
0F800000F000
0FC00001F000
0FE00003E000
00F00003C000
007000078000
0070000F0000
0070001F0000
0070001E0000
0070003C0000
007000780000
007000F80000
007001F00000
007001E00000
007003C00000
007007800000
00700F800000
00701F000000
00701E000000
00703C000000
000078000000
0000F8000000
0001F03800E0
0001E03800E0
0003C03800E0
0007C03800E0
000F803800E0
000F003800E0
001E003800E0
003C003800E0
007C003800E0
00F8003C00E0
00F0003FFFF8
01E0001FFFF8
03C00007FFF8
07C0000000E0
0F80000000E0
0F00000000E0
1E00000000E0
3E00000000E0
7C0000000000
F80000000000
ENDCHAR
STARTCHAR onehalf
ENCODING 189
SWIDTH 948 0
DWIDTH 48 0
BBX 44 43 2 -3
BITMAP
000000003C00
000000007800
0F800000F000
0FC00001F000
0FE00003E000
00F00003C000
007000078000
0070000F0000
0070001F0000
0070001E0000
0070003C0000
007000780000
007000F80000
007001F00000
007001E00000
007003C00000
007007800000
00700F800000
00701F000000
00701E000000
00703C000000
000078000000
0000F8000000
0001F03FFF80
0001E03FFFE0
0003C03FFFF0
0007C00000F0
000F80000070
000F00000070
001E000000F0
003C0007FFF0
007C000FFFE0
00F8001FFF80
00F0003C0000
01E000380000
03C000380000
07C000380000
0F8000380000
0F00003FFFF0
1E00003FFFF0
3E00003FFFF0
7C0000000000
F80000000000
ENDCHAR
STARTCHAR threequarters
ENCODING 190
SWIDTH 1029 0
DWIDTH 52 0
BBX 48 43 2 -3
BITMAP
000000000780
000000000F00
000000001E00
FFFF00003E00
FFFF80007C00
FFFFC0007800
0003C000F000
0001C001E000
0001C003E000
0001C007C000
07FF80078000
07FF800F0000
07FFC01E0000
0001C03E0000
0001E03C0000
0001E0780000
0001E0F00000
0003C1F00000
FFFFC3E00000
FFFF83C00000
FFFF07800000
00000F000000
00001F000000
00003E07003C
00003C07003C
00007807003C
0000F007003C
0001F007003C
0003E007003C
0003C007003C
00078007003C
000F8007003C
001F0007803C
001E0007FFFF
003C0003FFFF
00780000FFFF
00F80000003C
01F00000003C
01E00000003C
03C00000003C
07800000003C
0F8000000000
1F0000000000
ENDCHAR
STARTCHAR questiondown
ENCODING 191
SWIDTH 776 0
DWIDTH 40 0
BBX 36 37 1 0
BITMAP
0000000F00
0000001F80
0000003F80
0000003F80
0000003F80
0000001F00
0000000000
0000000000
0000000000
0000000000
0000000000
0000000000
0000001F80
0000001F80
0000001F80
0000001F80
0000003F80
00FFFFFF00
07FFFFFF00
0FFFFFFE00
1FFFFFFC00
3FFFFFF000
7F80000000
7F00000000
7E00000000
7E00000000
FE00000000
FE00000000
FF00000000
7F00000000
7FF0000000
7FFFFFFFF0
3FFFFFFFF0
1FFFFFFFF0
0FFFFFFFF0
07FFFFFFF0
00FFFFFFF0
ENDCHAR
STARTCHAR Agrave
ENCODING 192
SWIDTH 989 0
DWIDTH 50 0
BBX 49 46 1 0
BITMAP
0000C000000000
0000FC00000000
0000FF80000000
0000FFF0000000
00001FF8000000
000000F8000000
00000008000000
00000000000000
00000080000000
000003C0000000
000007E0000000
00000FF0000000
00000FF0000000
00001FF8000000
00001FFC000000
00003FFC000000
00007FFE000000
00007FFE000000
0000FFFF000000
0000FE7F800000
0001FC7F800000
0003FC3FC00000
0003F81FE00000
0007F81FE00000
0007F00FF00000
000FE00FF00000
001FE007F80000
001FC003FC0000
003FC003FC0000
003F8001FE0000
007F0001FE0000
00FF0000FF0000
00FE07FFFF8000
01FE0FFFFF8000
01FC1FFFFFC000
03F81FFFFFC000
07F83FFFFFE000
07F000000FF000
0FF000000FF000
0FE0000007F800
1FC0000007F800
3FC0000003FC00
3F80000001FE00
7F80000001FE00
7F00000000FF00
FE000000007F80
ENDCHAR
STARTCHAR Aacute
ENCODING 193
SWIDTH 989 0
DWIDTH 50 0
BBX 49 46 1 0
BITMAP
00000003000000
0000001F000000
000000FF000000
00000FFF000000
00001FFC000000
00001F80000000
00001000000000
00000000000000
00000080000000
000003C0000000
000007E0000000
00000FF0000000
00000FF0000000
00001FF8000000
00001FFC000000
00003FFC000000
00007FFE000000
00007FFE000000
0000FFFF000000
0000FE7F800000
0001FC7F800000
0003FC3FC00000
0003F81FE00000
0007F81FE00000
0007F00FF00000
000FE00FF00000
001FE007F80000
001FC003FC0000
003FC003FC0000
003F8001FE0000
007F0001FE0000
00FF0000FF0000
00FE07FFFF8000
01FE0FFFFF8000
01FC1FFFFFC000
03F81FFFFFC000
07F83FFFFFE000
07F000000FF000
0FF000000FF000
0FE0000007F800
1FC0000007F800
3FC0000003FC00
3F80000001FE00
7F80000001FE00
7F00000000FF00
FE000000007F80
ENDCHAR
STARTCHAR Acircumflex
ENCODING 194
SWIDTH 989 0
DWIDTH 50 0
BBX 49 46 1 0
BITMAP
000003E0000000
000007E0000000
00000F70000000
00000E78000000
00001C38000000
00003C1C000000
0000781E000000
00000000000000
00000080000000
000003C0000000
000007E0000000
00000FF0000000
00000FF0000000
00001FF8000000
00001FFC000000
00003FFC000000
00007FFE000000
00007FFE000000
0000FFFF000000
0000FE7F800000
0001FC7F800000
0003FC3FC00000
0003F81FE00000
0007F81FE00000
0007F00FF00000
000FE00FF00000
001FE007F80000
001FC003FC0000
003FC003FC0000
003F8001FE0000
007F0001FE0000
00FF0000FF0000
00FE07FFFF8000
01FE0FFFFF8000
01FC1FFFFFC000
03F81FFFFFC000
07F83FFFFFE000
07F000000FF000
0FF000000FF000
0FE0000007F800
1FC0000007F800
3FC0000003FC00
3F80000001FE00
7F80000001FE00
7F00000000FF00
FE000000007F80
ENDCHAR
STARTCHAR Atilde
ENCODING 195
SWIDTH 989 0
DWIDTH 50 0
BBX 49 45 1 0
BITMAP
00001E02000000
00003F86000000
00003FFE000000
000021FE000000
0000407C000000
00000000000000
00000000000000
00000080000000
000003C0000000
000007E0000000
00000FF0000000
00000FF0000000
00001FF8000000
00001FFC000000
00003FFC000000
00007FFE000000
00007FFE000000
0000FFFF000000
0000FE7F800000
0001FC7F800000
0003FC3FC00000
0003F81FE00000
0007F81FE00000
0007F00FF00000
000FE00FF00000
001FE007F80000
001FC003FC0000
003FC003FC0000
003F8001FE0000
007F0001FE0000
00FF0000FF0000
00FE07FFFF8000
01FE0FFFFF8000
01FC1FFFFFC000
03F81FFFFFC000
07F83FFFFFE000
07F000000FF000
0FF000000FF000
0FE0000007F800
1FC0000007F800
3FC0000003FC00
3F80000001FE00
7F80000001FE00
7F00000000FF00
FE000000007F80
ENDCHAR
STARTCHAR Adieresis
ENCODING 196
SWIDTH 989 0
DWIDTH 50 0
BBX 49 46 1 0
BITMAP
0000381E000000
00007C3E000000
00007C3F000000
00007C1E000000
0000381E000000
00000000000000
00000000000000
00000000000000
00000080000000
000003C0000000
000007E0000000
00000FF0000000
00000FF0000000
00001FF8000000
00001FFC000000
00003FFC000000
00007FFE000000
00007FFE000000
0000FFFF000000
0000FE7F800000
0001FC7F800000
0003FC3FC00000
0003F81FE00000
0007F81FE00000
0007F00FF00000
000FE00FF00000
001FE007F80000
001FC003FC0000
003FC003FC0000
003F8001FE0000
007F0001FE0000
00FF0000FF0000
00FE07FFFF8000
01FE0FFFFF8000
01FC1FFFFFC000
03F81FFFFFC000
07F83FFFFFE000
07F000000FF000
0FF000000FF000
0FE0000007F800
1FC0000007F800
3FC0000003FC00
3F80000001FE00
7F80000001FE00
7F00000000FF00
FE000000007F80
ENDCHAR
STARTCHAR Aring
ENCODING 197
SWIDTH 989 0
DWIDTH 50 0
BBX 49 49 1 0
BITMAP
00000FF0000000
00001FF8000000
0000381C000000
0000300E000000
00003006000000
00003006000000
0000300E000000
0000380C000000
00001FF8000000
000007F0000000
00000000000000
00000080000000
000003C0000000
000007E0000000
00000FF0000000
00000FF0000000
00001FF8000000
00001FFC000000
00003FFC000000
00007FFE000000
00007FFE000000
0000FFFF000000
0000FE7F800000
0001FC7F800000
0003FC3FC00000
0003F81FE00000
0007F81FE00000
0007F00FF00000
000FE00FF00000
001FE007F80000
001FC003FC0000
003FC003FC0000
003F8001FE0000
007F0001FE0000
00FF0000FF0000
00FE07FFFF8000
01FE0FFFFF8000
01FC1FFFFFC000
03F81FFFFFC000
07F83FFFFFE000
07F000000FF000
0FF000000FF000
0FE0000007F800
1FC0000007F800
3FC0000003FC00
3F80000001FE00
7F80000001FE00
7F00000000FF00
FE000000007F80
ENDCHAR
STARTCHAR AE
ENCODING 198
SWIDTH 1345 0
DWIDTH 69 0
BBX 65 37 1 0
BITMAP
000003FFFFFFFFFF80
00000FFFFFFFFFFF80
00000FFFFFFFFFFF80
00001FFFFFFFFFFF80
00001FFFFFFFFFFF80
00003FFFFFFFFFFF80
00007F003F80000000
00007F003F80000000
0000FE003F80000000
0000FE003F80000000
0001FC003F80000000
0001FC003F80000000
0003F8003F80000000
0007F0003F80000000
0007F0003F80000000
000FE0003F80000000
000FE0003F87FFFF00
001FC0003F87FFFF00
003FC0003F87FFFF00
003F80003F87FFFF00
007F00003F87FFFF00
007F00003F80000000
00FE00003F80000000
00FE0FFFFF80000000
01FC0FFFFF80000000
03FC1FFFFF80000000
03F83FFFFF80000000
07F07FFFFF80000000
07F000003F80000000
0FE000003F80000000
1FE000003F80000000
1FC000003FFFFFFF80
3FC000003FFFFFFF80
3F8000003FFFFFFF80
7F0000003FFFFFFF80
7F0000003FFFFFFF80
FE0000003FFFFFFF80
ENDCHAR
STARTCHAR Ccedilla
ENCODING 199
SWIDTH 829 0
DWIDTH 42 0
BBX 38 47 2 -10
BITMAP
0003FFFFFC
003FFFFFFC
00FFFFFFFC
01FFFFFFFC
03FFFFFFFC
07FFFFFFFC
0FFFC00000
1FF8000000
1FE0000000
3FC0000000
3F80000000
7F80000000
7F00000000
7F00000000
FE00000000
FE00000000
FE00000000
FE00000000
FE00000000
FE00000000
FE00000000
FE00000000
7E00000000
7F00000000
7F00000000
7F80000000
3F80000000
3FC0000000
1FF0000000
0FF8000000
0FFFC00000
07FFFFFFFC
03FFFFFFFC
01FFFFFFFC
007FFFFFFC
001FFFFFFC
0003FFFFFC
0000000000
0000000000
00007F0000
00007E0000
00003C0000
00003C0000
00001C0000
0000180000
0000080000
0000080000
ENDCHAR
STARTCHAR Egrave
ENCODING 200
SWIDTH 759 0
DWIDTH 39 0
BBX 33 46 3 0
BITMAP
00C0000000
00FC000000
00FF800000
00FFF00000
001FF80000
0000F80000
0000080000
0000000000
0000000000
FFFFFFFF80
FFFFFFFF80
FFFFFFFF80
FFFFFFFF80
FFFFFFFF80
FFFFFFFF80
FE00000000
FE00000000
FE00000000
FE00000000
FE00000000
FE00000000
FE00000000
FE00000000
FE00000000
FE00000000
FE1FFFFF00
FE1FFFFF00
FE1FFFFF00
FE1FFFFF00
FE1FFFFF00
FE00000000
FE00000000
FE00000000
FE00000000
FE00000000
FE00000000
FE00000000
FE00000000
FE00000000
FE00000000
FFFFFFFF80
FFFFFFFF80
FFFFFFFF80
FFFFFFFF80
FFFFFFFF80
FFFFFFFF80
ENDCHAR
STARTCHAR Eacute
ENCODING 201
SWIDTH 759 0
DWIDTH 39 0
BBX 33 46 3 0
BITMAP
0000030000
00001F0000
0000FF0000
000FFF0000
001FFC0000
001F800000
0010000000
0000000000
0000000000
FFFFFFFF80
FFFFFFFF80
FFFFFFFF80
FFFFFFFF80
FFFFFFFF80
FFFFFFFF80
FE00000000
FE00000000
FE00000000
FE00000000
FE00000000
FE00000000
FE00000000
FE00000000
FE00000000
FE00000000
FE1FFFFF00
FE1FFFFF00
FE1FFFFF00
FE1FFFFF00
FE1FFFFF00
FE00000000
FE00000000
FE00000000
FE00000000
FE00000000
FE00000000
FE00000000
FE00000000
FE00000000
FE00000000
FFFFFFFF80
FFFFFFFF80
FFFFFFFF80
FFFFFFFF80
FFFFFFFF80
FFFFFFFF80
ENDCHAR
STARTCHAR Ecircumflex
ENCODING 202
SWIDTH 759 0
DWIDTH 39 0
BBX 33 46 3 0
BITMAP
0003E00000
0007F00000
000F700000
000E780000
001E3C0000
003C1C0000
00781E0000
0000000000
0000000000
FFFFFFFF80
FFFFFFFF80
FFFFFFFF80
FFFFFFFF80
FFFFFFFF80
FFFFFFFF80
FE00000000
FE00000000
FE00000000
FE00000000
FE00000000
FE00000000
FE00000000
FE00000000
FE00000000
FE00000000
FE1FFFFF00
FE1FFFFF00
FE1FFFFF00
FE1FFFFF00
FE1FFFFF00
FE00000000
FE00000000
FE00000000
FE00000000
FE00000000
FE00000000
FE00000000
FE00000000
FE00000000
FE00000000
FFFFFFFF80
FFFFFFFF80
FFFFFFFF80
FFFFFFFF80
FFFFFFFF80
FFFFFFFF80
ENDCHAR
STARTCHAR Edieresis
ENCODING 203
SWIDTH 759 0
DWIDTH 39 0
BBX 33 46 3 0
BITMAP
00381E0000
007C1E0000
007C3F0000
007C1F0000
00381E0000
0000000000
0000000000
0000000000
0000000000
FFFFFFFF80
FFFFFFFF80
FFFFFFFF80
FFFFFFFF80
FFFFFFFF80
FFFFFFFF80
FE00000000
FE00000000
FE00000000
FE00000000
FE00000000
FE00000000
FE00000000
FE00000000
FE00000000
FE00000000
FE1FFFFF00
FE1FFFFF00
FE1FFFFF00
FE1FFFFF00
FE1FFFFF00
FE00000000
FE00000000
FE00000000
FE00000000
FE00000000
FE00000000
FE00000000
FE00000000
FE00000000
FE00000000
FFFFFFFF80
FFFFFFFF80
FFFFFFFF80
FFFFFFFF80
FFFFFFFF80
FFFFFFFF80
ENDCHAR
STARTCHAR Igrave
ENCODING 204
SWIDTH 267 0
DWIDTH 14 0
BBX 13 46 -1 0
BITMAP
C000
F800
FF80
FFF0
1FF8
01F8
0008
0000
0000
07E0
07E0
07E0
07E0
07E0
07E0
07E0
07E0
07E0
07E0
07E0
07E0
07E0
07E0
07E0
07E0
07E0
07E0
07E0
07E0
07E0
07E0
07E0
07E0
07E0
07E0
07E0
07E0
07E0
07E0
07E0
07E0
07E0
07E0
07E0
07E0
07E0
ENDCHAR
STARTCHAR Iacute
ENCODING 205
SWIDTH 267 0
DWIDTH 14 0
BBX 13 46 2 0
BITMAP
0018
00F8
0FF8
7FF8
FFC0
FC00
8000
0000
0000
3F00
3F00
3F00
3F00
3F00
3F00
3F00
3F00
3F00
3F00
3F00
3F00
3F00
3F00
3F00
3F00
3F00
3F00
3F00
3F00
3F00
3F00
3F00
3F00
3F00
3F00
3F00
3F00
3F00
3F00
3F00
3F00
3F00
3F00
3F00
3F00
3F00
ENDCHAR
STARTCHAR Icircumflex
ENCODING 206
SWIDTH 267 0
DWIDTH 14 0
BBX 14 46 0 0
BITMAP
0F80
0FC0
1DE0
3CE0
3870
7078
F03C
0000
0000
0FC0
0FC0
0FC0
0FC0
0FC0
0FC0
0FC0
0FC0
0FC0
0FC0
0FC0
0FC0
0FC0
0FC0
0FC0
0FC0
0FC0
0FC0
0FC0
0FC0
0FC0
0FC0
0FC0
0FC0
0FC0
0FC0
0FC0
0FC0
0FC0
0FC0
0FC0
0FC0
0FC0
0FC0
0FC0
0FC0
0FC0
ENDCHAR
STARTCHAR Idieresis
ENCODING 207
SWIDTH 267 0
DWIDTH 14 0
BBX 14 46 0 0
BITMAP
7038
F87C
F87C
F87C
F038
0000
0000
0000
0000
0FC0
0FC0
0FC0
0FC0
0FC0
0FC0
0FC0
0FC0
0FC0
0FC0
0FC0
0FC0
0FC0
0FC0
0FC0
0FC0
0FC0
0FC0
0FC0
0FC0
0FC0
0FC0
0FC0
0FC0
0FC0
0FC0
0FC0
0FC0
0FC0
0FC0
0FC0
0FC0
0FC0
0FC0
0FC0
0FC0
0FC0
ENDCHAR
STARTCHAR Eth
ENCODING 208
SWIDTH 877 0
DWIDTH 45 0
BBX 42 37 1 0
BITMAP
3FFFFFF00000
3FFFFFFE0000
3FFFFFFF8000
3FFFFFFFE000
3FFFFFFFF000
3FFFFFFFF800
3F8000FFFC00
3F80000FFE00
3F800003FE00
3F800000FF00
3F800000FF00
3F8000007F80
3F8000003F80
3F8000003F80
3F8000001F80
3F8000001FC0
FFFFFE001FC0
FFFFFE001FC0
FFFFFE001FC0
FFFFFE001FC0
FFFFFE001FC0
3F8000001F80
3F8000001F80
3F8000003F80
3F8000003F80
3F8000007F00
3F800000FF00
3F800001FE00
3F800003FE00
3F80000FFC00
3F8000FFF800
3FFFFFFFF800
3FFFFFFFF000
3FFFFFFFC000
3FFFFFFF8000
3FFFFFFE0000
3FFFFFF00000
ENDCHAR
STARTCHAR Ntilde
ENCODING 209
SWIDTH 873 0
DWIDTH 45 0
BBX 38 45 3 0
BITMAP
0003C04000
0007F0C000
0007FFC000
00043FC000
00080F8000
0000000000
0000000000
0000000000
38000000FC
7C000000FC
FE000000FC
FF000000FC
FF800000FC
FFC00000FC
FFE00000FC
FFF00000FC
FFF80000FC
FFFC0000FC
FFFF0000FC
FDFF8000FC
FCFFC000FC
FC7FE000FC
FC1FF000FC
FC0FF800FC
FC07FC00FC
FC03FE00FC
FC01FF00FC
FC00FF80FC
FC007FC0FC
FC003FE0FC
FC001FF0FC
FC000FF8FC
FC0007FCFC
FC0003FEFC
FC0001FFFC
FC0000FFFC
FC00007FFC
FC00003FFC
FC00001FFC
FC00000FFC
FC000007FC
FC000003FC
FC000001FC
FC000000FC
FC00000078
ENDCHAR
STARTCHAR Ograve
ENCODING 210
SWIDTH 968 0
DWIDTH 49 0
BBX 45 46 2 0
BITMAP
000180000000
0001F0000000
0001FE000000
0001FFE00000
00007FF00000
000003F00000
000000100000
000000000000
000000000000
0003FFFF0000
003FFFFFE000
00FFFFFFF800
01FFFFFFFC00
03FFFFFFFF00
07FFFFFFFF80
0FFFC01FFFC0
1FF80000FFC0
1FE000003FE0
3FC000001FE0
3F8000000FF0
7F80000007F0
7F00000007F8
7F00000003F8
FE00000003F8
FE00000001F8
FE00000001F8
FE00000001F8
FE00000001F8
FE00000001F8
FE00000001F8
FE00000003F8
7E00000003F8
7F00000003F8
7F00000007F0
7F80000007F0
3F8000000FF0
3FC000001FE0
1FF000003FE0
0FF80000FFC0
0FFFC00FFF80
07FFFFFFFF00
03FFFFFFFE00
01FFFFFFFC00
007FFFFFF000
001FFFFFE000
0003FFFE0000
ENDCHAR
STARTCHAR Oacute
ENCODING 211
SWIDTH 968 0
DWIDTH 49 0
BBX 45 46 2 0
BITMAP
000000060000
0000007E0000
000003FE0000
00001FFE0000
00003FF00000
00003E000000
000020000000
000000000000
000000000000
0003FFFF0000
003FFFFFE000
00FFFFFFF800
01FFFFFFFC00
03FFFFFFFF00
07FFFFFFFF80
0FFFC01FFFC0
1FF80000FFC0
1FE000003FE0
3FC000001FE0
3F8000000FF0
7F80000007F0
7F00000007F8
7F00000003F8
FE00000003F8
FE00000001F8
FE00000001F8
FE00000001F8
FE00000001F8
FE00000001F8
FE00000001F8
FE00000003F8
7E00000003F8
7F00000003F8
7F00000007F0
7F80000007F0
3F8000000FF0
3FC000001FE0
1FF000003FE0
0FF80000FFC0
0FFFC00FFF80
07FFFFFFFF00
03FFFFFFFE00
01FFFFFFFC00
007FFFFFF000
001FFFFFE000
0003FFFE0000
ENDCHAR
STARTCHAR Ocircumflex
ENCODING 212
SWIDTH 968 0
DWIDTH 49 0
BBX 45 46 2 0
BITMAP
00000F800000
00001FC00000
00001DE00000
000038E00000
000078F00000
000070780000
0000F03C0000
000000000000
000000000000
0003FFFF0000
003FFFFFE000
00FFFFFFF800
01FFFFFFFC00
03FFFFFFFF00
07FFFFFFFF80
0FFFC01FFFC0
1FF80000FFC0
1FE000003FE0
3FC000001FE0
3F8000000FF0
7F80000007F0
7F00000007F8
7F00000003F8
FE00000003F8
FE00000001F8
FE00000001F8
FE00000001F8
FE00000001F8
FE00000001F8
FE00000001F8
FE00000003F8
7E00000003F8
7F00000003F8
7F00000007F0
7F80000007F0
3F8000000FF0
3FC000001FE0
1FF000003FE0
0FF80000FFC0
0FFFC00FFF80
07FFFFFFFF00
03FFFFFFFE00
01FFFFFFFC00
007FFFFFF000
001FFFFFE000
0003FFFE0000
ENDCHAR
STARTCHAR Otilde
ENCODING 213
SWIDTH 968 0
DWIDTH 49 0
BBX 45 45 2 0
BITMAP
000038040000
0000FE080000
0000FFF80000
0000C3F80000
000080F00000
000000000000
000000000000
000000000000
0003FFFF0000
003FFFFFE000
00FFFFFFF800
01FFFFFFFC00
03FFFFFFFF00
07FFFFFFFF80
0FFFC01FFFC0
1FF80000FFC0
1FE000003FE0
3FC000001FE0
3F8000000FF0
7F80000007F0
7F00000007F8
7F00000003F8
FE00000003F8
FE00000001F8
FE00000001F8
FE00000001F8
FE00000001F8
FE00000001F8
FE00000001F8
FE00000003F8
7E00000003F8
7F00000003F8
7F00000007F0
7F80000007F0
3F8000000FF0
3FC000001FE0
1FF000003FE0
0FF80000FFC0
0FFFC00FFF80
07FFFFFFFF00
03FFFFFFFE00
01FFFFFFFC00
007FFFFFF000
001FFFFFE000
0003FFFE0000
ENDCHAR
STARTCHAR Odieresis
ENCODING 214
SWIDTH 968 0
DWIDTH 49 0
BBX 45 46 2 0
BITMAP
0000F0380000
0001F07C0000
0001F87C0000
0000F07C0000
0000F0380000
000000000000
000000000000
000000000000
000000000000
0003FFFF0000
003FFFFFE000
00FFFFFFF800
01FFFFFFFC00
03FFFFFFFF00
07FFFFFFFF80
0FFFC01FFFC0
1FF80000FFC0
1FE000003FE0
3FC000001FE0
3F8000000FF0
7F80000007F0
7F00000007F8
7F00000003F8
FE00000003F8
FE00000001F8
FE00000001F8
FE00000001F8
FE00000001F8
FE00000001F8
FE00000001F8
FE00000003F8
7E00000003F8
7F00000003F8
7F00000007F0
7F80000007F0
3F8000000FF0
3FC000001FE0
1FF000003FE0
0FF80000FFC0
0FFFC00FFF80
07FFFFFFFF00
03FFFFFFFE00
01FFFFFFFC00
007FFFFFF000
001FFFFFE000
0003FFFE0000
ENDCHAR
STARTCHAR multiply
ENCODING 215
SWIDTH 690 0
DWIDTH 35 0
BBX 23 24 6 7
BITMAP
200000
300018
78003C
FC007E
7E00FC
3F01F8
1F83F0
0FC7E0
07EFC0
03FF80
01FF00
00FE00
00FE00
01FF00
03FF80
07EFC0
0FC7E0
1F83F0
3F01F8
7E00FC
FC007E
78003E
30001C
200008
ENDCHAR
STARTCHAR Oslash
ENCODING 216
SWIDTH 968 0
DWIDTH 49 0
BBX 45 42 2 -3
BITMAP
000000000300
000000000380
0003FFFF0700
003FFFFFEE00
00FFFFFFFC00
01FFFFFFFC00
03FFFFFFFF00
07FFFFFFFF80
0FFFC00FFF80
1FF80001FFC0
1FE00003BFE0
3FC000071FE0
3F80000F0FF0
7F80001E07F0
7F00003C07F8
7F00003803F8
FE00007003F8
FE0000E001F8
FE0001C001F8
FE0003C001F8
FE00078001F8
FE00070001F8
FE000E0001F8
FE001C0003F8
7E00380003F8
7F00780003F8
7F00F00007F0
7F81E00007F0
3F81C0000FF0
3FC380001FE0
1FE700003FE0
0FFE0000FFC0
0FFFC00FFF80
07FFFFFFFF00
03FFFFFFFE00
01FFFFFFFC00
00FFFFFFF800
01DFFFFFE000
0383FFFF0000
078000000000
030000000000
020000000000
ENDCHAR
STARTCHAR Ugrave
ENCODING 217
SWIDTH 889 0
DWIDTH 45 0
BBX 40 46 3 0
BITMAP
000C000000
000F800000
000FF00000
000FFF0000
0003FF8000
00001F8000
0000008000
0000000000
0000000000
FC0000007F
FC0000007F
FC0000007F
FC0000007F
FC0000007F
FC0000007F
FC0000007F
FC0000007F
FC0000007F
FC0000007F
FC0000007F
FC0000007F
FC0000007F
FC0000007F
FC0000007F
FC0000007F
FC0000007F
FC0000007F
FC0000007F
FC0000007F
FC0000007F
FC0000007F
FC0000007F
FE0000007F
FE0000007E
FE0000007E
FF000000FE
7F000001FE
7F800003FC
7FE00007FC
3FFC003FF8
1FFFFFFFF8
1FFFFFFFF0
0FFFFFFFE0
03FFFFFF80
00FFFFFF00
001FFFF800
ENDCHAR
STARTCHAR Uacute
ENCODING 218
SWIDTH 889 0
DWIDTH 45 0
BBX 40 46 3 0
BITMAP
0000003000
000003F000
00001FF000
0000FFF000
0001FF8000
0001F00000
0001000000
0000000000
0000000000
FC0000007F
FC0000007F
FC0000007F
FC0000007F
FC0000007F
FC0000007F
FC0000007F
FC0000007F
FC0000007F
FC0000007F
FC0000007F
FC0000007F
FC0000007F
FC0000007F
FC0000007F
FC0000007F
FC0000007F
FC0000007F
FC0000007F
FC0000007F
FC0000007F
FC0000007F
FC0000007F
FE0000007F
FE0000007E
FE0000007E
FF000000FE
7F000001FE
7F800003FC
7FE00007FC
3FFC003FF8
1FFFFFFFF8
1FFFFFFFF0
0FFFFFFFE0
03FFFFFF80
00FFFFFF00
001FFFF800
ENDCHAR
STARTCHAR Ucircumflex
ENCODING 219
SWIDTH 889 0
DWIDTH 45 0
BBX 40 46 3 0
BITMAP
00007C0000
0000FE0000
0000EF0000
0001C70000
0003C78000
000383C000
000781E000
0000000000
0000000000
FC0000007F
FC0000007F
FC0000007F
FC0000007F
FC0000007F
FC0000007F
FC0000007F
FC0000007F
FC0000007F
FC0000007F
FC0000007F
FC0000007F
FC0000007F
FC0000007F
FC0000007F
FC0000007F
FC0000007F
FC0000007F
FC0000007F
FC0000007F
FC0000007F
FC0000007F
FC0000007F
FE0000007F
FE0000007E
FE0000007E
FF000000FE
7F000001FE
7F800003FC
7FE00007FC
3FFC003FF8
1FFFFFFFF8
1FFFFFFFF0
0FFFFFFFE0
03FFFFFF80
00FFFFFF00
001FFFF800
ENDCHAR
STARTCHAR Udieresis
ENCODING 220
SWIDTH 889 0
DWIDTH 45 0
BBX 40 46 3 0
BITMAP
000781C000
000F83E000
000FC3E000
000783E000
000781C000
0000000000
0000000000
0000000000
0000000000
FC0000007F
FC0000007F
FC0000007F
FC0000007F
FC0000007F
FC0000007F
FC0000007F
FC0000007F
FC0000007F
FC0000007F
FC0000007F
FC0000007F
FC0000007F
FC0000007F
FC0000007F
FC0000007F
FC0000007F
FC0000007F
FC0000007F
FC0000007F
FC0000007F
FC0000007F
FC0000007F
FE0000007F
FE0000007E
FE0000007E
FF000000FE
7F000001FE
7F800003FC
7FE00007FC
3FFC003FF8
1FFFFFFFF8
1FFFFFFFF0
0FFFFFFFE0
03FFFFFF80
00FFFFFF00
001FFFF800
ENDCHAR
STARTCHAR Yacute
ENCODING 221
SWIDTH 926 0
DWIDTH 47 0
BBX 46 46 1 0
BITMAP
000000060000
0000003E0000
000003FE0000
00001FFE0000
00003FF00000
00003E000000
000020000000
000000000000
000000000000
FF80000007FC
7FC000000FF0
3FC000001FE0
1FE000003FE0
1FF000003FC0
0FF800007F80
07FC0000FF00
03FE0001FE00
01FE0003FC00
00FF0007F800
007F8007F800
007FC00FF000
003FE01FE000
001FF03FC000
000FF07F8000
0007F8FF0000
0003FCFF0000
0001FFFE0000
0001FFFC0000
0000FFF80000
00007FF00000
00003FE00000
00001FC00000
00001FC00000
00001FC00000
00001FC00000
00001FC00000
00001FC00000
00001FC00000
00001FC00000
00001FC00000
00001FC00000
00001FC00000
00001FC00000
00001FC00000
00001FC00000
00001FC00000
ENDCHAR
STARTCHAR Thorn
ENCODING 222
SWIDTH 843 0
DWIDTH 43 0
BBX 39 37 3 0
BITMAP
FE00000000
FE00000000
FE00000000
FE00000000
FE00000000
FFFFFFF800
FFFFFFFF00
FFFFFFFF80
FFFFFFFFE0
FFFFFFFFF0
FFFFFFFFF0
FE00007FF8
FE000007F8
FE000003FC
FE000001FC
FE000000FC
FE000000FC
FE000000FC
FE000000FE
FE000000FC
FE000000FC
FE000000FC
FE000001FC
FE000001FC
FE000003F8
FE00000FF8
FE1FFFFFF0
FE1FFFFFF0
FE1FFFFFE0
FE1FFFFFC0
FE1FFFFF80
FE1FFFFC00
FE00000000
FE00000000
FE00000000
FE00000000
FE00000000
ENDCHAR
STARTCHAR germandbls
ENCODING 223
SWIDTH 1760 0
DWIDTH 90 0
BBX 84 37 3 0
BITMAP
01FFFFFFFC000FFFFFFFE0
07FFFFFFFC007FFFFFFFE0
1FFFFFFFFC00FFFFFFFFE0
3FFFFFFFFC01FFFFFFFFE0
7FFFFFFFFC03FFFFFFFFE0
7FFFFFFFFC03FFFFFFFFE0
FFE000000007FF00000000
FF0000000007F800000000
FE0000000007F000000000
FE0000000007F000000000
FC0000000007E000000000
FC0000000007E000000000
FE0000000007E000000000
FE0000000007F000000000
FE0000000007F000000000
7F8000000003FC00000000
7FFFFFFF0003FFFFFFF800
3FFFFFFFE001FFFFFFFF00
1FFFFFFFF800FFFFFFFF80
07FFFFFFF8003FFFFFFFC0
01FFFFFFFC000FFFFFFFE0
00000001FE000000000FF0
00000000FE0000000007F0
000000007E0000000003F0
000000007E0000000003F0
000000007F0000000003F0
000000007F0000000003F0
000000007F0000000003F0
000000007E0000000007F0
00000000FE0000000007F0
0000000FFE000000007FF0
FFFFFFFFFC07FFFFFFFFE0
FFFFFFFFFC07FFFFFFFFE0
FFFFFFFFF807FFFFFFFFC0
FFFFFFFFF007FFFFFFFF80
FFFFFFFFE007FFFFFFFE00
FFFFFFFF0007FFFFFFF800
ENDCHAR
STARTCHAR agrave
ENCODING 224
SWIDTH 989 0
DWIDTH 50 0
BBX 49 46 1 0
BITMAP
0000C000000000
0000FC00000000
0000FF80000000
0000FFF0000000
00001FF8000000
000000F8000000
00000008000000
00000000000000
00000080000000
000003C0000000
000007E0000000
00000FF0000000
00000FF0000000
00001FF8000000
00001FFC000000
00003FFC000000
00007FFE000000
00007FFE000000
0000FFFF000000
0000FE7F800000
0001FC7F800000
0003FC3FC00000
0003F81FE00000
0007F81FE00000
0007F00FF00000
000FE00FF00000
001FE007F80000
001FC003FC0000
003FC003FC0000
003F8001FE0000
007F0001FE0000
00FF0000FF0000
00FE07FFFF8000
01FE0FFFFF8000
01FC1FFFFFC000
03F81FFFFFC000
07F83FFFFFE000
07F000000FF000
0FF000000FF000
0FE0000007F800
1FC0000007F800
3FC0000003FC00
3F80000001FE00
7F80000001FE00
7F00000000FF00
FE000000007F80
ENDCHAR
STARTCHAR aacute
ENCODING 225
SWIDTH 989 0
DWIDTH 50 0
BBX 49 46 1 0
BITMAP
00000003000000
0000001F000000
000000FF000000
00000FFF000000
00001FFC000000
00001F80000000
00001000000000
00000000000000
00000080000000
000003C0000000
000007E0000000
00000FF0000000
00000FF0000000
00001FF8000000
00001FFC000000
00003FFC000000
00007FFE000000
00007FFE000000
0000FFFF000000
0000FE7F800000
0001FC7F800000
0003FC3FC00000
0003F81FE00000
0007F81FE00000
0007F00FF00000
000FE00FF00000
001FE007F80000
001FC003FC0000
003FC003FC0000
003F8001FE0000
007F0001FE0000
00FF0000FF0000
00FE07FFFF8000
01FE0FFFFF8000
01FC1FFFFFC000
03F81FFFFFC000
07F83FFFFFE000
07F000000FF000
0FF000000FF000
0FE0000007F800
1FC0000007F800
3FC0000003FC00
3F80000001FE00
7F80000001FE00
7F00000000FF00
FE000000007F80
ENDCHAR
STARTCHAR acircumflex
ENCODING 226
SWIDTH 989 0
DWIDTH 50 0
BBX 49 46 1 0
BITMAP
000003E0000000
000007E0000000
00000F70000000
00000E78000000
00001C38000000
00003C1C000000
0000781E000000
00000000000000
00000080000000
000003C0000000
000007E0000000
00000FF0000000
00000FF0000000
00001FF8000000
00001FFC000000
00003FFC000000
00007FFE000000
00007FFE000000
0000FFFF000000
0000FE7F800000
0001FC7F800000
0003FC3FC00000
0003F81FE00000
0007F81FE00000
0007F00FF00000
000FE00FF00000
001FE007F80000
001FC003FC0000
003FC003FC0000
003F8001FE0000
007F0001FE0000
00FF0000FF0000
00FE07FFFF8000
01FE0FFFFF8000
01FC1FFFFFC000
03F81FFFFFC000
07F83FFFFFE000
07F000000FF000
0FF000000FF000
0FE0000007F800
1FC0000007F800
3FC0000003FC00
3F80000001FE00
7F80000001FE00
7F00000000FF00
FE000000007F80
ENDCHAR
STARTCHAR atilde
ENCODING 227
SWIDTH 989 0
DWIDTH 50 0
BBX 49 45 1 0
BITMAP
00001E02000000
00003F86000000
00003FFE000000
000021FE000000
0000407C000000
00000000000000
00000000000000
00000080000000
000003C0000000
000007E0000000
00000FF0000000
00000FF0000000
00001FF8000000
00001FFC000000
00003FFC000000
00007FFE000000
00007FFE000000
0000FFFF000000
0000FE7F800000
0001FC7F800000
0003FC3FC00000
0003F81FE00000
0007F81FE00000
0007F00FF00000
000FE00FF00000
001FE007F80000
001FC003FC0000
003FC003FC0000
003F8001FE0000
007F0001FE0000
00FF0000FF0000
00FE07FFFF8000
01FE0FFFFF8000
01FC1FFFFFC000
03F81FFFFFC000
07F83FFFFFE000
07F000000FF000
0FF000000FF000
0FE0000007F800
1FC0000007F800
3FC0000003FC00
3F80000001FE00
7F80000001FE00
7F00000000FF00
FE000000007F80
ENDCHAR
STARTCHAR adieresis
ENCODING 228
SWIDTH 989 0
DWIDTH 50 0
BBX 49 46 1 0
BITMAP
0000381E000000
00007C3E000000
00007C3F000000
00007C1E000000
0000381E000000
00000000000000
00000000000000
00000000000000
00000080000000
000003C0000000
000007E0000000
00000FF0000000
00000FF0000000
00001FF8000000
00001FFC000000
00003FFC000000
00007FFE000000
00007FFE000000
0000FFFF000000
0000FE7F800000
0001FC7F800000
0003FC3FC00000
0003F81FE00000
0007F81FE00000
0007F00FF00000
000FE00FF00000
001FE007F80000
001FC003FC0000
003FC003FC0000
003F8001FE0000
007F0001FE0000
00FF0000FF0000
00FE07FFFF8000
01FE0FFFFF8000
01FC1FFFFFC000
03F81FFFFFC000
07F83FFFFFE000
07F000000FF000
0FF000000FF000
0FE0000007F800
1FC0000007F800
3FC0000003FC00
3F80000001FE00
7F80000001FE00
7F00000000FF00
FE000000007F80
ENDCHAR
STARTCHAR aring
ENCODING 229
SWIDTH 989 0
DWIDTH 50 0
BBX 49 49 1 0
BITMAP
00000FF0000000
00001FF8000000
0000381C000000
0000300E000000
00003006000000
00003006000000
0000300E000000
0000380C000000
00001FF8000000
000007F0000000
00000000000000
00000080000000
000003C0000000
000007E0000000
00000FF0000000
00000FF0000000
00001FF8000000
00001FFC000000
00003FFC000000
00007FFE000000
00007FFE000000
0000FFFF000000
0000FE7F800000
0001FC7F800000
0003FC3FC00000
0003F81FE00000
0007F81FE00000
0007F00FF00000
000FE00FF00000
001FE007F80000
001FC003FC0000
003FC003FC0000
003F8001FE0000
007F0001FE0000
00FF0000FF0000
00FE07FFFF8000
01FE0FFFFF8000
01FC1FFFFFC000
03F81FFFFFC000
07F83FFFFFE000
07F000000FF000
0FF000000FF000
0FE0000007F800
1FC0000007F800
3FC0000003FC00
3F80000001FE00
7F80000001FE00
7F00000000FF00
FE000000007F80
ENDCHAR
STARTCHAR ae
ENCODING 230
SWIDTH 1345 0
DWIDTH 69 0
BBX 65 37 1 0
BITMAP
000003FFFFFFFFFF80
00000FFFFFFFFFFF80
00000FFFFFFFFFFF80
00001FFFFFFFFFFF80
00001FFFFFFFFFFF80
00003FFFFFFFFFFF80
00007F003F80000000
00007F003F80000000
0000FE003F80000000
0000FE003F80000000
0001FC003F80000000
0001FC003F80000000
0003F8003F80000000
0007F0003F80000000
0007F0003F80000000
000FE0003F80000000
000FE0003F87FFFF00
001FC0003F87FFFF00
003FC0003F87FFFF00
003F80003F87FFFF00
007F00003F87FFFF00
007F00003F80000000
00FE00003F80000000
00FE0FFFFF80000000
01FC0FFFFF80000000
03FC1FFFFF80000000
03F83FFFFF80000000
07F07FFFFF80000000
07F000003F80000000
0FE000003F80000000
1FE000003F80000000
1FC000003FFFFFFF80
3FC000003FFFFFFF80
3F8000003FFFFFFF80
7F0000003FFFFFFF80
7F0000003FFFFFFF80
FE0000003FFFFFFF80
ENDCHAR
STARTCHAR ccedilla
ENCODING 231
SWIDTH 829 0
DWIDTH 42 0
BBX 38 47 2 -10
BITMAP
0003FFFFFC
003FFFFFFC
00FFFFFFFC
01FFFFFFFC
03FFFFFFFC
07FFFFFFFC
0FFFC00000
1FF8000000
1FE0000000
3FC0000000
3F80000000
7F80000000
7F00000000
7F00000000
FE00000000
FE00000000
FE00000000
FE00000000
FE00000000
FE00000000
FE00000000
FE00000000
7E00000000
7F00000000
7F00000000
7F80000000
3F80000000
3FC0000000
1FF0000000
0FF8000000
0FFFC00000
07FFFFFFFC
03FFFFFFFC
01FFFFFFFC
007FFFFFFC
001FFFFFFC
0003FFFFFC
0000000000
0000000000
00007F0000
00007E0000
00003C0000
00003C0000
00001C0000
0000180000
0000080000
0000080000
ENDCHAR
STARTCHAR egrave
ENCODING 232
SWIDTH 759 0
DWIDTH 39 0
BBX 33 46 3 0
BITMAP
00C0000000
00FC000000
00FF800000
00FFF00000
001FF80000
0000F80000
0000080000
0000000000
0000000000
FFFFFFFF80
FFFFFFFF80
FFFFFFFF80
FFFFFFFF80
FFFFFFFF80
FFFFFFFF80
FE00000000
FE00000000
FE00000000
FE00000000
FE00000000
FE00000000
FE00000000
FE00000000
FE00000000
FE00000000
FE1FFFFF00
FE1FFFFF00
FE1FFFFF00
FE1FFFFF00
FE1FFFFF00
FE00000000
FE00000000
FE00000000
FE00000000
FE00000000
FE00000000
FE00000000
FE00000000
FE00000000
FE00000000
FFFFFFFF80
FFFFFFFF80
FFFFFFFF80
FFFFFFFF80
FFFFFFFF80
FFFFFFFF80
ENDCHAR
STARTCHAR eacute
ENCODING 233
SWIDTH 759 0
DWIDTH 39 0
BBX 33 46 3 0
BITMAP
0000030000
00001F0000
0000FF0000
000FFF0000
001FFC0000
001F800000
0010000000
0000000000
0000000000
FFFFFFFF80
FFFFFFFF80
FFFFFFFF80
FFFFFFFF80
FFFFFFFF80
FFFFFFFF80
FE00000000
FE00000000
FE00000000
FE00000000
FE00000000
FE00000000
FE00000000
FE00000000
FE00000000
FE00000000
FE1FFFFF00
FE1FFFFF00
FE1FFFFF00
FE1FFFFF00
FE1FFFFF00
FE00000000
FE00000000
FE00000000
FE00000000
FE00000000
FE00000000
FE00000000
FE00000000
FE00000000
FE00000000
FFFFFFFF80
FFFFFFFF80
FFFFFFFF80
FFFFFFFF80
FFFFFFFF80
FFFFFFFF80
ENDCHAR
STARTCHAR ecircumflex
ENCODING 234
SWIDTH 759 0
DWIDTH 39 0
BBX 33 46 3 0
BITMAP
0003E00000
0007F00000
000F700000
000E780000
001E3C0000
003C1C0000
00781E0000
0000000000
0000000000
FFFFFFFF80
FFFFFFFF80
FFFFFFFF80
FFFFFFFF80
FFFFFFFF80
FFFFFFFF80
FE00000000
FE00000000
FE00000000
FE00000000
FE00000000
FE00000000
FE00000000
FE00000000
FE00000000
FE00000000
FE1FFFFF00
FE1FFFFF00
FE1FFFFF00
FE1FFFFF00
FE1FFFFF00
FE00000000
FE00000000
FE00000000
FE00000000
FE00000000
FE00000000
FE00000000
FE00000000
FE00000000
FE00000000
FFFFFFFF80
FFFFFFFF80
FFFFFFFF80
FFFFFFFF80
FFFFFFFF80
FFFFFFFF80
ENDCHAR
STARTCHAR edieresis
ENCODING 235
SWIDTH 759 0
DWIDTH 39 0
BBX 33 46 3 0
BITMAP
00381E0000
007C1E0000
007C3F0000
007C1F0000
00381E0000
0000000000
0000000000
0000000000
0000000000
FFFFFFFF80
FFFFFFFF80
FFFFFFFF80
FFFFFFFF80
FFFFFFFF80
FFFFFFFF80
FE00000000
FE00000000
FE00000000
FE00000000
FE00000000
FE00000000
FE00000000
FE00000000
FE00000000
FE00000000
FE1FFFFF00
FE1FFFFF00
FE1FFFFF00
FE1FFFFF00
FE1FFFFF00
FE00000000
FE00000000
FE00000000
FE00000000
FE00000000
FE00000000
FE00000000
FE00000000
FE00000000
FE00000000
FFFFFFFF80
FFFFFFFF80
FFFFFFFF80
FFFFFFFF80
FFFFFFFF80
FFFFFFFF80
ENDCHAR
STARTCHAR igrave
ENCODING 236
SWIDTH 267 0
DWIDTH 14 0
BBX 13 46 -1 0
BITMAP
C000
F800
FF80
FFF0
1FF8
01F8
0008
0000
0000
07E0
07E0
07E0
07E0
07E0
07E0
07E0
07E0
07E0
07E0
07E0
07E0
07E0
07E0
07E0
07E0
07E0
07E0
07E0
07E0
07E0
07E0
07E0
07E0
07E0
07E0
07E0
07E0
07E0
07E0
07E0
07E0
07E0
07E0
07E0
07E0
07E0
ENDCHAR
STARTCHAR iacute
ENCODING 237
SWIDTH 267 0
DWIDTH 14 0
BBX 13 46 2 0
BITMAP
0018
00F8
0FF8
7FF8
FFC0
FC00
8000
0000
0000
3F00
3F00
3F00
3F00
3F00
3F00
3F00
3F00
3F00
3F00
3F00
3F00
3F00
3F00
3F00
3F00
3F00
3F00
3F00
3F00
3F00
3F00
3F00
3F00
3F00
3F00
3F00
3F00
3F00
3F00
3F00
3F00
3F00
3F00
3F00
3F00
3F00
ENDCHAR
STARTCHAR icircumflex
ENCODING 238
SWIDTH 267 0
DWIDTH 14 0
BBX 14 46 0 0
BITMAP
0F80
0FC0
1DE0
3CE0
3870
7078
F03C
0000
0000
0FC0
0FC0
0FC0
0FC0
0FC0
0FC0
0FC0
0FC0
0FC0
0FC0
0FC0
0FC0
0FC0
0FC0
0FC0
0FC0
0FC0
0FC0
0FC0
0FC0
0FC0
0FC0
0FC0
0FC0
0FC0
0FC0
0FC0
0FC0
0FC0
0FC0
0FC0
0FC0
0FC0
0FC0
0FC0
0FC0
0FC0
ENDCHAR
STARTCHAR idieresis
ENCODING 239
SWIDTH 267 0
DWIDTH 14 0
BBX 14 46 0 0
BITMAP
7038
F87C
F87C
F87C
F038
0000
0000
0000
0000
0FC0
0FC0
0FC0
0FC0
0FC0
0FC0
0FC0
0FC0
0FC0
0FC0
0FC0
0FC0
0FC0
0FC0
0FC0
0FC0
0FC0
0FC0
0FC0
0FC0
0FC0
0FC0
0FC0
0FC0
0FC0
0FC0
0FC0
0FC0
0FC0
0FC0
0FC0
0FC0
0FC0
0FC0
0FC0
0FC0
0FC0
ENDCHAR
STARTCHAR eth
ENCODING 240
SWIDTH 877 0
DWIDTH 45 0
BBX 42 37 1 0
BITMAP
3FFFFFF00000
3FFFFFFE0000
3FFFFFFF8000
3FFFFFFFE000
3FFFFFFFF000
3FFFFFFFF800
3F8000FFFC00
3F80000FFE00
3F800003FE00
3F800000FF00
3F800000FF00
3F8000007F80
3F8000003F80
3F8000003F80
3F8000001F80
3F8000001FC0
FFFFFE001FC0
FFFFFE001FC0
FFFFFE001FC0
FFFFFE001FC0
FFFFFE001FC0
3F8000001F80
3F8000001F80
3F8000003F80
3F8000003F80
3F8000007F00
3F800000FF00
3F800001FE00
3F800003FE00
3F80000FFC00
3F8000FFF800
3FFFFFFFF800
3FFFFFFFF000
3FFFFFFFC000
3FFFFFFF8000
3FFFFFFE0000
3FFFFFF00000
ENDCHAR
STARTCHAR ntilde
ENCODING 241
SWIDTH 873 0
DWIDTH 45 0
BBX 38 45 3 0
BITMAP
0003C04000
0007F0C000
0007FFC000
00043FC000
00080F8000
0000000000
0000000000
0000000000
38000000FC
7C000000FC
FE000000FC
FF000000FC
FF800000FC
FFC00000FC
FFE00000FC
FFF00000FC
FFF80000FC
FFFC0000FC
FFFF0000FC
FDFF8000FC
FCFFC000FC
FC7FE000FC
FC1FF000FC
FC0FF800FC
FC07FC00FC
FC03FE00FC
FC01FF00FC
FC00FF80FC
FC007FC0FC
FC003FE0FC
FC001FF0FC
FC000FF8FC
FC0007FCFC
FC0003FEFC
FC0001FFFC
FC0000FFFC
FC00007FFC
FC00003FFC
FC00001FFC
FC00000FFC
FC000007FC
FC000003FC
FC000001FC
FC000000FC
FC00000078
ENDCHAR
STARTCHAR ograve
ENCODING 242
SWIDTH 968 0
DWIDTH 49 0
BBX 45 46 2 0
BITMAP
000180000000
0001F0000000
0001FE000000
0001FFE00000
00007FF00000
000003F00000
000000100000
000000000000
000000000000
0003FFFF0000
003FFFFFE000
00FFFFFFF800
01FFFFFFFC00
03FFFFFFFF00
07FFFFFFFF80
0FFFC01FFFC0
1FF80000FFC0
1FE000003FE0
3FC000001FE0
3F8000000FF0
7F80000007F0
7F00000007F8
7F00000003F8
FE00000003F8
FE00000001F8
FE00000001F8
FE00000001F8
FE00000001F8
FE00000001F8
FE00000001F8
FE00000003F8
7E00000003F8
7F00000003F8
7F00000007F0
7F80000007F0
3F8000000FF0
3FC000001FE0
1FF000003FE0
0FF80000FFC0
0FFFC00FFF80
07FFFFFFFF00
03FFFFFFFE00
01FFFFFFFC00
007FFFFFF000
001FFFFFE000
0003FFFE0000
ENDCHAR
STARTCHAR oacute
ENCODING 243
SWIDTH 968 0
DWIDTH 49 0
BBX 45 46 2 0
BITMAP
000000060000
0000007E0000
000003FE0000
00001FFE0000
00003FF00000
00003E000000
000020000000
000000000000
000000000000
0003FFFF0000
003FFFFFE000
00FFFFFFF800
01FFFFFFFC00
03FFFFFFFF00
07FFFFFFFF80
0FFFC01FFFC0
1FF80000FFC0
1FE000003FE0
3FC000001FE0
3F8000000FF0
7F80000007F0
7F00000007F8
7F00000003F8
FE00000003F8
FE00000001F8
FE00000001F8
FE00000001F8
FE00000001F8
FE00000001F8
FE00000001F8
FE00000003F8
7E00000003F8
7F00000003F8
7F00000007F0
7F80000007F0
3F8000000FF0
3FC000001FE0
1FF000003FE0
0FF80000FFC0
0FFFC00FFF80
07FFFFFFFF00
03FFFFFFFE00
01FFFFFFFC00
007FFFFFF000
001FFFFFE000
0003FFFE0000
ENDCHAR
STARTCHAR ocircumflex
ENCODING 244
SWIDTH 968 0
DWIDTH 49 0
BBX 45 46 2 0
BITMAP
00000F800000
00001FC00000
00001DE00000
000038E00000
000078F00000
000070780000
0000F03C0000
000000000000
000000000000
0003FFFF0000
003FFFFFE000
00FFFFFFF800
01FFFFFFFC00
03FFFFFFFF00
07FFFFFFFF80
0FFFC01FFFC0
1FF80000FFC0
1FE000003FE0
3FC000001FE0
3F8000000FF0
7F80000007F0
7F00000007F8
7F00000003F8
FE00000003F8
FE00000001F8
FE00000001F8
FE00000001F8
FE00000001F8
FE00000001F8
FE00000001F8
FE00000003F8
7E00000003F8
7F00000003F8
7F00000007F0
7F80000007F0
3F8000000FF0
3FC000001FE0
1FF000003FE0
0FF80000FFC0
0FFFC00FFF80
07FFFFFFFF00
03FFFFFFFE00
01FFFFFFFC00
007FFFFFF000
001FFFFFE000
0003FFFE0000
ENDCHAR
STARTCHAR otilde
ENCODING 245
SWIDTH 968 0
DWIDTH 49 0
BBX 45 45 2 0
BITMAP
000038040000
0000FE080000
0000FFF80000
0000C3F80000
000080F00000
000000000000
000000000000
000000000000
0003FFFF0000
003FFFFFE000
00FFFFFFF800
01FFFFFFFC00
03FFFFFFFF00
07FFFFFFFF80
0FFFC01FFFC0
1FF80000FFC0
1FE000003FE0
3FC000001FE0
3F8000000FF0
7F80000007F0
7F00000007F8
7F00000003F8
FE00000003F8
FE00000001F8
FE00000001F8
FE00000001F8
FE00000001F8
FE00000001F8
FE00000001F8
FE00000003F8
7E00000003F8
7F00000003F8
7F00000007F0
7F80000007F0
3F8000000FF0
3FC000001FE0
1FF000003FE0
0FF80000FFC0
0FFFC00FFF80
07FFFFFFFF00
03FFFFFFFE00
01FFFFFFFC00
007FFFFFF000
001FFFFFE000
0003FFFE0000
ENDCHAR
STARTCHAR odieresis
ENCODING 246
SWIDTH 968 0
DWIDTH 49 0
BBX 45 46 2 0
BITMAP
0000F0380000
0001F07C0000
0001F87C0000
0000F07C0000
0000F0380000
000000000000
000000000000
000000000000
000000000000
0003FFFF0000
003FFFFFE000
00FFFFFFF800
01FFFFFFFC00
03FFFFFFFF00
07FFFFFFFF80
0FFFC01FFFC0
1FF80000FFC0
1FE000003FE0
3FC000001FE0
3F8000000FF0
7F80000007F0
7F00000007F8
7F00000003F8
FE00000003F8
FE00000001F8
FE00000001F8
FE00000001F8
FE00000001F8
FE00000001F8
FE00000001F8
FE00000003F8
7E00000003F8
7F00000003F8
7F00000007F0
7F80000007F0
3F8000000FF0
3FC000001FE0
1FF000003FE0
0FF80000FFC0
0FFFC00FFF80
07FFFFFFFF00
03FFFFFFFE00
01FFFFFFFC00
007FFFFFF000
001FFFFFE000
0003FFFE0000
ENDCHAR
STARTCHAR divide
ENCODING 247
SWIDTH 690 0
DWIDTH 35 0
BBX 29 33 3 2
BITMAP
000F8000
001FC000
001FC000
001FC000
000FC000
00078000
00000000
00000000
00000000
00000000
00000000
00000000
00000000
00000000
FFFFFFF8
FFFFFFF8
FFFFFFF8
FFFFFFF8
00000000
00000000
00000000
00000000
00000000
00000000
00000000
00000000
00000000
000F8000
001FC000
001FC000
001FC000
000FC000
00078000
ENDCHAR
STARTCHAR oslash
ENCODING 248
SWIDTH 968 0
DWIDTH 49 0
BBX 45 42 2 -3
BITMAP
000000000300
000000000380
0003FFFF0700
003FFFFFEE00
00FFFFFFFC00
01FFFFFFFC00
03FFFFFFFF00
07FFFFFFFF80
0FFFC00FFF80
1FF80001FFC0
1FE00003BFE0
3FC000071FE0
3F80000F0FF0
7F80001E07F0
7F00003C07F8
7F00003803F8
FE00007003F8
FE0000E001F8
FE0001C001F8
FE0003C001F8
FE00078001F8
FE00070001F8
FE000E0001F8
FE001C0003F8
7E00380003F8
7F00780003F8
7F00F00007F0
7F81E00007F0
3F81C0000FF0
3FC380001FE0
1FE700003FE0
0FFE0000FFC0
0FFFC00FFF80
07FFFFFFFF00
03FFFFFFFE00
01FFFFFFFC00
00FFFFFFF800
01DFFFFFE000
0383FFFF0000
078000000000
030000000000
020000000000
ENDCHAR
STARTCHAR ugrave
ENCODING 249
SWIDTH 889 0
DWIDTH 45 0
BBX 40 46 3 0
BITMAP
000C000000
000F800000
000FF00000
000FFF0000
0003FF8000
00001F8000
0000008000
0000000000
0000000000
FC0000007F
FC0000007F
FC0000007F
FC0000007F
FC0000007F
FC0000007F
FC0000007F
FC0000007F
FC0000007F
FC0000007F
FC0000007F
FC0000007F
FC0000007F
FC0000007F
FC0000007F
FC0000007F
FC0000007F
FC0000007F
FC0000007F
FC0000007F
FC0000007F
FC0000007F
FC0000007F
FE0000007F
FE0000007E
FE0000007E
FF000000FE
7F000001FE
7F800003FC
7FE00007FC
3FFC003FF8
1FFFFFFFF8
1FFFFFFFF0
0FFFFFFFE0
03FFFFFF80
00FFFFFF00
001FFFF800
ENDCHAR
STARTCHAR uacute
ENCODING 250
SWIDTH 889 0
DWIDTH 45 0
BBX 40 46 3 0
BITMAP
0000003000
000003F000
00001FF000
0000FFF000
0001FF8000
0001F00000
0001000000
0000000000
0000000000
FC0000007F
FC0000007F
FC0000007F
FC0000007F
FC0000007F
FC0000007F
FC0000007F
FC0000007F
FC0000007F
FC0000007F
FC0000007F
FC0000007F
FC0000007F
FC0000007F
FC0000007F
FC0000007F
FC0000007F
FC0000007F
FC0000007F
FC0000007F
FC0000007F
FC0000007F
FC0000007F
FE0000007F
FE0000007E
FE0000007E
FF000000FE
7F000001FE
7F800003FC
7FE00007FC
3FFC003FF8
1FFFFFFFF8
1FFFFFFFF0
0FFFFFFFE0
03FFFFFF80
00FFFFFF00
001FFFF800
ENDCHAR
STARTCHAR ucircumflex
ENCODING 251
SWIDTH 889 0
DWIDTH 45 0
BBX 40 46 3 0
BITMAP
00007C0000
0000FE0000
0000EF0000
0001C70000
0003C78000
000383C000
000781E000
0000000000
0000000000
FC0000007F
FC0000007F
FC0000007F
FC0000007F
FC0000007F
FC0000007F
FC0000007F
FC0000007F
FC0000007F
FC0000007F
FC0000007F
FC0000007F
FC0000007F
FC0000007F
FC0000007F
FC0000007F
FC0000007F
FC0000007F
FC0000007F
FC0000007F
FC0000007F
FC0000007F
FC0000007F
FE0000007F
FE0000007E
FE0000007E
FF000000FE
7F000001FE
7F800003FC
7FE00007FC
3FFC003FF8
1FFFFFFFF8
1FFFFFFFF0
0FFFFFFFE0
03FFFFFF80
00FFFFFF00
001FFFF800
ENDCHAR
STARTCHAR udieresis
ENCODING 252
SWIDTH 889 0
DWIDTH 45 0
BBX 40 46 3 0
BITMAP
000781C000
000F83E000
000FC3E000
000783E000
000781C000
0000000000
0000000000
0000000000
0000000000
FC0000007F
FC0000007F
FC0000007F
FC0000007F
FC0000007F
FC0000007F
FC0000007F
FC0000007F
FC0000007F
FC0000007F
FC0000007F
FC0000007F
FC0000007F
FC0000007F
FC0000007F
FC0000007F
FC0000007F
FC0000007F
FC0000007F
FC0000007F
FC0000007F
FC0000007F
FC0000007F
FE0000007F
FE0000007E
FE0000007E
FF000000FE
7F000001FE
7F800003FC
7FE00007FC
3FFC003FF8
1FFFFFFFF8
1FFFFFFFF0
0FFFFFFFE0
03FFFFFF80
00FFFFFF00
001FFFF800
ENDCHAR
STARTCHAR yacute
ENCODING 253
SWIDTH 926 0
DWIDTH 47 0
BBX 46 46 1 0
BITMAP
000000060000
0000003E0000
000003FE0000
00001FFE0000
00003FF00000
00003E000000
000020000000
000000000000
000000000000
FF80000007FC
7FC000000FF0
3FC000001FE0
1FE000003FE0
1FF000003FC0
0FF800007F80
07FC0000FF00
03FE0001FE00
01FE0003FC00
00FF0007F800
007F8007F800
007FC00FF000
003FE01FE000
001FF03FC000
000FF07F8000
0007F8FF0000
0003FCFF0000
0001FFFE0000
0001FFFC0000
0000FFF80000
00007FF00000
00003FE00000
00001FC00000
00001FC00000
00001FC00000
00001FC00000
00001FC00000
00001FC00000
00001FC00000
00001FC00000
00001FC00000
00001FC00000
00001FC00000
00001FC00000
00001FC00000
00001FC00000
00001FC00000
ENDCHAR
STARTCHAR thorn
ENCODING 254
SWIDTH 843 0
DWIDTH 43 0
BBX 39 37 3 0
BITMAP
FE00000000
FE00000000
FE00000000
FE00000000
FE00000000
FFFFFFF800
FFFFFFFF00
FFFFFFFF80
FFFFFFFFE0
FFFFFFFFF0
FFFFFFFFF0
FE00007FF8
FE000007F8
FE000003FC
FE000001FC
FE000000FC
FE000000FC
FE000000FC
FE000000FE
FE000000FC
FE000000FC
FE000000FC
FE000001FC
FE000001FC
FE000003F8
FE00000FF8
FE1FFFFFF0
FE1FFFFFF0
FE1FFFFFE0
FE1FFFFFC0
FE1FFFFF80
FE1FFFFC00
FE00000000
FE00000000
FE00000000
FE00000000
FE00000000
ENDCHAR
STARTCHAR ydieresis
ENCODING 255
SWIDTH 926 0
DWIDTH 47 0
BBX 46 46 1 0
BITMAP
0000F0380000
0000F07C0000
0001F87C0000
0000F87C0000
0000F0380000
000000000000
000000000000
000000000000
000000000000
FF80000007FC
7FC000000FF0
3FC000001FE0
1FE000003FE0
1FF000003FC0
0FF800007F80
07FC0000FF00
03FE0001FE00
01FE0003FC00
00FF0007F800
007F8007F800
007FC00FF000
003FE01FE000
001FF03FC000
000FF07F8000
0007F8FF0000
0003FCFF0000
0001FFFE0000
0001FFFC0000
0000FFF80000
00007FF00000
00003FE00000
00001FC00000
00001FC00000
00001FC00000
00001FC00000
00001FC00000
00001FC00000
00001FC00000
00001FC00000
00001FC00000
00001FC00000
00001FC00000
00001FC00000
00001FC00000
00001FC00000
00001FC00000
ENDCHAR
STARTCHAR Amacron
ENCODING 256
SWIDTH 989 0
DWIDTH 50 0
BBX 49 44 1 0
BITMAP
00003FFE000000
00003FFE000000
00003FFE000000
00000000000000
00000000000000
00000000000000
00000080000000
000003C0000000
000007E0000000
00000FF0000000
00000FF0000000
00001FF8000000
00001FFC000000
00003FFC000000
00007FFE000000
00007FFE000000
0000FFFF000000
0000FE7F800000
0001FC7F800000
0003FC3FC00000
0003F81FE00000
0007F81FE00000
0007F00FF00000
000FE00FF00000
001FE007F80000
001FC003FC0000
003FC003FC0000
003F8001FE0000
007F0001FE0000
00FF0000FF0000
00FE07FFFF8000
01FE0FFFFF8000
01FC1FFFFFC000
03F81FFFFFC000
07F83FFFFFE000
07F000000FF000
0FF000000FF000
0FE0000007F800
1FC0000007F800
3FC0000003FC00
3F80000001FE00
7F80000001FE00
7F00000000FF00
FE000000007F80
ENDCHAR
STARTCHAR amacron
ENCODING 257
SWIDTH 989 0
DWIDTH 50 0
BBX 49 44 1 0
BITMAP
00003FFE000000
00003FFE000000
00003FFE000000
00000000000000
00000000000000
00000000000000
00000080000000
000003C0000000
000007E0000000
00000FF0000000
00000FF0000000
00001FF8000000
00001FFC000000
00003FFC000000
00007FFE000000
00007FFE000000
0000FFFF000000
0000FE7F800000
0001FC7F800000
0003FC3FC00000
0003F81FE00000
0007F81FE00000
0007F00FF00000
000FE00FF00000
001FE007F80000
001FC003FC0000
003FC003FC0000
003F8001FE0000
007F0001FE0000
00FF0000FF0000
00FE07FFFF8000
01FE0FFFFF8000
01FC1FFFFFC000
03F81FFFFFC000
07F83FFFFFE000
07F000000FF000
0FF000000FF000
0FE0000007F800
1FC0000007F800
3FC0000003FC00
3F80000001FE00
7F80000001FE00
7F00000000FF00
FE000000007F80
ENDCHAR
STARTCHAR Abreve
ENCODING 258
SWIDTH 989 0
DWIDTH 50 0
BBX 49 46 1 0
BITMAP
0000780E000000
0000780E000000
0000381E000000
00003C1C000000
00003E3C000000
00001FF8000000
000007F0000000
00000000000000
00000080000000
000003C0000000
000007E0000000
00000FF0000000
00000FF0000000
00001FF8000000
00001FFC000000
00003FFC000000
00007FFE000000
00007FFE000000
0000FFFF000000
0000FE7F800000
0001FC7F800000
0003FC3FC00000
0003F81FE00000
0007F81FE00000
0007F00FF00000
000FE00FF00000
001FE007F80000
001FC003FC0000
003FC003FC0000
003F8001FE0000
007F0001FE0000
00FF0000FF0000
00FE07FFFF8000
01FE0FFFFF8000
01FC1FFFFFC000
03F81FFFFFC000
07F83FFFFFE000
07F000000FF000
0FF000000FF000
0FE0000007F800
1FC0000007F800
3FC0000003FC00
3F80000001FE00
7F80000001FE00
7F00000000FF00
FE000000007F80
ENDCHAR
STARTCHAR abreve
ENCODING 259
SWIDTH 989 0
DWIDTH 50 0
BBX 49 46 1 0
BITMAP
0000780E000000
0000780E000000
0000381E000000
00003C1C000000
00003E3C000000
00001FF8000000
000007F0000000
00000000000000
00000080000000
000003C0000000
000007E0000000
00000FF0000000
00000FF0000000
00001FF8000000
00001FFC000000
00003FFC000000
00007FFE000000
00007FFE000000
0000FFFF000000
0000FE7F800000
0001FC7F800000
0003FC3FC00000
0003F81FE00000
0007F81FE00000
0007F00FF00000
000FE00FF00000
001FE007F80000
001FC003FC0000
003FC003FC0000
003F8001FE0000
007F0001FE0000
00FF0000FF0000
00FE07FFFF8000
01FE0FFFFF8000
01FC1FFFFFC000
03F81FFFFFC000
07F83FFFFFE000
07F000000FF000
0FF000000FF000
0FE0000007F800
1FC0000007F800
3FC0000003FC00
3F80000001FE00
7F80000001FE00
7F00000000FF00
FE000000007F80
ENDCHAR
STARTCHAR Aogonek
ENCODING 260
SWIDTH 989 0
DWIDTH 50 0
BBX 49 48 1 -10
BITMAP
00000080000000
000003C0000000
000007E0000000
00000FF0000000
00000FF0000000
00001FF8000000
00001FFC000000
00003FFC000000
00007FFE000000
00007FFE000000
0000FFFF000000
0000FE7F800000
0001FC7F800000
0003FC3FC00000
0003F81FE00000
0007F81FE00000
0007F00FF00000
000FE00FF00000
001FE007F80000
001FC003FC0000
003FC003FC0000
003F8001FE0000
007F0001FE0000
00FF0000FF0000
00FE07FFFF8000
01FE0FFFFF8000
01FC1FFFFFC000
03F81FFFFFC000
07F83FFFFFE000
07F000000FF000
0FF000000FF000
0FE0000007F800
1FC0000007F800
3FC0000003FC00
3F80000001FE00
7F80000001FE00
7F00000000FF00
FE000000007F80
00000000000700
00000000001C00
00000000003800
0000000000F000
0000000001E000
0000000001E000
0000000001FF80
0000000001FF80
0000000000FF80
00000000007F80
ENDCHAR
STARTCHAR aogonek
ENCODING 261
SWIDTH 989 0
DWIDTH 50 0
BBX 49 48 1 -10
BITMAP
00000080000000
000003C0000000
000007E0000000
00000FF0000000
00000FF0000000
00001FF8000000
00001FFC000000
00003FFC000000
00007FFE000000
00007FFE000000
0000FFFF000000
0000FE7F800000
0001FC7F800000
0003FC3FC00000
0003F81FE00000
0007F81FE00000
0007F00FF00000
000FE00FF00000
001FE007F80000
001FC003FC0000
003FC003FC0000
003F8001FE0000
007F0001FE0000
00FF0000FF0000
00FE07FFFF8000
01FE0FFFFF8000
01FC1FFFFFC000
03F81FFFFFC000
07F83FFFFFE000
07F000000FF000
0FF000000FF000
0FE0000007F800
1FC0000007F800
3FC0000003FC00
3F80000001FE00
7F80000001FE00
7F00000000FF00
FE000000007F80
00000000000700
00000000001C00
00000000003800
0000000000F000
0000000001E000
0000000001E000
0000000001FF80
0000000001FF80
0000000000FF80
00000000007F80
ENDCHAR
STARTCHAR Cacute
ENCODING 262
SWIDTH 829 0
DWIDTH 42 0
BBX 38 46 2 0
BITMAP
0000000C00
000000FC00
000007FC00
00003FFC00
00007FE000
00007C0000
0000400000
0000000000
0000000000
0003FFFFFC
003FFFFFFC
00FFFFFFFC
01FFFFFFFC
03FFFFFFFC
07FFFFFFFC
0FFFC00000
1FF8000000
1FE0000000
3FC0000000
3F80000000
7F80000000
7F00000000
7F00000000
FE00000000
FE00000000
FE00000000
FE00000000
FE00000000
FE00000000
FE00000000
FE00000000
7E00000000
7F00000000
7F00000000
7F80000000
3F80000000
3FC0000000
1FF0000000
0FF8000000
0FFFC00000
07FFFFFFFC
03FFFFFFFC
01FFFFFFFC
007FFFFFFC
001FFFFFFC
0003FFFFFC
ENDCHAR
STARTCHAR cacute
ENCODING 263
SWIDTH 829 0
DWIDTH 42 0
BBX 38 46 2 0
BITMAP
0000000C00
000000FC00
000007FC00
00003FFC00
00007FE000
00007C0000
0000400000
0000000000
0000000000
0003FFFFFC
003FFFFFFC
00FFFFFFFC
01FFFFFFFC
03FFFFFFFC
07FFFFFFFC
0FFFC00000
1FF8000000
1FE0000000
3FC0000000
3F80000000
7F80000000
7F00000000
7F00000000
FE00000000
FE00000000
FE00000000
FE00000000
FE00000000
FE00000000
FE00000000
FE00000000
7E00000000
7F00000000
7F00000000
7F80000000
3F80000000
3FC0000000
1FF0000000
0FF8000000
0FFFC00000
07FFFFFFFC
03FFFFFFFC
01FFFFFFFC
007FFFFFFC
001FFFFFFC
0003FFFFFC
ENDCHAR
STARTCHAR Cdotaccent
ENCODING 266
SWIDTH 829 0
DWIDTH 42 0
BBX 38 46 2 0
BITMAP
0000070000
00000F8000
00000F8000
00000F8000
0000070000
0000000000
0000000000
0000000000
0000000000
0003FFFFFC
003FFFFFFC
00FFFFFFFC
01FFFFFFFC
03FFFFFFFC
07FFFFFFFC
0FFFC00000
1FF8000000
1FE0000000
3FC0000000
3F80000000
7F80000000
7F00000000
7F00000000
FE00000000
FE00000000
FE00000000
FE00000000
FE00000000
FE00000000
FE00000000
FE00000000
7E00000000
7F00000000
7F00000000
7F80000000
3F80000000
3FC0000000
1FF0000000
0FF8000000
0FFFC00000
07FFFFFFFC
03FFFFFFFC
01FFFFFFFC
007FFFFFFC
001FFFFFFC
0003FFFFFC
ENDCHAR
STARTCHAR cdotaccent
ENCODING 267
SWIDTH 829 0
DWIDTH 42 0
BBX 38 46 2 0
BITMAP
0000070000
00000F8000
00000F8000
00000F8000
0000070000
0000000000
0000000000
0000000000
0000000000
0003FFFFFC
003FFFFFFC
00FFFFFFFC
01FFFFFFFC
03FFFFFFFC
07FFFFFFFC
0FFFC00000
1FF8000000
1FE0000000
3FC0000000
3F80000000
7F80000000
7F00000000
7F00000000
FE00000000
FE00000000
FE00000000
FE00000000
FE00000000
FE00000000
FE00000000
FE00000000
7E00000000
7F00000000
7F00000000
7F80000000
3F80000000
3FC0000000
1FF0000000
0FF8000000
0FFFC00000
07FFFFFFFC
03FFFFFFFC
01FFFFFFFC
007FFFFFFC
001FFFFFFC
0003FFFFFC
ENDCHAR
STARTCHAR Ccaron
ENCODING 268
SWIDTH 829 0
DWIDTH 42 0
BBX 38 46 2 0
BITMAP
0001E07800
0000E0F000
0000F0E000
000071C000
00003BC000
00003F8000
00001F0000
0000000000
0000000000
0003FFFFFC
003FFFFFFC
00FFFFFFFC
01FFFFFFFC
03FFFFFFFC
07FFFFFFFC
0FFFC00000
1FF8000000
1FE0000000
3FC0000000
3F80000000
7F80000000
7F00000000
7F00000000
FE00000000
FE00000000
FE00000000
FE00000000
FE00000000
FE00000000
FE00000000
FE00000000
7E00000000
7F00000000
7F00000000
7F80000000
3F80000000
3FC0000000
1FF0000000
0FF8000000
0FFFC00000
07FFFFFFFC
03FFFFFFFC
01FFFFFFFC
007FFFFFFC
001FFFFFFC
0003FFFFFC
ENDCHAR
STARTCHAR ccaron
ENCODING 269
SWIDTH 829 0
DWIDTH 42 0
BBX 38 46 2 0
BITMAP
0001E07800
0000E0F000
0000F0E000
000071C000
00003BC000
00003F8000
00001F0000
0000000000
0000000000
0003FFFFFC
003FFFFFFC
00FFFFFFFC
01FFFFFFFC
03FFFFFFFC
07FFFFFFFC
0FFFC00000
1FF8000000
1FE0000000
3FC0000000
3F80000000
7F80000000
7F00000000
7F00000000
FE00000000
FE00000000
FE00000000
FE00000000
FE00000000
FE00000000
FE00000000
FE00000000
7E00000000
7F00000000
7F00000000
7F80000000
3F80000000
3FC0000000
1FF0000000
0FF8000000
0FFFC00000
07FFFFFFFC
03FFFFFFFC
01FFFFFFFC
007FFFFFFC
001FFFFFFC
0003FFFFFC
ENDCHAR
STARTCHAR Dcaron
ENCODING 270
SWIDTH 879 0
DWIDTH 45 0
BBX 40 46 3 0
BITMAP
003C0F0000
001E0E0000
000E1E0000
00071C0000
0007B80000
0003F80000
0001F00000
0000000000
0000000000
FFFFFFC000
FFFFFFF800
FFFFFFFE00
FFFFFFFF80
FFFFFFFFC0
FFFFFFFFE0
FE0003FFF0
FE00001FF8
FE00000FF8
FE000003FC
FE000001FC
FE000001FE
FE000000FE
FE000000FE
FE0000007E
FE0000007F
FE0000007F
FE0000007F
FE0000007F
FE0000007F
FE0000007F
FE0000007E
FE0000007E
FE000000FE
FE000000FE
FE000001FC
FE000001FC
FE000003FC
FE00000FF8
FE00001FF0
FE0003FFF0
FFFFFFFFE0
FFFFFFFFC0
FFFFFFFF00
FFFFFFFE00
FFFFFFF800
FFFFFFC000
ENDCHAR
STARTCHAR dcaron
ENCODING 271
SWIDTH 879 0
DWIDTH 45 0
BBX 40 46 3 0
BITMAP
003C0F0000
001E0E0000
000E1E0000
00071C0000
0007B80000
0003F80000
0001F00000
0000000000
0000000000
FFFFFFC000
FFFFFFF800
FFFFFFFE00
FFFFFFFF80
FFFFFFFFC0
FFFFFFFFE0
FE0003FFF0
FE00001FF8
FE00000FF8
FE000003FC
FE000001FC
FE000001FE
FE000000FE
FE000000FE
FE0000007E
FE0000007F
FE0000007F
FE0000007F
FE0000007F
FE0000007F
FE0000007F
FE0000007E
FE0000007E
FE000000FE
FE000000FE
FE000001FC
FE000001FC
FE000003FC
FE00000FF8
FE00001FF0
FE0003FFF0
FFFFFFFFE0
FFFFFFFFC0
FFFFFFFF00
FFFFFFFE00
FFFFFFF800
FFFFFFC000
ENDCHAR
STARTCHAR Dcroat
ENCODING 272
SWIDTH 877 0
DWIDTH 45 0
BBX 42 37 1 0
BITMAP
3FFFFFF00000
3FFFFFFE0000
3FFFFFFF8000
3FFFFFFFE000
3FFFFFFFF000
3FFFFFFFF800
3F8000FFFC00
3F80000FFE00
3F800003FE00
3F800000FF00
3F800000FF00
3F8000007F80
3F8000003F80
3F8000003F80
3F8000001F80
3F8000001FC0
FFFFFE001FC0
FFFFFE001FC0
FFFFFE001FC0
FFFFFE001FC0
FFFFFE001FC0
3F8000001F80
3F8000001F80
3F8000003F80
3F8000003F80
3F8000007F00
3F800000FF00
3F800001FE00
3F800003FE00
3F80000FFC00
3F8000FFF800
3FFFFFFFF800
3FFFFFFFF000
3FFFFFFFC000
3FFFFFFF8000
3FFFFFFE0000
3FFFFFF00000
ENDCHAR
STARTCHAR dcroat
ENCODING 273
SWIDTH 877 0
DWIDTH 45 0
BBX 42 37 1 0
BITMAP
3FFFFFF00000
3FFFFFFE0000
3FFFFFFF8000
3FFFFFFFE000
3FFFFFFFF000
3FFFFFFFF800
3F8000FFFC00
3F80000FFE00
3F800003FE00
3F800000FF00
3F800000FF00
3F8000007F80
3F8000003F80
3F8000003F80
3F8000001F80
3F8000001FC0
FFFFFE001FC0
FFFFFE001FC0
FFFFFE001FC0
FFFFFE001FC0
FFFFFE001FC0
3F8000001F80
3F8000001F80
3F8000003F80
3F8000003F80
3F8000007F00
3F800000FF00
3F800001FE00
3F800003FE00
3F80000FFC00
3F8000FFF800
3FFFFFFFF800
3FFFFFFFF000
3FFFFFFFC000
3FFFFFFF8000
3FFFFFFE0000
3FFFFFF00000
ENDCHAR
STARTCHAR Emacron
ENCODING 274
SWIDTH 759 0
DWIDTH 39 0
BBX 33 44 3 0
BITMAP
003FFE0000
003FFE0000
003FFE0000
0000000000
0000000000
0000000000
0000000000
FFFFFFFF80
FFFFFFFF80
FFFFFFFF80
FFFFFFFF80
FFFFFFFF80
FFFFFFFF80
FE00000000
FE00000000
FE00000000
FE00000000
FE00000000
FE00000000
FE00000000
FE00000000
FE00000000
FE00000000
FE1FFFFF00
FE1FFFFF00
FE1FFFFF00
FE1FFFFF00
FE1FFFFF00
FE00000000
FE00000000
FE00000000
FE00000000
FE00000000
FE00000000
FE00000000
FE00000000
FE00000000
FE00000000
FFFFFFFF80
FFFFFFFF80
FFFFFFFF80
FFFFFFFF80
FFFFFFFF80
FFFFFFFF80
ENDCHAR
STARTCHAR emacron
ENCODING 275
SWIDTH 759 0
DWIDTH 39 0
BBX 33 44 3 0
BITMAP
003FFE0000
003FFE0000
003FFE0000
0000000000
0000000000
0000000000
0000000000
FFFFFFFF80
FFFFFFFF80
FFFFFFFF80
FFFFFFFF80
FFFFFFFF80
FFFFFFFF80
FE00000000
FE00000000
FE00000000
FE00000000
FE00000000
FE00000000
FE00000000
FE00000000
FE00000000
FE00000000
FE1FFFFF00
FE1FFFFF00
FE1FFFFF00
FE1FFFFF00
FE1FFFFF00
FE00000000
FE00000000
FE00000000
FE00000000
FE00000000
FE00000000
FE00000000
FE00000000
FE00000000
FE00000000
FFFFFFFF80
FFFFFFFF80
FFFFFFFF80
FFFFFFFF80
FFFFFFFF80
FFFFFFFF80
ENDCHAR
STARTCHAR Ebreve
ENCODING 276
SWIDTH 759 0
DWIDTH 39 0
BBX 33 46 3 0
BITMAP
00780E0000
00780E0000
00381E0000
003C1E0000
001E3C0000
001FF80000
0007F00000
0000000000
0000000000
FFFFFFFF80
FFFFFFFF80
FFFFFFFF80
FFFFFFFF80
FFFFFFFF80
FFFFFFFF80
FE00000000
FE00000000
FE00000000
FE00000000
FE00000000
FE00000000
FE00000000
FE00000000
FE00000000
FE00000000
FE1FFFFF00
FE1FFFFF00
FE1FFFFF00
FE1FFFFF00
FE1FFFFF00
FE00000000
FE00000000
FE00000000
FE00000000
FE00000000
FE00000000
FE00000000
FE00000000
FE00000000
FE00000000
FFFFFFFF80
FFFFFFFF80
FFFFFFFF80
FFFFFFFF80
FFFFFFFF80
FFFFFFFF80
ENDCHAR
STARTCHAR ebreve
ENCODING 277
SWIDTH 759 0
DWIDTH 39 0
BBX 33 46 3 0
BITMAP
00780E0000
00780E0000
00381E0000
003C1E0000
001E3C0000
001FF80000
0007F00000
0000000000
0000000000
FFFFFFFF80
FFFFFFFF80
FFFFFFFF80
FFFFFFFF80
FFFFFFFF80
FFFFFFFF80
FE00000000
FE00000000
FE00000000
FE00000000
FE00000000
FE00000000
FE00000000
FE00000000
FE00000000
FE00000000
FE1FFFFF00
FE1FFFFF00
FE1FFFFF00
FE1FFFFF00
FE1FFFFF00
FE00000000
FE00000000
FE00000000
FE00000000
FE00000000
FE00000000
FE00000000
FE00000000
FE00000000
FE00000000
FFFFFFFF80
FFFFFFFF80
FFFFFFFF80
FFFFFFFF80
FFFFFFFF80
FFFFFFFF80
ENDCHAR
STARTCHAR Edotaccent
ENCODING 278
SWIDTH 759 0
DWIDTH 39 0
BBX 33 46 3 0
BITMAP
0001C00000
0003E00000
0003E00000
0003E00000
0001C00000
0000000000
0000000000
0000000000
0000000000
FFFFFFFF80
FFFFFFFF80
FFFFFFFF80
FFFFFFFF80
FFFFFFFF80
FFFFFFFF80
FE00000000
FE00000000
FE00000000
FE00000000
FE00000000
FE00000000
FE00000000
FE00000000
FE00000000
FE00000000
FE1FFFFF00
FE1FFFFF00
FE1FFFFF00
FE1FFFFF00
FE1FFFFF00
FE00000000
FE00000000
FE00000000
FE00000000
FE00000000
FE00000000
FE00000000
FE00000000
FE00000000
FE00000000
FFFFFFFF80
FFFFFFFF80
FFFFFFFF80
FFFFFFFF80
FFFFFFFF80
FFFFFFFF80
ENDCHAR
STARTCHAR edotaccent
ENCODING 279
SWIDTH 759 0
DWIDTH 39 0
BBX 33 46 3 0
BITMAP
0001C00000
0003E00000
0003E00000
0003E00000
0001C00000
0000000000
0000000000
0000000000
0000000000
FFFFFFFF80
FFFFFFFF80
FFFFFFFF80
FFFFFFFF80
FFFFFFFF80
FFFFFFFF80
FE00000000
FE00000000
FE00000000
FE00000000
FE00000000
FE00000000
FE00000000
FE00000000
FE00000000
FE00000000
FE1FFFFF00
FE1FFFFF00
FE1FFFFF00
FE1FFFFF00
FE1FFFFF00
FE00000000
FE00000000
FE00000000
FE00000000
FE00000000
FE00000000
FE00000000
FE00000000
FE00000000
FE00000000
FFFFFFFF80
FFFFFFFF80
FFFFFFFF80
FFFFFFFF80
FFFFFFFF80
FFFFFFFF80
ENDCHAR
STARTCHAR Eogonek
ENCODING 280
SWIDTH 759 0
DWIDTH 39 0
BBX 33 47 3 -10
BITMAP
FFFFFFFF80
FFFFFFFF80
FFFFFFFF80
FFFFFFFF80
FFFFFFFF80
FFFFFFFF80
FE00000000
FE00000000
FE00000000
FE00000000
FE00000000
FE00000000
FE00000000
FE00000000
FE00000000
FE00000000
FE1FFFFF00
FE1FFFFF00
FE1FFFFF00
FE1FFFFF00
FE1FFFFF00
FE00000000
FE00000000
FE00000000
FE00000000
FE00000000
FE00000000
FE00000000
FE00000000
FE00000000
FE00000000
FFFFFFFF80
FFFFFFFF80
FFFFFFFF80
FFFFFFFF80
FFFFFFFF80
FFFFFFFF80
0000000380
0000000E00
0000003C00
0000007000
000000F000
000000F000
000000FF80
000000FF80
000000FF80
0000003F80
ENDCHAR
STARTCHAR eogonek
ENCODING 281
SWIDTH 759 0
DWIDTH 39 0
BBX 33 47 3 -10
BITMAP
FFFFFFFF80
FFFFFFFF80
FFFFFFFF80
FFFFFFFF80
FFFFFFFF80
FFFFFFFF80
FE00000000
FE00000000
FE00000000
FE00000000
FE00000000
FE00000000
FE00000000
FE00000000
FE00000000
FE00000000
FE1FFFFF00
FE1FFFFF00
FE1FFFFF00
FE1FFFFF00
FE1FFFFF00
FE00000000
FE00000000
FE00000000
FE00000000
FE00000000
FE00000000
FE00000000
FE00000000
FE00000000
FE00000000
FFFFFFFF80
FFFFFFFF80
FFFFFFFF80
FFFFFFFF80
FFFFFFFF80
FFFFFFFF80
0000000380
0000000E00
0000003C00
0000007000
000000F000
000000F000
000000FF80
000000FF80
000000FF80
0000003F80
ENDCHAR
STARTCHAR Ecaron
ENCODING 282
SWIDTH 759 0
DWIDTH 39 0
BBX 33 46 3 0
BITMAP
00781E0000
003C1C0000
001C3C0000
000E380000
000F700000
0007F00000
0003E00000
0000000000
0000000000
FFFFFFFF80
FFFFFFFF80
FFFFFFFF80
FFFFFFFF80
FFFFFFFF80
FFFFFFFF80
FE00000000
FE00000000
FE00000000
FE00000000
FE00000000
FE00000000
FE00000000
FE00000000
FE00000000
FE00000000
FE1FFFFF00
FE1FFFFF00
FE1FFFFF00
FE1FFFFF00
FE1FFFFF00
FE00000000
FE00000000
FE00000000
FE00000000
FE00000000
FE00000000
FE00000000
FE00000000
FE00000000
FE00000000
FFFFFFFF80
FFFFFFFF80
FFFFFFFF80
FFFFFFFF80
FFFFFFFF80
FFFFFFFF80
ENDCHAR
STARTCHAR ecaron
ENCODING 283
SWIDTH 759 0
DWIDTH 39 0
BBX 33 46 3 0
BITMAP
00781E0000
003C1C0000
001C3C0000
000E380000
000F700000
0007F00000
0003E00000
0000000000
0000000000
FFFFFFFF80
FFFFFFFF80
FFFFFFFF80
FFFFFFFF80
FFFFFFFF80
FFFFFFFF80
FE00000000
FE00000000
FE00000000
FE00000000
FE00000000
FE00000000
FE00000000
FE00000000
FE00000000
FE00000000
FE1FFFFF00
FE1FFFFF00
FE1FFFFF00
FE1FFFFF00
FE1FFFFF00
FE00000000
FE00000000
FE00000000
FE00000000
FE00000000
FE00000000
FE00000000
FE00000000
FE00000000
FE00000000
FFFFFFFF80
FFFFFFFF80
FFFFFFFF80
FFFFFFFF80
FFFFFFFF80
FFFFFFFF80
ENDCHAR
STARTCHAR Gbreve
ENCODING 286
SWIDTH 888 0
DWIDTH 45 0
BBX 41 46 2 0
BITMAP
0001E0380000
0001E0380000
0000E0780000
0000F0700000
0000F8F00000
00007FE00000
00001FC00000
000000000000
000000000000
0003FFFFFC00
003FFFFFFC00
00FFFFFFFC00
01FFFFFFFC00
03FFFFFFFC00
07FFFFFFFC00
0FFFC0000000
1FF800000000
1FE000000000
3FC000000000
3F8000000000
7F8000000000
7F0000000000
7F0000000000
FE0000000000
FE0000000000
FE007FFFFF80
FE007FFFFF80
FE007FFFFF80
FE007FFFFF80
FE007FFFFF80
FE0000003F80
7E0000003F80
7F0000003F80
7F0000003F80
7F8000003F80
3F8000003F80
3FC000003F80
1FF000003F80
0FF800003F80
0FFFC0003F80
07FFFFFFFF80
03FFFFFFFF80
01FFFFFFFF80
007FFFFFFF80
001FFFFFFF80
0003FFFFFF80
ENDCHAR
STARTCHAR gbreve
ENCODING 287
SWIDTH 888 0
DWIDTH 45 0
BBX 41 46 2 0
BITMAP
0001E0380000
0001E0380000
0000E0780000
0000F0700000
0000F8F00000
00007FE00000
00001FC00000
000000000000
000000000000
0003FFFFFC00
003FFFFFFC00
00FFFFFFFC00
01FFFFFFFC00
03FFFFFFFC00
07FFFFFFFC00
0FFFC0000000
1FF800000000
1FE000000000
3FC000000000
3F8000000000
7F8000000000
7F0000000000
7F0000000000
FE0000000000
FE0000000000
FE007FFFFF80
FE007FFFFF80
FE007FFFFF80
FE007FFFFF80
FE007FFFFF80
FE0000003F80
7E0000003F80
7F0000003F80
7F0000003F80
7F8000003F80
3F8000003F80
3FC000003F80
1FF000003F80
0FF800003F80
0FFFC0003F80
07FFFFFFFF80
03FFFFFFFF80
01FFFFFFFF80
007FFFFFFF80
001FFFFFFF80
0003FFFFFF80
ENDCHAR
STARTCHAR Gdotaccent
ENCODING 288
SWIDTH 888 0
DWIDTH 45 0
BBX 41 46 2 0
BITMAP
000007000000
00000F800000
00000F800000
00000F800000
000007000000
000000000000
000000000000
000000000000
000000000000
0003FFFFFC00
003FFFFFFC00
00FFFFFFFC00
01FFFFFFFC00
03FFFFFFFC00
07FFFFFFFC00
0FFFC0000000
1FF800000000
1FE000000000
3FC000000000
3F8000000000
7F8000000000
7F0000000000
7F0000000000
FE0000000000
FE0000000000
FE007FFFFF80
FE007FFFFF80
FE007FFFFF80
FE007FFFFF80
FE007FFFFF80
FE0000003F80
7E0000003F80
7F0000003F80
7F0000003F80
7F8000003F80
3F8000003F80
3FC000003F80
1FF000003F80
0FF800003F80
0FFFC0003F80
07FFFFFFFF80
03FFFFFFFF80
01FFFFFFFF80
007FFFFFFF80
001FFFFFFF80
0003FFFFFF80
ENDCHAR
STARTCHAR gdotaccent
ENCODING 289
SWIDTH 888 0
DWIDTH 45 0
BBX 41 46 2 0
BITMAP
000007000000
00000F800000
00000F800000
00000F800000
000007000000
000000000000
000000000000
000000000000
000000000000
0003FFFFFC00
003FFFFFFC00
00FFFFFFFC00
01FFFFFFFC00
03FFFFFFFC00
07FFFFFFFC00
0FFFC0000000
1FF800000000
1FE000000000
3FC000000000
3F8000000000
7F8000000000
7F0000000000
7F0000000000
FE0000000000
FE0000000000
FE007FFFFF80
FE007FFFFF80
FE007FFFFF80
FE007FFFFF80
FE007FFFFF80
FE0000003F80
7E0000003F80
7F0000003F80
7F0000003F80
7F8000003F80
3F8000003F80
3FC000003F80
1FF000003F80
0FF800003F80
0FFFC0003F80
07FFFFFFFF80
03FFFFFFFF80
01FFFFFFFF80
007FFFFFFF80
001FFFFFFF80
0003FFFFFF80
ENDCHAR
STARTCHAR Gcommaaccent
ENCODING 290
SWIDTH 888 0
DWIDTH 45 0
BBX 41 47 2 -10
BITMAP
0003FFFFFC00
003FFFFFFC00
00FFFFFFFC00
01FFFFFFFC00
03FFFFFFFC00
07FFFFFFFC00
0FFFC0000000
1FF800000000
1FE000000000
3FC000000000
3F8000000000
7F8000000000
7F0000000000
7F0000000000
FE0000000000
FE0000000000
FE007FFFFF80
FE007FFFFF80
FE007FFFFF80
FE007FFFFF80
FE007FFFFF80
FE0000003F80
7E0000003F80
7F0000003F80
7F0000003F80
7F8000003F80
3F8000003F80
3FC000003F80
1FF000003F80
0FF800003F80
0FFFC0003F80
07FFFFFFFF80
03FFFFFFFF80
01FFFFFFFF80
007FFFFFFF80
001FFFFFFF80
0003FFFFFF80
000000000000
000000000000
00003F800000
00003F000000
00001E000000
00001E000000
00000E000000
00000C000000
000004000000
000004000000
ENDCHAR
STARTCHAR gcommaaccent
ENCODING 291
SWIDTH 888 0
DWIDTH 45 0
BBX 41 47 2 -10
BITMAP
0003FFFFFC00
003FFFFFFC00
00FFFFFFFC00
01FFFFFFFC00
03FFFFFFFC00
07FFFFFFFC00
0FFFC0000000
1FF800000000
1FE000000000
3FC000000000
3F8000000000
7F8000000000
7F0000000000
7F0000000000
FE0000000000
FE0000000000
FE007FFFFF80
FE007FFFFF80
FE007FFFFF80
FE007FFFFF80
FE007FFFFF80
FE0000003F80
7E0000003F80
7F0000003F80
7F0000003F80
7F8000003F80
3F8000003F80
3FC000003F80
1FF000003F80
0FF800003F80
0FFFC0003F80
07FFFFFFFF80
03FFFFFFFF80
01FFFFFFFF80
007FFFFFFF80
001FFFFFFF80
0003FFFFFF80
000000000000
000000000000
00003F800000
00003F000000
00001E000000
00001E000000
00000E000000
00000C000000
000004000000
000004000000
ENDCHAR
STARTCHAR Hbar
ENCODING 294
SWIDTH 838 0
DWIDTH 43 0
BBX 37 37 3 0
BITMAP
FE000003F8
FE000003F8
FE000003F8
FE000003F8
FE000003F8
FE000003F8
FE1FFFFFF8
FE1FFFFFF8
FE1FFFFFF8
FE000003F8
FE000003F8
FE000003F8
FE000003F8
FE000003F8
FE000003F8
FE1FFFFFF8
FE1FFFFFF8
FE1FFFFFF8
FE1FFFFFF8
FE1FFFFFF8
FE1FFFFFF8
FE000003F8
FE000003F8
FE000003F8
FE000003F8
FE000003F8
FE000003F8
FE000003F8
FE000003F8
FE000003F8
FE000003F8
FE000003F8
FE000003F8
FE000003F8
FE000003F8
FE000003F8
FE000003F8
ENDCHAR
STARTCHAR hbar
ENCODING 295
SWIDTH 838 0
DWIDTH 43 0
BBX 37 37 3 0
BITMAP
FE000003F8
FE000003F8
FE000003F8
FE000003F8
FE000003F8
FE000003F8
FE1FFFFFF8
FE1FFFFFF8
FE1FFFFFF8
FE000003F8
FE000003F8
FE000003F8
FE000003F8
FE000003F8
FE000003F8
FE1FFFFFF8
FE1FFFFFF8
FE1FFFFFF8
FE1FFFFFF8
FE1FFFFFF8
FE1FFFFFF8
FE000003F8
FE000003F8
FE000003F8
FE000003F8
FE000003F8
FE000003F8
FE000003F8
FE000003F8
FE000003F8
FE000003F8
FE000003F8
FE000003F8
FE000003F8
FE000003F8
FE000003F8
FE000003F8
ENDCHAR
STARTCHAR uni012A
ENCODING 298
SWIDTH 267 0
DWIDTH 14 0
BBX 13 44 0 0
BITMAP
FFF8
FFF8
FFF8
0000
0000
0000
0000
0FC0
0FC0
0FC0
0FC0
0FC0
0FC0
0FC0
0FC0
0FC0
0FC0
0FC0
0FC0
0FC0
0FC0
0FC0
0FC0
0FC0
0FC0
0FC0
0FC0
0FC0
0FC0
0FC0
0FC0
0FC0
0FC0
0FC0
0FC0
0FC0
0FC0
0FC0
0FC0
0FC0
0FC0
0FC0
0FC0
0FC0
ENDCHAR
STARTCHAR imacron
ENCODING 299
SWIDTH 267 0
DWIDTH 14 0
BBX 13 44 0 0
BITMAP
FFF8
FFF8
FFF8
0000
0000
0000
0000
0FC0
0FC0
0FC0
0FC0
0FC0
0FC0
0FC0
0FC0
0FC0
0FC0
0FC0
0FC0
0FC0
0FC0
0FC0
0FC0
0FC0
0FC0
0FC0
0FC0
0FC0
0FC0
0FC0
0FC0
0FC0
0FC0
0FC0
0FC0
0FC0
0FC0
0FC0
0FC0
0FC0
0FC0
0FC0
0FC0
0FC0
ENDCHAR
STARTCHAR Ibreve
ENCODING 300
SWIDTH 267 0
DWIDTH 14 0
BBX 14 46 0 0
BITMAP
E03C
E03C
F03C
7038
7878
3FF0
1FE0
0000
0000
0FC0
0FC0
0FC0
0FC0
0FC0
0FC0
0FC0
0FC0
0FC0
0FC0
0FC0
0FC0
0FC0
0FC0
0FC0
0FC0
0FC0
0FC0
0FC0
0FC0
0FC0
0FC0
0FC0
0FC0
0FC0
0FC0
0FC0
0FC0
0FC0
0FC0
0FC0
0FC0
0FC0
0FC0
0FC0
0FC0
0FC0
ENDCHAR
STARTCHAR ibreve
ENCODING 301
SWIDTH 267 0
DWIDTH 14 0
BBX 14 46 0 0
BITMAP
E03C
E03C
F03C
7038
7878
3FF0
1FE0
0000
0000
0FC0
0FC0
0FC0
0FC0
0FC0
0FC0
0FC0
0FC0
0FC0
0FC0
0FC0
0FC0
0FC0
0FC0
0FC0
0FC0
0FC0
0FC0
0FC0
0FC0
0FC0
0FC0
0FC0
0FC0
0FC0
0FC0
0FC0
0FC0
0FC0
0FC0
0FC0
0FC0
0FC0
0FC0
0FC0
0FC0
0FC0
ENDCHAR
STARTCHAR Iogonek
ENCODING 302
SWIDTH 267 0
DWIDTH 14 0
BBX 10 47 0 -10
BITMAP
0FC0
0FC0
0FC0
0FC0
0FC0
0FC0
0FC0
0FC0
0FC0
0FC0
0FC0
0FC0
0FC0
0FC0
0FC0
0FC0
0FC0
0FC0
0FC0
0FC0
0FC0
0FC0
0FC0
0FC0
0FC0
0FC0
0FC0
0FC0
0FC0
0FC0
0FC0
0FC0
0FC0
0FC0
0FC0
0FC0
0FC0
0380
0700
1C00
3800
7000
F800
FFC0
7FC0
7FC0
1FC0
ENDCHAR
STARTCHAR iogonek
ENCODING 303
SWIDTH 267 0
DWIDTH 14 0
BBX 10 47 0 -10
BITMAP
0FC0
0FC0
0FC0
0FC0
0FC0
0FC0
0FC0
0FC0
0FC0
0FC0
0FC0
0FC0
0FC0
0FC0
0FC0
0FC0
0FC0
0FC0
0FC0
0FC0
0FC0
0FC0
0FC0
0FC0
0FC0
0FC0
0FC0
0FC0
0FC0
0FC0
0FC0
0FC0
0FC0
0FC0
0FC0
0FC0
0FC0
0380
0700
1C00
3800
7000
F800
FFC0
7FC0
7FC0
1FC0
ENDCHAR
STARTCHAR Idotaccent
ENCODING 304
SWIDTH 267 0
DWIDTH 14 0
BBX 6 46 4 0
BITMAP
70
F8
F8
F8
70
00
00
00
00
FC
FC
FC
FC
FC
FC
FC
FC
FC
FC
FC
FC
FC
FC
FC
FC
FC
FC
FC
FC
FC
FC
FC
FC
FC
FC
FC
FC
FC
FC
FC
FC
FC
FC
FC
FC
FC
ENDCHAR
STARTCHAR dotlessi
ENCODING 305
SWIDTH 267 0
DWIDTH 14 0
BBX 6 37 4 0
BITMAP
FC
FC
FC
FC
FC
FC
FC
FC
FC
FC
FC
FC
FC
FC
FC
FC
FC
FC
FC
FC
FC
FC
FC
FC
FC
FC
FC
FC
FC
FC
FC
FC
FC
FC
FC
FC
FC
ENDCHAR
STARTCHAR IJ
ENCODING 306
SWIDTH 975 0
DWIDTH 50 0
BBX 43 37 4 0
BITMAP
FC00000007E0
FC00000007E0
FC00000007E0
FC00000007E0
FC00000007E0
FC00000007E0
FC00000007E0
FC00000007E0
FC00000007E0
FC00000007E0
FC00000007E0
FC00000007E0
FC00000007E0
FC00000007E0
FC00000007E0
FC00000007E0
FC00000007E0
FC00000007E0
FC00000007E0
FC00000007E0
FC00000007E0
FC00000007E0
FC0000000FE0
FC0000000FE0
FC0000000FE0
FC0000000FE0
FC0000001FC0
FC0000003FC0
FC0000007FC0
FC000001FF80
FC00007FFF80
FC1FFFFFFF00
FC1FFFFFFE00
FC1FFFFFFC00
FC1FFFFFF000
FC1FFFFFC000
FC1FFFFC0000
ENDCHAR
STARTCHAR ij
ENCODING 307
SWIDTH 975 0
DWIDTH 50 0
BBX 43 37 4 0
BITMAP
FC00000007E0
FC00000007E0
FC00000007E0
FC00000007E0
FC00000007E0
FC00000007E0
FC00000007E0
FC00000007E0
FC00000007E0
FC00000007E0
FC00000007E0
FC00000007E0
FC00000007E0
FC00000007E0
FC00000007E0
FC00000007E0
FC00000007E0
FC00000007E0
FC00000007E0
FC00000007E0
FC00000007E0
FC00000007E0
FC0000000FE0
FC0000000FE0
FC0000000FE0
FC0000000FE0
FC0000001FC0
FC0000003FC0
FC0000007FC0
FC000001FF80
FC00007FFF80
FC1FFFFFFF00
FC1FFFFFFE00
FC1FFFFFFC00
FC1FFFFFF000
FC1FFFFFC000
FC1FFFFC0000
ENDCHAR
STARTCHAR Kcommaaccent
ENCODING 310
SWIDTH 875 0
DWIDTH 45 0
BBX 41 47 3 -10
BITMAP
FE000007FF00
FE00000FFC00
FE00001FF800
FE00007FE000
FE0000FFC000
FE0001FF8000
FE0007FE0000
FE000FFC0000
FE001FF80000
FE003FE00000
FE00FFC00000
FE01FF800000
FE03FE000000
FE0FFC000000
FE1FF8000000
FE3FE0000000
FE7FC0000000
FE7F80000000
FE7F00000000
FE7F80000000
FE3FE0000000
FE1FF0000000
FE0FF8000000
FE03FE000000
FE01FF000000
FE00FF800000
FE007FE00000
FE001FF00000
FE000FF80000
FE0007FE0000
FE0003FF0000
FE0000FF8000
FE00007FE000
FE00003FF000
FE00000FF800
FE000007FE00
FE000003FF80
000000000000
000000000000
0000FE000000
00007C000000
00007C000000
000078000000
000038000000
000030000000
000010000000
000010000000
ENDCHAR
STARTCHAR kcommaaccent
ENCODING 311
SWIDTH 875 0
DWIDTH 45 0
BBX 41 47 3 -10
BITMAP
FE000007FF00
FE00000FFC00
FE00001FF800
FE00007FE000
FE0000FFC000
FE0001FF8000
FE0007FE0000
FE000FFC0000
FE001FF80000
FE003FE00000
FE00FFC00000
FE01FF800000
FE03FE000000
FE0FFC000000
FE1FF8000000
FE3FE0000000
FE7FC0000000
FE7F80000000
FE7F00000000
FE7F80000000
FE3FE0000000
FE1FF0000000
FE0FF8000000
FE03FE000000
FE01FF000000
FE00FF800000
FE007FE00000
FE001FF00000
FE000FF80000
FE0007FE0000
FE0003FF0000
FE0000FF8000
FE00007FE000
FE00003FF000
FE00000FF800
FE000007FE00
FE000003FF80
000000000000
000000000000
0000FE000000
00007C000000
00007C000000
000078000000
000038000000
000030000000
000010000000
000010000000
ENDCHAR
STARTCHAR Lacute
ENCODING 313
SWIDTH 707 0
DWIDTH 36 0
BBX 34 46 1 0
BITMAP
0018000000
00F8000000
07F8000000
7FF8000000
FFE0000000
FC00000000
8000000000
0000000000
0000000000
3F80000000
3F80000000
3F80000000
3F80000000
3F80000000
3F80000000
3F80000000
3F80000000
3F80000000
3F80000000
3F80000000
3F80000000
3F80000000
3F80000000
3F80000000
3F80000000
3F80000000
3F80000000
3F80000000
3F80000000
3F80000000
3F80000000
3F80000000
3F80000000
3F80000000
3F80000000
3F80000000
3F80000000
3F80000000
3F80000000
3F80000000
3FFFFFFFC0
3FFFFFFFC0
3FFFFFFFC0
3FFFFFFFC0
3FFFFFFFC0
3FFFFFFFC0
ENDCHAR
STARTCHAR lacute
ENCODING 314
SWIDTH 707 0
DWIDTH 36 0
BBX 34 46 1 0
BITMAP
0018000000
00F8000000
07F8000000
7FF8000000
FFE0000000
FC00000000
8000000000
0000000000
0000000000
3F80000000
3F80000000
3F80000000
3F80000000
3F80000000
3F80000000
3F80000000
3F80000000
3F80000000
3F80000000
3F80000000
3F80000000
3F80000000
3F80000000
3F80000000
3F80000000
3F80000000
3F80000000
3F80000000
3F80000000
3F80000000
3F80000000
3F80000000
3F80000000
3F80000000
3F80000000
3F80000000
3F80000000
3F80000000
3F80000000
3F80000000
3FFFFFFFC0
3FFFFFFFC0
3FFFFFFFC0
3FFFFFFFC0
3FFFFFFFC0
3FFFFFFFC0
ENDCHAR
STARTCHAR Lcommaaccent
ENCODING 315
SWIDTH 707 0
DWIDTH 36 0
BBX 32 47 3 -10
BITMAP
FE000000
FE000000
FE000000
FE000000
FE000000
FE000000
FE000000
FE000000
FE000000
FE000000
FE000000
FE000000
FE000000
FE000000
FE000000
FE000000
FE000000
FE000000
FE000000
FE000000
FE000000
FE000000
FE000000
FE000000
FE000000
FE000000
FE000000
FE000000
FE000000
FE000000
FE000000
FFFFFFFF
FFFFFFFF
FFFFFFFF
FFFFFFFF
FFFFFFFF
FFFFFFFF
00000000
00000000
0007E000
0007E000
0003C000
0003C000
00038000
00018000
00018000
00010000
ENDCHAR
STARTCHAR lcommaaccent
ENCODING 316
SWIDTH 707 0
DWIDTH 36 0
BBX 32 47 3 -10
BITMAP
FE000000
FE000000
FE000000
FE000000
FE000000
FE000000
FE000000
FE000000
FE000000
FE000000
FE000000
FE000000
FE000000
FE000000
FE000000
FE000000
FE000000
FE000000
FE000000
FE000000
FE000000
FE000000
FE000000
FE000000
FE000000
FE000000
FE000000
FE000000
FE000000
FE000000
FE000000
FFFFFFFF
FFFFFFFF
FFFFFFFF
FFFFFFFF
FFFFFFFF
FFFFFFFF
00000000
00000000
0007E000
0007E000
0003C000
0003C000
00038000
00018000
00018000
00010000
ENDCHAR
STARTCHAR Lcaron
ENCODING 317
SWIDTH 707 0
DWIDTH 36 0
BBX 32 37 3 0
BITMAP
FE07E000
FE07E000
FE07E000
FE07E000
FE07E000
FE07C000
FE07C000
FE07C000
FE07C000
FE07C000
FE078000
FE078000
FE078000
FE000000
FE000000
FE000000
FE000000
FE000000
FE000000
FE000000
FE000000
FE000000
FE000000
FE000000
FE000000
FE000000
FE000000
FE000000
FE000000
FE000000
FE000000
FFFFFFFF
FFFFFFFF
FFFFFFFF
FFFFFFFF
FFFFFFFF
FFFFFFFF
ENDCHAR
STARTCHAR lcaron
ENCODING 318
SWIDTH 707 0
DWIDTH 36 0
BBX 32 37 3 0
BITMAP
FE07E000
FE07E000
FE07E000
FE07E000
FE07E000
FE07C000
FE07C000
FE07C000
FE07C000
FE07C000
FE078000
FE078000
FE078000
FE000000
FE000000
FE000000
FE000000
FE000000
FE000000
FE000000
FE000000
FE000000
FE000000
FE000000
FE000000
FE000000
FE000000
FE000000
FE000000
FE000000
FE000000
FFFFFFFF
FFFFFFFF
FFFFFFFF
FFFFFFFF
FFFFFFFF
FFFFFFFF
ENDCHAR
STARTCHAR Ldot
ENCODING 319
SWIDTH 707 0
DWIDTH 36 0
BBX 32 37 3 0
BITMAP
FE000000
FE000000
FE000000
FE000000
FE000000
FE000000
FE000000
FE000000
FE000000
FE000000
FE000000
FE000000
FE000000
FE000000
FE000000
FE0F0000
FE0F0000
FE1F8000
FE0F0000
FE0F0000
FE000000
FE000000
FE000000
FE000000
FE000000
FE000000
FE000000
FE000000
FE000000
FE000000
FE000000
FFFFFFFF
FFFFFFFF
FFFFFFFF
FFFFFFFF
FFFFFFFF
FFFFFFFF
ENDCHAR
STARTCHAR ldot
ENCODING 320
SWIDTH 707 0
DWIDTH 36 0
BBX 32 37 3 0
BITMAP
FE000000
FE000000
FE000000
FE000000
FE000000
FE000000
FE000000
FE000000
FE000000
FE000000
FE000000
FE000000
FE000000
FE000000
FE000000
FE0F0000
FE0F0000
FE1F8000
FE0F0000
FE0F0000
FE000000
FE000000
FE000000
FE000000
FE000000
FE000000
FE000000
FE000000
FE000000
FE000000
FE000000
FFFFFFFF
FFFFFFFF
FFFFFFFF
FFFFFFFF
FFFFFFFF
FFFFFFFF
ENDCHAR
STARTCHAR Lslash
ENCODING 321
SWIDTH 707 0
DWIDTH 36 0
BBX 32 37 3 0
BITMAP
FE000000
FE000000
FE000000
FE000000
FE000000
FE000000
FE000000
FE000000
FE000000
FE000000
FE000800
FE003800
FE00F800
FE03F800
FE1FF800
FE7FF800
FFFFF000
FFFF8000
FFFE0000
FFF80000
FFC00000
FF000000
FE000000
FE000000
FE000000
FE000000
FE000000
FE000000
FE000000
FE000000
FE000000
FFFFFFFF
FFFFFFFF
FFFFFFFF
FFFFFFFF
FFFFFFFF
FFFFFFFF
ENDCHAR
STARTCHAR lslash
ENCODING 322
SWIDTH 707 0
DWIDTH 36 0
BBX 32 37 3 0
BITMAP
FE000000
FE000000
FE000000
FE000000
FE000000
FE000000
FE000000
FE000000
FE000000
FE000000
FE000800
FE003800
FE00F800
FE03F800
FE1FF800
FE7FF800
FFFFF000
FFFF8000
FFFE0000
FFF80000
FFC00000
FF000000
FE000000
FE000000
FE000000
FE000000
FE000000
FE000000
FE000000
FE000000
FE000000
FFFFFFFF
FFFFFFFF
FFFFFFFF
FFFFFFFF
FFFFFFFF
FFFFFFFF
ENDCHAR
STARTCHAR Nacute
ENCODING 323
SWIDTH 873 0
DWIDTH 45 0
BBX 38 46 3 0
BITMAP
0000006000
000003E000
00001FE000
0001FFE000
0003FF8000
0003F00000
0002000000
0000000000
0000000000
38000000FC
7C000000FC
FE000000FC
FF000000FC
FF800000FC
FFC00000FC
FFE00000FC
FFF00000FC
FFF80000FC
FFFC0000FC
FFFF0000FC
FDFF8000FC
FCFFC000FC
FC7FE000FC
FC1FF000FC
FC0FF800FC
FC07FC00FC
FC03FE00FC
FC01FF00FC
FC00FF80FC
FC007FC0FC
FC003FE0FC
FC001FF0FC
FC000FF8FC
FC0007FCFC
FC0003FEFC
FC0001FFFC
FC0000FFFC
FC00007FFC
FC00003FFC
FC00001FFC
FC00000FFC
FC000007FC
FC000003FC
FC000001FC
FC000000FC
FC00000078
ENDCHAR
STARTCHAR nacute
ENCODING 324
SWIDTH 873 0
DWIDTH 45 0
BBX 38 46 3 0
BITMAP
0000006000
000003E000
00001FE000
0001FFE000
0003FF8000
0003F00000
0002000000
0000000000
0000000000
38000000FC
7C000000FC
FE000000FC
FF000000FC
FF800000FC
FFC00000FC
FFE00000FC
FFF00000FC
FFF80000FC
FFFC0000FC
FFFF0000FC
FDFF8000FC
FCFFC000FC
FC7FE000FC
FC1FF000FC
FC0FF800FC
FC07FC00FC
FC03FE00FC
FC01FF00FC
FC00FF80FC
FC007FC0FC
FC003FE0FC
FC001FF0FC
FC000FF8FC
FC0007FCFC
FC0003FEFC
FC0001FFFC
FC0000FFFC
FC00007FFC
FC00003FFC
FC00001FFC
FC00000FFC
FC000007FC
FC000003FC
FC000001FC
FC000000FC
FC00000078
ENDCHAR
STARTCHAR Ncommaaccent
ENCODING 325
SWIDTH 873 0
DWIDTH 45 0
BBX 38 47 3 -10
BITMAP
38000000FC
7C000000FC
FE000000FC
FF000000FC
FF800000FC
FFC00000FC
FFE00000FC
FFF00000FC
FFF80000FC
FFFC0000FC
FFFF0000FC
FDFF8000FC
FCFFC000FC
FC7FE000FC
FC1FF000FC
FC0FF800FC
FC07FC00FC
FC03FE00FC
FC01FF00FC
FC00FF80FC
FC007FC0FC
FC003FE0FC
FC001FF0FC
FC000FF8FC
FC0007FCFC
FC0003FEFC
FC0001FFFC
FC0000FFFC
FC00007FFC
FC00003FFC
FC00001FFC
FC00000FFC
FC000007FC
FC000003FC
FC000001FC
FC000000FC
FC00000078
0000000000
0000000000
0000FE0000
0000FC0000
00007C0000
0000780000
0000380000
0000300000
0000100000
0000100000
ENDCHAR
STARTCHAR ncommaaccent
ENCODING 326
SWIDTH 873 0
DWIDTH 45 0
BBX 38 47 3 -10
BITMAP
38000000FC
7C000000FC
FE000000FC
FF000000FC
FF800000FC
FFC00000FC
FFE00000FC
FFF00000FC
FFF80000FC
FFFC0000FC
FFFF0000FC
FDFF8000FC
FCFFC000FC
FC7FE000FC
FC1FF000FC
FC0FF800FC
FC07FC00FC
FC03FE00FC
FC01FF00FC
FC00FF80FC
FC007FC0FC
FC003FE0FC
FC001FF0FC
FC000FF8FC
FC0007FCFC
FC0003FEFC
FC0001FFFC
FC0000FFFC
FC00007FFC
FC00003FFC
FC00001FFC
FC00000FFC
FC000007FC
FC000003FC
FC000001FC
FC000000FC
FC00000078
0000000000
0000000000
0000FE0000
0000FC0000
00007C0000
0000780000
0000380000
0000300000
0000100000
0000100000
ENDCHAR
STARTCHAR Ncaron
ENCODING 327
SWIDTH 873 0
DWIDTH 45 0
BBX 38 46 3 0
BITMAP
000F03C000
0007838000
0003878000
0001CF0000
0001EE0000
0000FE0000
00007C0000
0000000000
0000000000
38000000FC
7C000000FC
FE000000FC
FF000000FC
FF800000FC
FFC00000FC
FFE00000FC
FFF00000FC
FFF80000FC
FFFC0000FC
FFFF0000FC
FDFF8000FC
FCFFC000FC
FC7FE000FC
FC1FF000FC
FC0FF800FC
FC07FC00FC
FC03FE00FC
FC01FF00FC
FC00FF80FC
FC007FC0FC
FC003FE0FC
FC001FF0FC
FC000FF8FC
FC0007FCFC
FC0003FEFC
FC0001FFFC
FC0000FFFC
FC00007FFC
FC00003FFC
FC00001FFC
FC00000FFC
FC000007FC
FC000003FC
FC000001FC
FC000000FC
FC00000078
ENDCHAR
STARTCHAR ncaron
ENCODING 328
SWIDTH 873 0
DWIDTH 45 0
BBX 38 46 3 0
BITMAP
000F03C000
0007838000
0003878000
0001CF0000
0001EE0000
0000FE0000
00007C0000
0000000000
0000000000
38000000FC
7C000000FC
FE000000FC
FF000000FC
FF800000FC
FFC00000FC
FFE00000FC
FFF00000FC
FFF80000FC
FFFC0000FC
FFFF0000FC
FDFF8000FC
FCFFC000FC
FC7FE000FC
FC1FF000FC
FC0FF800FC
FC07FC00FC
FC03FE00FC
FC01FF00FC
FC00FF80FC
FC007FC0FC
FC003FE0FC
FC001FF0FC
FC000FF8FC
FC0007FCFC
FC0003FEFC
FC0001FFFC
FC0000FFFC
FC00007FFC
FC00003FFC
FC00001FFC
FC00000FFC
FC000007FC
FC000003FC
FC000001FC
FC000000FC
FC00000078
ENDCHAR
STARTCHAR Eng
ENCODING 330
SWIDTH 873 0
DWIDTH 45 0
BBX 38 47 3 -10
BITMAP
38000000FC
7C000000FC
FE000000FC
FF000000FC
FF800000FC
FFC00000FC
FFE00000FC
FFF00000FC
FFF80000FC
FFFC0000FC
FFFF0000FC
FDFF8000FC
FCFFC000FC
FC7FE000FC
FC3FF000FC
FC1FF800FC
FC0FFC00FC
FC07FE00FC
FC03FF00FC
FC01FF80FC
FC00FFC0FC
FC007FE0FC
FC003FF0FC
FC001FF8FC
FC000FFCFC
FC0007FEFC
FC0003FFFC
FC0001FFFC
FC0000FFFC
FC00007FFC
FC00003FFC
FC00001FFC
FC00000FFC
FC000007FC
FC000003FC
FC000001FC
FC000001FC
00000003FC
00000007FC
0000000FF8
0000007FF8
0001FFFFF0
0001FFFFE0
0001FFFFC0
0001FFFF80
0001FFFE00
0001FFF000
ENDCHAR
STARTCHAR eng
ENCODING 331
SWIDTH 873 0
DWIDTH 45 0
BBX 38 47 3 -10
BITMAP
38000000FC
7C000000FC
FE000000FC
FF000000FC
FF800000FC
FFC00000FC
FFE00000FC
FFF00000FC
FFF80000FC
FFFC0000FC
FFFF0000FC
FDFF8000FC
FCFFC000FC
FC7FE000FC
FC3FF000FC
FC1FF800FC
FC0FFC00FC
FC07FE00FC
FC03FF00FC
FC01FF80FC
FC00FFC0FC
FC007FE0FC
FC003FF0FC
FC001FF8FC
FC000FFCFC
FC0007FEFC
FC0003FFFC
FC0001FFFC
FC0000FFFC
FC00007FFC
FC00003FFC
FC00001FFC
FC00000FFC
FC000007FC
FC000003FC
FC000001FC
FC000001FC
00000003FC
00000007FC
0000000FF8
0000007FF8
0001FFFFF0
0001FFFFE0
0001FFFFC0
0001FFFF80
0001FFFE00
0001FFF000
ENDCHAR
STARTCHAR Omacron
ENCODING 332
SWIDTH 968 0
DWIDTH 49 0
BBX 45 44 2 0
BITMAP
0000FFF80000
0000FFF80000
0000FFF80000
000000000000
000000000000
000000000000
000000000000
0003FFFF0000
003FFFFFE000
00FFFFFFF800
01FFFFFFFC00
03FFFFFFFF00
07FFFFFFFF80
0FFFC01FFFC0
1FF80000FFC0
1FE000003FE0
3FC000001FE0
3F8000000FF0
7F80000007F0
7F00000007F8
7F00000003F8
FE00000003F8
FE00000001F8
FE00000001F8
FE00000001F8
FE00000001F8
FE00000001F8
FE00000001F8
FE00000003F8
7E00000003F8
7F00000003F8
7F00000007F0
7F80000007F0
3F8000000FF0
3FC000001FE0
1FF000003FE0
0FF80000FFC0
0FFFC00FFF80
07FFFFFFFF00
03FFFFFFFE00
01FFFFFFFC00
007FFFFFF000
001FFFFFE000
0003FFFE0000
ENDCHAR
STARTCHAR omacron
ENCODING 333
SWIDTH 968 0
DWIDTH 49 0
BBX 45 44 2 0
BITMAP
0000FFF80000
0000FFF80000
0000FFF80000
000000000000
000000000000
000000000000
000000000000
0003FFFF0000
003FFFFFE000
00FFFFFFF800
01FFFFFFFC00
03FFFFFFFF00
07FFFFFFFF80
0FFFC01FFFC0
1FF80000FFC0
1FE000003FE0
3FC000001FE0
3F8000000FF0
7F80000007F0
7F00000007F8
7F00000003F8
FE00000003F8
FE00000001F8
FE00000001F8
FE00000001F8
FE00000001F8
FE00000001F8
FE00000001F8
FE00000003F8
7E00000003F8
7F00000003F8
7F00000007F0
7F80000007F0
3F8000000FF0
3FC000001FE0
1FF000003FE0
0FF80000FFC0
0FFFC00FFF80
07FFFFFFFF00
03FFFFFFFE00
01FFFFFFFC00
007FFFFFF000
001FFFFFE000
0003FFFE0000
ENDCHAR
STARTCHAR Obreve
ENCODING 334
SWIDTH 968 0
DWIDTH 49 0
BBX 45 46 2 0
BITMAP
0000E03C0000
0000E03C0000
0000F0380000
0000F0780000
000078F00000
00003FF00000
00001FC00000
000000000000
000000000000
0003FFFF0000
003FFFFFE000
00FFFFFFF800
01FFFFFFFC00
03FFFFFFFF00
07FFFFFFFF80
0FFFC01FFFC0
1FF80000FFC0
1FE000003FE0
3FC000001FE0
3F8000000FF0
7F80000007F0
7F00000007F8
7F00000003F8
FE00000003F8
FE00000001F8
FE00000001F8
FE00000001F8
FE00000001F8
FE00000001F8
FE00000001F8
FE00000003F8
7E00000003F8
7F00000003F8
7F00000007F0
7F80000007F0
3F8000000FF0
3FC000001FE0
1FF000003FE0
0FF80000FFC0
0FFFC00FFF80
07FFFFFFFF00
03FFFFFFFE00
01FFFFFFFC00
007FFFFFF000
001FFFFFE000
0003FFFE0000
ENDCHAR
STARTCHAR obreve
ENCODING 335
SWIDTH 968 0
DWIDTH 49 0
BBX 45 46 2 0
BITMAP
0000E03C0000
0000E03C0000
0000F0380000
0000F0780000
000078F00000
00003FF00000
00001FC00000
000000000000
000000000000
0003FFFF0000
003FFFFFE000
00FFFFFFF800
01FFFFFFFC00
03FFFFFFFF00
07FFFFFFFF80
0FFFC01FFFC0
1FF80000FFC0
1FE000003FE0
3FC000001FE0
3F8000000FF0
7F80000007F0
7F00000007F8
7F00000003F8
FE00000003F8
FE00000001F8
FE00000001F8
FE00000001F8
FE00000001F8
FE00000001F8
FE00000001F8
FE00000003F8
7E00000003F8
7F00000003F8
7F00000007F0
7F80000007F0
3F8000000FF0
3FC000001FE0
1FF000003FE0
0FF80000FFC0
0FFFC00FFF80
07FFFFFFFF00
03FFFFFFFE00
01FFFFFFFC00
007FFFFFF000
001FFFFFE000
0003FFFE0000
ENDCHAR
STARTCHAR Ohungarumlaut
ENCODING 336
SWIDTH 968 0
DWIDTH 49 0
BBX 45 46 2 0
BITMAP
00001F1F0000
00001E1E0000
00003C3C0000
000038380000
000038380000
000070700000
000000000000
000000000000
000000000000
0003FFFF0000
003FFFFFE000
00FFFFFFF800
01FFFFFFFC00
03FFFFFFFF00
07FFFFFFFF80
0FFFC01FFFC0
1FF80000FFC0
1FE000003FE0
3FC000001FE0
3F8000000FF0
7F80000007F0
7F00000007F8
7F00000003F8
FE00000003F8
FE00000001F8
FE00000001F8
FE00000001F8
FE00000001F8
FE00000001F8
FE00000001F8
FE00000003F8
7E00000003F8
7F00000003F8
7F00000007F0
7F80000007F0
3F8000000FF0
3FC000001FE0
1FF000003FE0
0FF80000FFC0
0FFFC00FFF80
07FFFFFFFF00
03FFFFFFFE00
01FFFFFFFC00
007FFFFFF000
001FFFFFE000
0003FFFE0000
ENDCHAR
STARTCHAR ohungarumlaut
ENCODING 337
SWIDTH 968 0
DWIDTH 49 0
BBX 45 46 2 0
BITMAP
00001F1F0000
00001E1E0000
00003C3C0000
000038380000
000038380000
000070700000
000000000000
000000000000
000000000000
0003FFFF0000
003FFFFFE000
00FFFFFFF800
01FFFFFFFC00
03FFFFFFFF00
07FFFFFFFF80
0FFFC01FFFC0
1FF80000FFC0
1FE000003FE0
3FC000001FE0
3F8000000FF0
7F80000007F0
7F00000007F8
7F00000003F8
FE00000003F8
FE00000001F8
FE00000001F8
FE00000001F8
FE00000001F8
FE00000001F8
FE00000001F8
FE00000003F8
7E00000003F8
7F00000003F8
7F00000007F0
7F80000007F0
3F8000000FF0
3FC000001FE0
1FF000003FE0
0FF80000FFC0
0FFFC00FFF80
07FFFFFFFF00
03FFFFFFFE00
01FFFFFFFC00
007FFFFFF000
001FFFFFE000
0003FFFE0000
ENDCHAR
STARTCHAR OE
ENCODING 338
SWIDTH 1304 0
DWIDTH 67 0
BBX 62 37 2 0
BITMAP
0003FFFFFFFFFFFC
003FFFFFFFFFFFFC
00FFFFFFFFFFFFFC
01FFFFFFFFFFFFFC
03FFFFFFFFFFFFFC
07FFFFFFFFFFFFFC
0FFFC003F8000000
1FF80003F8000000
1FE00003F8000000
3FC00003F8000000
3F800003F8000000
7F800003F8000000
7F000003F8000000
7F000003F8000000
FE000003F8000000
FE000003F8000000
FE000003F83FFFF8
FE000003F83FFFF8
FE000003F83FFFF8
FE000003F83FFFF8
FE000003F83FFFF8
FE000003F8000000
7E000003F8000000
7F000003F8000000
7F000003F8000000
7F800003F8000000
3F800003F8000000
3FC00003F8000000
1FF00003F8000000
0FF80003F8000000
0FFFC003F8000000
07FFFFFFFFFFFFFC
03FFFFFFFFFFFFFC
01FFFFFFFFFFFFFC
007FFFFFFFFFFFFC
001FFFFFFFFFFFFC
0003FFFFFFFFFFFC
ENDCHAR
STARTCHAR oe
ENCODING 339
SWIDTH 1304 0
DWIDTH 67 0
BBX 62 37 2 0
BITMAP
0003FFFFFFFFFFFC
003FFFFFFFFFFFFC
00FFFFFFFFFFFFFC
01FFFFFFFFFFFFFC
03FFFFFFFFFFFFFC
07FFFFFFFFFFFFFC
0FFFC003F8000000
1FF80003F8000000
1FE00003F8000000
3FC00003F8000000
3F800003F8000000
7F800003F8000000
7F000003F8000000
7F000003F8000000
FE000003F8000000
FE000003F8000000
FE000003F83FFFF8
FE000003F83FFFF8
FE000003F83FFFF8
FE000003F83FFFF8
FE000003F83FFFF8
FE000003F8000000
7E000003F8000000
7F000003F8000000
7F000003F8000000
7F800003F8000000
3F800003F8000000
3FC00003F8000000
1FF00003F8000000
0FF80003F8000000
0FFFC003F8000000
07FFFFFFFFFFFFFC
03FFFFFFFFFFFFFC
01FFFFFFFFFFFFFC
007FFFFFFFFFFFFC
001FFFFFFFFFFFFC
0003FFFFFFFFFFFC
ENDCHAR
STARTCHAR Racute
ENCODING 340
SWIDTH 921 0
DWIDTH 47 0
BBX 44 46 3 0
BITMAP
000000C00000
000007C00000
00003FC00000
0003FFC00000
0007FF000000
0007E0000000
000400000000
000000000000
000000000000
FFFFFFFE0000
FFFFFFFFC000
FFFFFFFFE000
FFFFFFFFF800
FFFFFFFFF800
FFFFFFFFFC00
FE00001FFE00
FE000001FE00
FE000000FF00
FE0000007F00
FE0000007F00
FE0000003F00
FE0000003F00
FE0000003F00
FE0000003F00
FE0000003F00
FE0000003F00
FE0000007F00
FE0000007F00
FE000000FE00
FE000003FE00
FE1FFFFFFC00
FE1FFFFFF800
FE1FFFFFF800
FE1FFFFFE000
FE1FFFFFC000
FE1FFFFF8000
FE00003FC000
FE00001FE000
FE00000FF000
FE000007F800
FE000007FC00
FE000003FE00
FE000001FF00
FE000000FF80
FE0000007FC0
FE0000003FF0
ENDCHAR
STARTCHAR racute
ENCODING 341
SWIDTH 921 0
DWIDTH 47 0
BBX 44 46 3 0
BITMAP
000000C00000
000007C00000
00003FC00000
0003FFC00000
0007FF000000
0007E0000000
000400000000
000000000000
000000000000
FFFFFFFE0000
FFFFFFFFC000
FFFFFFFFE000
FFFFFFFFF800
FFFFFFFFF800
FFFFFFFFFC00
FE00001FFE00
FE000001FE00
FE000000FF00
FE0000007F00
FE0000007F00
FE0000003F00
FE0000003F00
FE0000003F00
FE0000003F00
FE0000003F00
FE0000003F00
FE0000007F00
FE0000007F00
FE000000FE00
FE000003FE00
FE1FFFFFFC00
FE1FFFFFF800
FE1FFFFFF800
FE1FFFFFE000
FE1FFFFFC000
FE1FFFFF8000
FE00003FC000
FE00001FE000
FE00000FF000
FE000007F800
FE000007FC00
FE000003FE00
FE000001FF00
FE000000FF80
FE0000007FC0
FE0000003FF0
ENDCHAR
STARTCHAR Rcommaaccent
ENCODING 342
SWIDTH 921 0
DWIDTH 47 0
BBX 44 47 3 -10
BITMAP
FFFFFFFE0000
FFFFFFFFC000
FFFFFFFFE000
FFFFFFFFF800
FFFFFFFFF800
FFFFFFFFFC00
FE00001FFE00
FE000001FE00
FE000000FF00
FE0000007F00
FE0000007F00
FE0000003F00
FE0000003F00
FE0000003F00
FE0000003F00
FE0000003F00
FE0000003F00
FE0000007F00
FE0000007F00
FE000000FE00
FE000003FE00
FE1FFFFFFC00
FE1FFFFFF800
FE1FFFFFF800
FE1FFFFFE000
FE1FFFFFC000
FE1FFFFF8000
FE00003FC000
FE00001FE000
FE00000FF000
FE000007F800
FE000007FC00
FE000003FE00
FE000001FF00
FE000000FF80
FE0000007FC0
FE0000003FF0
000000000000
000000000000
00007F000000
00003E000000
00003E000000
00001C000000
00001C000000
00001C000000
000008000000
000008000000
ENDCHAR
STARTCHAR rcommaaccent
ENCODING 343
SWIDTH 921 0
DWIDTH 47 0
BBX 44 47 3 -10
BITMAP
FFFFFFFE0000
FFFFFFFFC000
FFFFFFFFE000
FFFFFFFFF800
FFFFFFFFF800
FFFFFFFFFC00
FE00001FFE00
FE000001FE00
FE000000FF00
FE0000007F00
FE0000007F00
FE0000003F00
FE0000003F00
FE0000003F00
FE0000003F00
FE0000003F00
FE0000003F00
FE0000007F00
FE0000007F00
FE000000FE00
FE000003FE00
FE1FFFFFFC00
FE1FFFFFF800
FE1FFFFFF800
FE1FFFFFE000
FE1FFFFFC000
FE1FFFFF8000
FE00003FC000
FE00001FE000
FE00000FF000
FE000007F800
FE000007FC00
FE000003FE00
FE000001FF00
FE000000FF80
FE0000007FC0
FE0000003FF0
000000000000
000000000000
00007F000000
00003E000000
00003E000000
00001C000000
00001C000000
00001C000000
000008000000
000008000000
ENDCHAR
STARTCHAR Rcaron
ENCODING 344
SWIDTH 921 0
DWIDTH 47 0
BBX 44 46 3 0
BITMAP
001E03800000
000F07000000
00078F000000
00038E000000
0003DC000000
0001FC000000
0000F8000000
000000000000
000000000000
FFFFFFFE0000
FFFFFFFFC000
FFFFFFFFE000
FFFFFFFFF800
FFFFFFFFF800
FFFFFFFFFC00
FE00001FFE00
FE000001FE00
FE000000FF00
FE0000007F00
FE0000007F00
FE0000003F00
FE0000003F00
FE0000003F00
FE0000003F00
FE0000003F00
FE0000003F00
FE0000007F00
FE0000007F00
FE000000FE00
FE000003FE00
FE1FFFFFFC00
FE1FFFFFF800
FE1FFFFFF800
FE1FFFFFE000
FE1FFFFFC000
FE1FFFFF8000
FE00003FC000
FE00001FE000
FE00000FF000
FE000007F800
FE000007FC00
FE000003FE00
FE000001FF00
FE000000FF80
FE0000007FC0
FE0000003FF0
ENDCHAR
STARTCHAR rcaron
ENCODING 345
SWIDTH 921 0
DWIDTH 47 0
BBX 44 46 3 0
BITMAP
001E03800000
000F07000000
00078F000000
00038E000000
0003DC000000
0001FC000000
0000F8000000
000000000000
000000000000
FFFFFFFE0000
FFFFFFFFC000
FFFFFFFFE000
FFFFFFFFF800
FFFFFFFFF800
FFFFFFFFFC00
FE00001FFE00
FE000001FE00
FE000000FF00
FE0000007F00
FE0000007F00
FE0000003F00
FE0000003F00
FE0000003F00
FE0000003F00
FE0000003F00
FE0000003F00
FE0000007F00
FE0000007F00
FE000000FE00
FE000003FE00
FE1FFFFFFC00
FE1FFFFFF800
FE1FFFFFF800
FE1FFFFFE000
FE1FFFFFC000
FE1FFFFF8000
FE00003FC000
FE00001FE000
FE00000FF000
FE000007F800
FE000007FC00
FE000003FE00
FE000001FF00
FE000000FF80
FE0000007FC0
FE0000003FF0
ENDCHAR
STARTCHAR Sacute
ENCODING 346
SWIDTH 880 0
DWIDTH 45 0
BBX 40 46 3 0
BITMAP
0000007000
000003F000
00001FF000
0001FFF000
0003FF8000
0003F00000
0002000000
0000000000
0000000000
01FFFFFFFC
07FFFFFFFC
1FFFFFFFFC
3FFFFFFFFC
7FFFFFFFFC
7FFFFFFFFC
FFE0000000
FF00000000
FE00000000
FE00000000
FC00000000
FC00000000
FE00000000
FE00000000
FE00000000
7F80000000
7FFFFFFF00
3FFFFFFFE0
1FFFFFFFF8
07FFFFFFF8
01FFFFFFFC
00000001FE
00000000FE
000000007E
000000007E
000000007F
000000007F
000000007F
000000007E
00000000FE
0000000FFE
FFFFFFFFFC
FFFFFFFFFC
FFFFFFFFF8
FFFFFFFFF0
FFFFFFFFE0
FFFFFFFF00
ENDCHAR
STARTCHAR sacute
ENCODING 347
SWIDTH 880 0
DWIDTH 45 0
BBX 40 46 3 0
BITMAP
0000007000
000003F000
00001FF000
0001FFF000
0003FF8000
0003F00000
0002000000
0000000000
0000000000
01FFFFFFFC
07FFFFFFFC
1FFFFFFFFC
3FFFFFFFFC
7FFFFFFFFC
7FFFFFFFFC
FFE0000000
FF00000000
FE00000000
FE00000000
FC00000000
FC00000000
FE00000000
FE00000000
FE00000000
7F80000000
7FFFFFFF00
3FFFFFFFE0
1FFFFFFFF8
07FFFFFFF8
01FFFFFFFC
00000001FE
00000000FE
000000007E
000000007E
000000007F
000000007F
000000007F
000000007E
00000000FE
0000000FFE
FFFFFFFFFC
FFFFFFFFFC
FFFFFFFFF8
FFFFFFFFF0
FFFFFFFFE0
FFFFFFFF00
ENDCHAR
STARTCHAR Scedilla
ENCODING 350
SWIDTH 880 0
DWIDTH 45 0
BBX 40 47 3 -10
BITMAP
01FFFFFFFC
07FFFFFFFC
1FFFFFFFFC
3FFFFFFFFC
7FFFFFFFFC
7FFFFFFFFC
FFE0000000
FF00000000
FE00000000
FE00000000
FC00000000
FC00000000
FE00000000
FE00000000
FE00000000
7F80000000
7FFFFFFF00
3FFFFFFFE0
1FFFFFFFF8
07FFFFFFF8
01FFFFFFFC
00000001FE
00000000FE
000000007E
000000007E
000000007F
000000007F
000000007F
000000007E
00000000FE
0000000FFE
FFFFFFFFFC
FFFFFFFFFC
FFFFFFFFF8
FFFFFFFFF0
FFFFFFFFE0
FFFFFFFF00
0000000000
0000000000
0000FE0000
00007C0000
00007C0000
0000380000
0000380000
0000300000
0000100000
0000100000
ENDCHAR
STARTCHAR scedilla
ENCODING 351
SWIDTH 880 0
DWIDTH 45 0
BBX 40 47 3 -10
BITMAP
01FFFFFFFC
07FFFFFFFC
1FFFFFFFFC
3FFFFFFFFC
7FFFFFFFFC
7FFFFFFFFC
FFE0000000
FF00000000
FE00000000
FE00000000
FC00000000
FC00000000
FE00000000
FE00000000
FE00000000
7F80000000
7FFFFFFF00
3FFFFFFFE0
1FFFFFFFF8
07FFFFFFF8
01FFFFFFFC
00000001FE
00000000FE
000000007E
000000007E
000000007F
000000007F
000000007F
000000007E
00000000FE
0000000FFE
FFFFFFFFFC
FFFFFFFFFC
FFFFFFFFF8
FFFFFFFFF0
FFFFFFFFE0
FFFFFFFF00
0000000000
0000000000
0000FE0000
00007C0000
00007C0000
0000380000
0000380000
0000300000
0000100000
0000100000
ENDCHAR
STARTCHAR Scaron
ENCODING 352
SWIDTH 880 0
DWIDTH 45 0
BBX 40 46 3 0
BITMAP
000781E000
000383C000
0001C38000
0001E78000
0000E70000
00007E0000
00007E0000
0000000000
0000000000
01FFFFFFFC
07FFFFFFFC
1FFFFFFFFC
3FFFFFFFFC
7FFFFFFFFC
7FFFFFFFFC
FFE0000000
FF00000000
FE00000000
FE00000000
FC00000000
FC00000000
FE00000000
FE00000000
FE00000000
7F80000000
7FFFFFFF00
3FFFFFFFE0
1FFFFFFFF8
07FFFFFFF8
01FFFFFFFC
00000001FE
00000000FE
000000007E
000000007E
000000007F
000000007F
000000007F
000000007E
00000000FE
0000000FFE
FFFFFFFFFC
FFFFFFFFFC
FFFFFFFFF8
FFFFFFFFF0
FFFFFFFFE0
FFFFFFFF00
ENDCHAR
STARTCHAR scaron
ENCODING 353
SWIDTH 880 0
DWIDTH 45 0
BBX 40 46 3 0
BITMAP
000781E000
000383C000
0001C38000
0001E78000
0000E70000
00007E0000
00007E0000
0000000000
0000000000
01FFFFFFFC
07FFFFFFFC
1FFFFFFFFC
3FFFFFFFFC
7FFFFFFFFC
7FFFFFFFFC
FFE0000000
FF00000000
FE00000000
FE00000000
FC00000000
FC00000000
FE00000000
FE00000000
FE00000000
7F80000000
7FFFFFFF00
3FFFFFFFE0
1FFFFFFFF8
07FFFFFFF8
01FFFFFFFC
00000001FE
00000000FE
000000007E
000000007E
000000007F
000000007F
000000007F
000000007E
00000000FE
0000000FFE
FFFFFFFFFC
FFFFFFFFFC
FFFFFFFFF8
FFFFFFFFF0
FFFFFFFFE0
FFFFFFFF00
ENDCHAR
STARTCHAR Tcommaaccent
ENCODING 354
SWIDTH 720 0
DWIDTH 37 0
BBX 35 47 1 -10
BITMAP
FFFFFFFFE0
FFFFFFFFE0
FFFFFFFFE0
FFFFFFFFE0
FFFFFFFFE0
FFFFFFFFE0
0003F80000
0003F80000
0003F80000
0003F80000
0003F80000
0003F80000
0003F80000
0003F80000
0003F80000
0003F80000
0003F80000
0003F80000
0003F80000
0003F80000
0003F80000
0003F80000
0003F80000
0003F80000
0003F80000
0003F80000
0003F80000
0003F80000
0003F80000
0003F80000
0003F80000
0003F80000
0003F80000
0003F80000
0003F80000
0003F80000
0003F80000
0000000000
0000000000
0003F80000
0001F00000
0001F00000
0001E00000
0000E00000
0000C00000
0000400000
0000400000
ENDCHAR
STARTCHAR tcommaaccent
ENCODING 355
SWIDTH 720 0
DWIDTH 37 0
BBX 35 47 1 -10
BITMAP
FFFFFFFFE0
FFFFFFFFE0
FFFFFFFFE0
FFFFFFFFE0
FFFFFFFFE0
FFFFFFFFE0
0003F80000
0003F80000
0003F80000
0003F80000
0003F80000
0003F80000
0003F80000
0003F80000
0003F80000
0003F80000
0003F80000
0003F80000
0003F80000
0003F80000
0003F80000
0003F80000
0003F80000
0003F80000
0003F80000
0003F80000
0003F80000
0003F80000
0003F80000
0003F80000
0003F80000
0003F80000
0003F80000
0003F80000
0003F80000
0003F80000
0003F80000
0000000000
0000000000
0003F80000
0001F00000
0001F00000
0001E00000
0000E00000
0000C00000
0000400000
0000400000
ENDCHAR
STARTCHAR Tcaron
ENCODING 356
SWIDTH 720 0
DWIDTH 37 0
BBX 35 46 1 0
BITMAP
003C0F0000
001E0E0000
000E1E0000
00071C0000
0007B80000
0003F80000
0001F00000
0000000000
0000000000
FFFFFFFFE0
FFFFFFFFE0
FFFFFFFFE0
FFFFFFFFE0
FFFFFFFFE0
FFFFFFFFE0
0003F80000
0003F80000
0003F80000
0003F80000
0003F80000
0003F80000
0003F80000
0003F80000
0003F80000
0003F80000
0003F80000
0003F80000
0003F80000
0003F80000
0003F80000
0003F80000
0003F80000
0003F80000
0003F80000
0003F80000
0003F80000
0003F80000
0003F80000
0003F80000
0003F80000
0003F80000
0003F80000
0003F80000
0003F80000
0003F80000
0003F80000
ENDCHAR
STARTCHAR tcaron
ENCODING 357
SWIDTH 720 0
DWIDTH 37 0
BBX 35 46 1 0
BITMAP
003C0F0000
001E0E0000
000E1E0000
00071C0000
0007B80000
0003F80000
0001F00000
0000000000
0000000000
FFFFFFFFE0
FFFFFFFFE0
FFFFFFFFE0
FFFFFFFFE0
FFFFFFFFE0
FFFFFFFFE0
0003F80000
0003F80000
0003F80000
0003F80000
0003F80000
0003F80000
0003F80000
0003F80000
0003F80000
0003F80000
0003F80000
0003F80000
0003F80000
0003F80000
0003F80000
0003F80000
0003F80000
0003F80000
0003F80000
0003F80000
0003F80000
0003F80000
0003F80000
0003F80000
0003F80000
0003F80000
0003F80000
0003F80000
0003F80000
0003F80000
0003F80000
ENDCHAR
STARTCHAR Tbar
ENCODING 358
SWIDTH 720 0
DWIDTH 37 0
BBX 35 37 1 0
BITMAP
FFFFFFFFE0
FFFFFFFFE0
FFFFFFFFE0
FFFFFFFFE0
FFFFFFFFE0
FFFFFFFFE0
0003F80000
0003F80000
0003F80000
0003F80000
0003F80000
0003F80000
0003F80000
0003F80000
0003F80000
0003F80000
0003F80000
0003F80000
0003F80000
0003F80000
00FFFFE000
00FFFFE000
00FFFFE000
00FFFFE000
0003F80000
0003F80000
0003F80000
0003F80000
0003F80000
0003F80000
0003F80000
0003F80000
0003F80000
0003F80000
0003F80000
0003F80000
0003F80000
ENDCHAR
STARTCHAR tbar
ENCODING 359
SWIDTH 720 0
DWIDTH 37 0
BBX 35 37 1 0
BITMAP
FFFFFFFFE0
FFFFFFFFE0
FFFFFFFFE0
FFFFFFFFE0
FFFFFFFFE0
FFFFFFFFE0
0003F80000
0003F80000
0003F80000
0003F80000
0003F80000
0003F80000
0003F80000
0003F80000
0003F80000
0003F80000
0003F80000
0003F80000
0003F80000
0003F80000
00FFFFE000
00FFFFE000
00FFFFE000
00FFFFE000
0003F80000
0003F80000
0003F80000
0003F80000
0003F80000
0003F80000
0003F80000
0003F80000
0003F80000
0003F80000
0003F80000
0003F80000
0003F80000
ENDCHAR
STARTCHAR Utilde
ENCODING 360
SWIDTH 889 0
DWIDTH 45 0
BBX 40 45 3 0
BITMAP
0001C02000
0007F04000
0007FFC000
00063FC000
0004078000
0000000000
0000000000
0000000000
FC0000007F
FC0000007F
FC0000007F
FC0000007F
FC0000007F
FC0000007F
FC0000007F
FC0000007F
FC0000007F
FC0000007F
FC0000007F
FC0000007F
FC0000007F
FC0000007F
FC0000007F
FC0000007F
FC0000007F
FC0000007F
FC0000007F
FC0000007F
FC0000007F
FC0000007F
FC0000007F
FE0000007F
FE0000007E
FE0000007E
FF000000FE
7F000001FE
7F800003FC
7FE00007FC
3FFC003FF8
1FFFFFFFF8
1FFFFFFFF0
0FFFFFFFE0
03FFFFFF80
00FFFFFF00
001FFFF800
ENDCHAR
STARTCHAR utilde
ENCODING 361
SWIDTH 889 0
DWIDTH 45 0
BBX 40 45 3 0
BITMAP
0001C02000
0007F04000
0007FFC000
00063FC000
0004078000
0000000000
0000000000
0000000000
FC0000007F
FC0000007F
FC0000007F
FC0000007F
FC0000007F
FC0000007F
FC0000007F
FC0000007F
FC0000007F
FC0000007F
FC0000007F
FC0000007F
FC0000007F
FC0000007F
FC0000007F
FC0000007F
FC0000007F
FC0000007F
FC0000007F
FC0000007F
FC0000007F
FC0000007F
FC0000007F
FE0000007F
FE0000007E
FE0000007E
FF000000FE
7F000001FE
7F800003FC
7FE00007FC
3FFC003FF8
1FFFFFFFF8
1FFFFFFFF0
0FFFFFFFE0
03FFFFFF80
00FFFFFF00
001FFFF800
ENDCHAR
STARTCHAR Umacron
ENCODING 362
SWIDTH 889 0
DWIDTH 45 0
BBX 40 44 3 0
BITMAP
0007FFC000
0007FFC000
0007FFC000
0000000000
0000000000
0000000000
0000000000
FC0000007F
FC0000007F
FC0000007F
FC0000007F
FC0000007F
FC0000007F
FC0000007F
FC0000007F
FC0000007F
FC0000007F
FC0000007F
FC0000007F
FC0000007F
FC0000007F
FC0000007F
FC0000007F
FC0000007F
FC0000007F
FC0000007F
FC0000007F
FC0000007F
FC0000007F
FC0000007F
FE0000007F
FE0000007E
FE0000007E
FF000000FE
7F000001FE
7F800003FC
7FE00007FC
3FFC003FF8
1FFFFFFFF8
1FFFFFFFF0
0FFFFFFFE0
03FFFFFF80
00FFFFFF00
001FFFF800
ENDCHAR
STARTCHAR umacron
ENCODING 363
SWIDTH 889 0
DWIDTH 45 0
BBX 40 44 3 0
BITMAP
0007FFC000
0007FFC000
0007FFC000
0000000000
0000000000
0000000000
0000000000
FC0000007F
FC0000007F
FC0000007F
FC0000007F
FC0000007F
FC0000007F
FC0000007F
FC0000007F
FC0000007F
FC0000007F
FC0000007F
FC0000007F
FC0000007F
FC0000007F
FC0000007F
FC0000007F
FC0000007F
FC0000007F
FC0000007F
FC0000007F
FC0000007F
FC0000007F
FC0000007F
FE0000007F
FE0000007E
FE0000007E
FF000000FE
7F000001FE
7F800003FC
7FE00007FC
3FFC003FF8
1FFFFFFFF8
1FFFFFFFF0
0FFFFFFFE0
03FFFFFF80
00FFFFFF00
001FFFF800
ENDCHAR
STARTCHAR Ubreve
ENCODING 364
SWIDTH 889 0
DWIDTH 45 0
BBX 40 46 3 0
BITMAP
000701E000
000701E000
000781C000
000783C000
0003C78000
0001FF8000
0000FE0000
0000000000
0000000000
FC0000007F
FC0000007F
FC0000007F
FC0000007F
FC0000007F
FC0000007F
FC0000007F
FC0000007F
FC0000007F
FC0000007F
FC0000007F
FC0000007F
FC0000007F
FC0000007F
FC0000007F
FC0000007F
FC0000007F
FC0000007F
FC0000007F
FC0000007F
FC0000007F
FC0000007F
FC0000007F
FE0000007F
FE0000007E
FE0000007E
FF000000FE
7F000001FE
7F800003FC
7FE00007FC
3FFC003FF8
1FFFFFFFF8
1FFFFFFFF0
0FFFFFFFE0
03FFFFFF80
00FFFFFF00
001FFFF800
ENDCHAR
STARTCHAR ubreve
ENCODING 365
SWIDTH 889 0
DWIDTH 45 0
BBX 40 46 3 0
BITMAP
000701E000
000701E000
000781C000
000783C000
0003C78000
0001FF8000
0000FE0000
0000000000
0000000000
FC0000007F
FC0000007F
FC0000007F
FC0000007F
FC0000007F
FC0000007F
FC0000007F
FC0000007F
FC0000007F
FC0000007F
FC0000007F
FC0000007F
FC0000007F
FC0000007F
FC0000007F
FC0000007F
FC0000007F
FC0000007F
FC0000007F
FC0000007F
FC0000007F
FC0000007F
FC0000007F
FE0000007F
FE0000007E
FE0000007E
FF000000FE
7F000001FE
7F800003FC
7FE00007FC
3FFC003FF8
1FFFFFFFF8
1FFFFFFFF0
0FFFFFFFE0
03FFFFFF80
00FFFFFF00
001FFFF800
ENDCHAR
STARTCHAR Uring
ENCODING 366
SWIDTH 889 0
DWIDTH 45 0
BBX 40 49 3 0
BITMAP
0000FE0000
0003FF8000
000301C000
000600C000
000600C000
000600C000
000600C000
000301C000
0001FF8000
0000FE0000
0000000000
0000000000
FC0000007F
FC0000007F
FC0000007F
FC0000007F
FC0000007F
FC0000007F
FC0000007F
FC0000007F
FC0000007F
FC0000007F
FC0000007F
FC0000007F
FC0000007F
FC0000007F
FC0000007F
FC0000007F
FC0000007F
FC0000007F
FC0000007F
FC0000007F
FC0000007F
FC0000007F
FC0000007F
FE0000007F
FE0000007E
FE0000007E
FF000000FE
7F000001FE
7F800003FC
7FE00007FC
3FFC003FF8
1FFFFFFFF8
1FFFFFFFF0
0FFFFFFFE0
03FFFFFF80
00FFFFFF00
001FFFF800
ENDCHAR
STARTCHAR uring
ENCODING 367
SWIDTH 889 0
DWIDTH 45 0
BBX 40 49 3 0
BITMAP
0000FE0000
0003FF8000
000301C000
000600C000
000600C000
000600C000
000600C000
000301C000
0001FF8000
0000FE0000
0000000000
0000000000
FC0000007F
FC0000007F
FC0000007F
FC0000007F
FC0000007F
FC0000007F
FC0000007F
FC0000007F
FC0000007F
FC0000007F
FC0000007F
FC0000007F
FC0000007F
FC0000007F
FC0000007F
FC0000007F
FC0000007F
FC0000007F
FC0000007F
FC0000007F
FC0000007F
FC0000007F
FC0000007F
FE0000007F
FE0000007E
FE0000007E
FF000000FE
7F000001FE
7F800003FC
7FE00007FC
3FFC003FF8
1FFFFFFFF8
1FFFFFFFF0
0FFFFFFFE0
03FFFFFF80
00FFFFFF00
001FFFF800
ENDCHAR
STARTCHAR Uhungarumlaut
ENCODING 368
SWIDTH 889 0
DWIDTH 45 0
BBX 40 46 3 0
BITMAP
0000F8F800
0000F0F000
0001E1E000
0001C1C000
0001C1C000
0003838000
0000000000
0000000000
0000000000
FC0000007F
FC0000007F
FC0000007F
FC0000007F
FC0000007F
FC0000007F
FC0000007F
FC0000007F
FC0000007F
FC0000007F
FC0000007F
FC0000007F
FC0000007F
FC0000007F
FC0000007F
FC0000007F
FC0000007F
FC0000007F
FC0000007F
FC0000007F
FC0000007F
FC0000007F
FC0000007F
FE0000007F
FE0000007E
FE0000007E
FF000000FE
7F000001FE
7F800003FC
7FE00007FC
3FFC003FF8
1FFFFFFFF8
1FFFFFFFF0
0FFFFFFFE0
03FFFFFF80
00FFFFFF00
001FFFF800
ENDCHAR
STARTCHAR uhungarumlaut
ENCODING 369
SWIDTH 889 0
DWIDTH 45 0
BBX 40 46 3 0
BITMAP
0000F8F800
0000F0F000
0001E1E000
0001C1C000
0001C1C000
0003838000
0000000000
0000000000
0000000000
FC0000007F
FC0000007F
FC0000007F
FC0000007F
FC0000007F
FC0000007F
FC0000007F
FC0000007F
FC0000007F
FC0000007F
FC0000007F
FC0000007F
FC0000007F
FC0000007F
FC0000007F
FC0000007F
FC0000007F
FC0000007F
FC0000007F
FC0000007F
FC0000007F
FC0000007F
FC0000007F
FE0000007F
FE0000007E
FE0000007E
FF000000FE
7F000001FE
7F800003FC
7FE00007FC
3FFC003FF8
1FFFFFFFF8
1FFFFFFFF0
0FFFFFFFE0
03FFFFFF80
00FFFFFF00
001FFFF800
ENDCHAR
STARTCHAR Uogonek
ENCODING 370
SWIDTH 889 0
DWIDTH 45 0
BBX 40 47 3 -10
BITMAP
FC0000007F
FC0000007F
FC0000007F
FC0000007F
FC0000007F
FC0000007F
FC0000007F
FC0000007F
FC0000007F
FC0000007F
FC0000007F
FC0000007F
FC0000007F
FC0000007F
FC0000007F
FC0000007F
FC0000007F
FC0000007F
FC0000007F
FC0000007F
FC0000007F
FC0000007F
FC0000007F
FE0000007F
FE0000007E
FE0000007E
FF000000FE
7F000001FE
7F800003FC
7FE00007FC
3FFC003FF8
1FFFFFFFF8
1FFFFFFFF0
0FFFFFFFE0
03FFFFFFC0
00FFFFFF00
001FFFF800
0000070000
00001C0000
0000380000
0000E00000
0001E00000
0001E00000
0001FF0000
0001FF0000
0000FF0000
00007F0000
ENDCHAR
STARTCHAR uogonek
ENCODING 371
SWIDTH 889 0
DWIDTH 45 0
BBX 40 47 3 -10
BITMAP
FC0000007F
FC0000007F
FC0000007F
FC0000007F
FC0000007F
FC0000007F
FC0000007F
FC0000007F
FC0000007F
FC0000007F
FC0000007F
FC0000007F
FC0000007F
FC0000007F
FC0000007F
FC0000007F
FC0000007F
FC0000007F
FC0000007F
FC0000007F
FC0000007F
FC0000007F
FC0000007F
FE0000007F
FE0000007E
FE0000007E
FF000000FE
7F000001FE
7F800003FC
7FE00007FC
3FFC003FF8
1FFFFFFFF8
1FFFFFFFF0
0FFFFFFFE0
03FFFFFFC0
00FFFFFF00
001FFFF800
0000070000
00001C0000
0000380000
0000E00000
0001E00000
0001E00000
0001FF0000
0001FF0000
0000FF0000
00007F0000
ENDCHAR
STARTCHAR Wcircumflex
ENCODING 372
SWIDTH 1268 0
DWIDTH 65 0
BBX 63 47 1 -1
BITMAP
00000007C0000000
0000000FE0000000
0000001EE0000000
0000001CF0000000
0000003878000000
0000007838000000
000000F03C000000
0000000000000000
0000000000000000
FF003FC0000001FE
7F001FE0000001FC
7F800FE0000003FC
3F800FF0000003F8
3FC007F0000007F8
1FC007F8000007F0
1FE003F800000FE0
0FE003FC00000FE0
0FF001FC00001FC0
07F001FE00001FC0
07F800FE00003F80
03F800FF00003F80
03FC007F00007F00
01FC007F80007F00
01FE003F8000FE00
00FF003FC000FE00
007F001FC001FC00
007F801FE001FC00
003F800FE003F800
003FC00FF007F800
001FC01FF007F000
001FE01FF80FE000
000FE03FF80FE000
000FF07FFC1FC000
0007F07FFC1FC000
0007F8FEFE3F8000
0003F8FEFE3F8000
0003FDFC7F7F0000
0001FDFC7F7F0000
0001FFF83FFE0000
0000FFF03FFE0000
00007FF01FFC0000
00007FE01FFC0000
00003FE00FF80000
00003FC00FF80000
00001FC007F00000
00001F8007E00000
00000F0003C00000
ENDCHAR
STARTCHAR wcircumflex
ENCODING 373
SWIDTH 1268 0
DWIDTH 65 0
BBX 63 47 1 -1
BITMAP
00000007C0000000
0000000FE0000000
0000001EE0000000
0000001CF0000000
0000003878000000
0000007838000000
000000F03C000000
0000000000000000
0000000000000000
FF003FC0000001FE
7F001FE0000001FC
7F800FE0000003FC
3F800FF0000003F8
3FC007F0000007F8
1FC007F8000007F0
1FE003F800000FE0
0FE003FC00000FE0
0FF001FC00001FC0
07F001FE00001FC0
07F800FE00003F80
03F800FF00003F80
03FC007F00007F00
01FC007F80007F00
01FE003F8000FE00
00FF003FC000FE00
007F001FC001FC00
007F801FE001FC00
003F800FE003F800
003FC00FF007F800
001FC01FF007F000
001FE01FF80FE000
000FE03FF80FE000
000FF07FFC1FC000
0007F07FFC1FC000
0007F8FEFE3F8000
0003F8FEFE3F8000
0003FDFC7F7F0000
0001FDFC7F7F0000
0001FFF83FFE0000
0000FFF03FFE0000
00007FF01FFC0000
00007FE01FFC0000
00003FE00FF80000
00003FC00FF80000
00001FC007F00000
00001F8007E00000
00000F0003C00000
ENDCHAR
STARTCHAR Ycircumflex
ENCODING 374
SWIDTH 926 0
DWIDTH 47 0
BBX 46 46 1 0
BITMAP
00000F800000
00000FC00000
00001DE00000
00003CE00000
000038700000
000070780000
0000F03C0000
000000000000
000000000000
FF80000007FC
7FC000000FF0
3FC000001FE0
1FE000003FE0
1FF000003FC0
0FF800007F80
07FC0000FF00
03FE0001FE00
01FE0003FC00
00FF0007F800
007F8007F800
007FC00FF000
003FE01FE000
001FF03FC000
000FF07F8000
0007F8FF0000
0003FCFF0000
0001FFFE0000
0001FFFC0000
0000FFF80000
00007FF00000
00003FE00000
00001FC00000
00001FC00000
00001FC00000
00001FC00000
00001FC00000
00001FC00000
00001FC00000
00001FC00000
00001FC00000
00001FC00000
00001FC00000
00001FC00000
00001FC00000
00001FC00000
00001FC00000
ENDCHAR
STARTCHAR ycircumflex
ENCODING 375
SWIDTH 926 0
DWIDTH 47 0
BBX 46 46 1 0
BITMAP
00000F800000
00000FC00000
00001DE00000
00003CE00000
000038700000
000070780000
0000F03C0000
000000000000
000000000000
FF80000007FC
7FC000000FF0
3FC000001FE0
1FE000003FE0
1FF000003FC0
0FF800007F80
07FC0000FF00
03FE0001FE00
01FE0003FC00
00FF0007F800
007F8007F800
007FC00FF000
003FE01FE000
001FF03FC000
000FF07F8000
0007F8FF0000
0003FCFF0000
0001FFFE0000
0001FFFC0000
0000FFF80000
00007FF00000
00003FE00000
00001FC00000
00001FC00000
00001FC00000
00001FC00000
00001FC00000
00001FC00000
00001FC00000
00001FC00000
00001FC00000
00001FC00000
00001FC00000
00001FC00000
00001FC00000
00001FC00000
00001FC00000
ENDCHAR
STARTCHAR Ydieresis
ENCODING 376
SWIDTH 926 0
DWIDTH 47 0
BBX 46 46 1 0
BITMAP
0000F0380000
0000F07C0000
0001F87C0000
0000F87C0000
0000F0380000
000000000000
000000000000
000000000000
000000000000
FF80000007FC
7FC000000FF0
3FC000001FE0
1FE000003FE0
1FF000003FC0
0FF800007F80
07FC0000FF00
03FE0001FE00
01FE0003FC00
00FF0007F800
007F8007F800
007FC00FF000
003FE01FE000
001FF03FC000
000FF07F8000
0007F8FF0000
0003FCFF0000
0001FFFE0000
0001FFFC0000
0000FFF80000
00007FF00000
00003FE00000
00001FC00000
00001FC00000
00001FC00000
00001FC00000
00001FC00000
00001FC00000
00001FC00000
00001FC00000
00001FC00000
00001FC00000
00001FC00000
00001FC00000
00001FC00000
00001FC00000
00001FC00000
ENDCHAR
STARTCHAR Zacute
ENCODING 377
SWIDTH 802 0
DWIDTH 41 0
BBX 37 46 2 0
BITMAP
000000E000
000007E000
00003FE000
0003FFE000
0007FF0000
0007E00000
0004000000
0000000000
0000000000
FFFFFFFFE0
FFFFFFFFF0
FFFFFFFFF8
FFFFFFFFF8
FFFFFFFFF0
FFFFFFFFF0
0000003FE0
0000007FC0
000000FF80
000001FF00
000003FE00
000007FC00
00000FF800
00001FF000
00003FE000
00007FC000
0000FF8000
0001FF0000
0003FE0000
0007FC0000
000FF80000
001FF00000
003FE00000
007FC00000
00FF800000
01FF000000
03FE000000
07FC000000
0FF8000000
1FF0000000
3FE0000000
7FFFFFFFF0
FFFFFFFFF0
FFFFFFFFF0
FFFFFFFFF0
7FFFFFFFF0
3FFFFFFFF0
ENDCHAR
STARTCHAR zacute
ENCODING 378
SWIDTH 802 0
DWIDTH 41 0
BBX 37 46 2 0
BITMAP
000000E000
000007E000
00003FE000
0003FFE000
0007FF0000
0007E00000
0004000000
0000000000
0000000000
FFFFFFFFE0
FFFFFFFFF0
FFFFFFFFF8
FFFFFFFFF8
FFFFFFFFF0
FFFFFFFFF0
0000003FE0
0000007FC0
000000FF80
000001FF00
000003FE00
000007FC00
00000FF800
00001FF000
00003FE000
00007FC000
0000FF8000
0001FF0000
0003FE0000
0007FC0000
000FF80000
001FF00000
003FE00000
007FC00000
00FF800000
01FF000000
03FE000000
07FC000000
0FF8000000
1FF0000000
3FE0000000
7FFFFFFFF0
FFFFFFFFF0
FFFFFFFFF0
FFFFFFFFF0
7FFFFFFFF0
3FFFFFFFF0
ENDCHAR
STARTCHAR Zdotaccent
ENCODING 379
SWIDTH 802 0
DWIDTH 41 0
BBX 37 46 2 0
BITMAP
0000700000
0000F80000
0000F80000
0000F80000
0000700000
0000000000
0000000000
0000000000
0000000000
FFFFFFFFE0
FFFFFFFFF0
FFFFFFFFF8
FFFFFFFFF8
FFFFFFFFF0
FFFFFFFFF0
0000003FE0
0000007FC0
000000FF80
000001FF00
000003FE00
000007FC00
00000FF800
00001FF000
00003FE000
00007FC000
0000FF8000
0001FF0000
0003FE0000
0007FC0000
000FF80000
001FF00000
003FE00000
007FC00000
00FF800000
01FF000000
03FE000000
07FC000000
0FF8000000
1FF0000000
3FE0000000
7FFFFFFFF0
FFFFFFFFF0
FFFFFFFFF0
FFFFFFFFF0
7FFFFFFFF0
3FFFFFFFF0
ENDCHAR
STARTCHAR zdotaccent
ENCODING 380
SWIDTH 802 0
DWIDTH 41 0
BBX 37 46 2 0
BITMAP
0000700000
0000F80000
0000F80000
0000F80000
0000700000
0000000000
0000000000
0000000000
0000000000
FFFFFFFFE0
FFFFFFFFF0
FFFFFFFFF8
FFFFFFFFF8
FFFFFFFFF0
FFFFFFFFF0
0000003FE0
0000007FC0
000000FF80
000001FF00
000003FE00
000007FC00
00000FF800
00001FF000
00003FE000
00007FC000
0000FF8000
0001FF0000
0003FE0000
0007FC0000
000FF80000
001FF00000
003FE00000
007FC00000
00FF800000
01FF000000
03FE000000
07FC000000
0FF8000000
1FF0000000
3FE0000000
7FFFFFFFF0
FFFFFFFFF0
FFFFFFFFF0
FFFFFFFFF0
7FFFFFFFF0
3FFFFFFFF0
ENDCHAR
STARTCHAR Zcaron
ENCODING 381
SWIDTH 802 0
DWIDTH 41 0
BBX 37 46 2 0
BITMAP
001E078000
000E0F0000
00070E0000
00079E0000
0003BC0000
0001F80000
0001F80000
0000000000
0000000000
FFFFFFFFE0
FFFFFFFFF0
FFFFFFFFF8
FFFFFFFFF8
FFFFFFFFF0
FFFFFFFFF0
0000003FE0
0000007FC0
000000FF80
000001FF00
000003FE00
000007FC00
00000FF800
00001FF000
00003FE000
00007FC000
0000FF8000
0001FF0000
0003FE0000
0007FC0000
000FF80000
001FF00000
003FE00000
007FC00000
00FF800000
01FF000000
03FE000000
07FC000000
0FF8000000
1FF0000000
3FE0000000
7FFFFFFFF0
FFFFFFFFF0
FFFFFFFFF0
FFFFFFFFF0
7FFFFFFFF0
3FFFFFFFF0
ENDCHAR
STARTCHAR zcaron
ENCODING 382
SWIDTH 802 0
DWIDTH 41 0
BBX 37 46 2 0
BITMAP
001E078000
000E0F0000
00070E0000
00079E0000
0003BC0000
0001F80000
0001F80000
0000000000
0000000000
FFFFFFFFE0
FFFFFFFFF0
FFFFFFFFF8
FFFFFFFFF8
FFFFFFFFF0
FFFFFFFFF0
0000003FE0
0000007FC0
000000FF80
000001FF00
000003FE00
000007FC00
00000FF800
00001FF000
00003FE000
00007FC000
0000FF8000
0001FF0000
0003FE0000
0007FC0000
000FF80000
001FF00000
003FE00000
007FC00000
00FF800000
01FF000000
03FE000000
07FC000000
0FF8000000
1FF0000000
3FE0000000
7FFFFFFFF0
FFFFFFFFF0
FFFFFFFFF0
FFFFFFFFF0
7FFFFFFFF0
3FFFFFFFF0
ENDCHAR
STARTCHAR Scommaaccent
ENCODING 536
SWIDTH 880 0
DWIDTH 45 0
BBX 40 47 3 -10
BITMAP
01FFFFFFFC
07FFFFFFFC
1FFFFFFFFC
3FFFFFFFFC
7FFFFFFFFC
7FFFFFFFFC
FFE0000000
FF00000000
FE00000000
FE00000000
FC00000000
FC00000000
FE00000000
FE00000000
FE00000000
7F80000000
7FFFFFFF00
3FFFFFFFE0
1FFFFFFFF8
07FFFFFFF8
01FFFFFFFC
00000001FE
00000000FE
000000007E
000000007E
000000007F
000000007F
000000007F
000000007E
00000000FE
0000000FFE
FFFFFFFFFC
FFFFFFFFFC
FFFFFFFFF8
FFFFFFFFF0
FFFFFFFFE0
FFFFFFFF00
0000000000
0000000000
0000FE0000
00007C0000
00007C0000
0000380000
0000380000
0000300000
0000100000
0000100000
ENDCHAR
STARTCHAR scommaaccent
ENCODING 537
SWIDTH 880 0
DWIDTH 45 0
BBX 40 47 3 -10
BITMAP
01FFFFFFFC
07FFFFFFFC
1FFFFFFFFC
3FFFFFFFFC
7FFFFFFFFC
7FFFFFFFFC
FFE0000000
FF00000000
FE00000000
FE00000000
FC00000000
FC00000000
FE00000000
FE00000000
FE00000000
7F80000000
7FFFFFFF00
3FFFFFFFE0
1FFFFFFFF8
07FFFFFFF8
01FFFFFFFC
00000001FE
00000000FE
000000007E
000000007E
000000007F
000000007F
000000007F
000000007E
00000000FE
0000000FFE
FFFFFFFFFC
FFFFFFFFFC
FFFFFFFFF8
FFFFFFFFF0
FFFFFFFFE0
FFFFFFFF00
0000000000
0000000000
0000FE0000
00007C0000
00007C0000
0000380000
0000380000
0000300000
0000100000
0000100000
ENDCHAR
STARTCHAR uni021A
ENCODING 538
SWIDTH 720 0
DWIDTH 37 0
BBX 35 47 1 -10
BITMAP
FFFFFFFFE0
FFFFFFFFE0
FFFFFFFFE0
FFFFFFFFE0
FFFFFFFFE0
FFFFFFFFE0
0003F80000
0003F80000
0003F80000
0003F80000
0003F80000
0003F80000
0003F80000
0003F80000
0003F80000
0003F80000
0003F80000
0003F80000
0003F80000
0003F80000
0003F80000
0003F80000
0003F80000
0003F80000
0003F80000
0003F80000
0003F80000
0003F80000
0003F80000
0003F80000
0003F80000
0003F80000
0003F80000
0003F80000
0003F80000
0003F80000
0003F80000
0000000000
0000000000
0003F80000
0001F00000
0001F00000
0001E00000
0000E00000
0000C00000
0000400000
0000400000
ENDCHAR
STARTCHAR uni021B
ENCODING 539
SWIDTH 720 0
DWIDTH 37 0
BBX 35 47 1 -10
BITMAP
FFFFFFFFE0
FFFFFFFFE0
FFFFFFFFE0
FFFFFFFFE0
FFFFFFFFE0
FFFFFFFFE0
0003F80000
0003F80000
0003F80000
0003F80000
0003F80000
0003F80000
0003F80000
0003F80000
0003F80000
0003F80000
0003F80000
0003F80000
0003F80000
0003F80000
0003F80000
0003F80000
0003F80000
0003F80000
0003F80000
0003F80000
0003F80000
0003F80000
0003F80000
0003F80000
0003F80000
0003F80000
0003F80000
0003F80000
0003F80000
0003F80000
0003F80000
0000000000
0000000000
0003F80000
0001F00000
0001F00000
0001E00000
0000E00000
0000C00000
0000400000
0000400000
ENDCHAR
STARTCHAR circumflex
ENCODING 710
SWIDTH 379 0
DWIDTH 19 0
BBX 14 7 3 39
BITMAP
0F80
1FC0
1DE0
38E0
78F0
7078
F03C
ENDCHAR
STARTCHAR caron
ENCODING 711
SWIDTH 379 0
DWIDTH 19 0
BBX 14 7 3 39
BITMAP
F03C
7078
78F0
38E0
1DE0
1FC0
0F80
ENDCHAR
STARTCHAR breve
ENCODING 728
SWIDTH 382 0
DWIDTH 19 0
BBX 14 7 3 39
BITMAP
E03C
E03C
F038
F078
7870
3FF0
1FC0
ENDCHAR
STARTCHAR dotaccent
ENCODING 729
SWIDTH 208 0
DWIDTH 11 0
BBX 5 5 3 41
BITMAP
70
F8
F8
F8
70
ENDCHAR
STARTCHAR ring
ENCODING 730
SWIDTH 362 0
DWIDTH 18 0
BBX 13 10 3 39
BITMAP
3FC0
7FE0
E030
C038
C018
C018
C038
E030
7FE0
1FC0
ENDCHAR
STARTCHAR ogonek
ENCODING 731
SWIDTH 234 0
DWIDTH 12 0
BBX 10 10 1 -10
BITMAP
03C0
0E00
1C00
7000
F000
F000
FFC0
FFC0
7FC0
3FC0
ENDCHAR
STARTCHAR tilde
ENCODING 732
SWIDTH 362 0
DWIDTH 18 0
BBX 13 5 3 40
BITMAP
7808
FE18
FFF8
87F8
81F0
ENDCHAR
STARTCHAR hungarumlaut
ENCODING 733
SWIDTH 399 0
DWIDTH 20 0
BBX 15 6 3 40
BITMAP
3E3E
7878
7878
7070
E0E0
E0E0
ENDCHAR
STARTCHAR commaaccent
ENCODING 806
SWIDTH 219 0
DWIDTH 11 0
BBX 7 8 2 -10
BITMAP
FE
7C
7C
38
38
18
10
10
ENDCHAR
STARTCHAR Wgrave
ENCODING 7808
SWIDTH 1268 0
DWIDTH 65 0
BBX 63 47 1 -1
BITMAP
0000018000000000
000001F800000000
000001FF00000000
000001FFE0000000
0000003FF0000000
00000001F0000000
0000000010000000
0000000000000000
0000000000000000
FF003FC0000001FE
7F001FE0000001FC
7F800FE0000003FC
3F800FF0000003F8
3FC007F0000007F8
1FC007F8000007F0
1FE003F800000FE0
0FE003FC00000FE0
0FF001FC00001FC0
07F001FE00001FC0
07F800FE00003F80
03F800FF00003F80
03FC007F00007F00
01FC007F80007F00
01FE003F8000FE00
00FF003FC000FE00
007F001FC001FC00
007F801FE001FC00
003F800FE003F800
003FC00FF007F800
001FC01FF007F000
001FE01FF80FE000
000FE03FF80FE000
000FF07FFC1FC000
0007F07FFC1FC000
0007F8FEFE3F8000
0003F8FEFE3F8000
0003FDFC7F7F0000
0001FDFC7F7F0000
0001FFF83FFE0000
0000FFF03FFE0000
00007FF01FFC0000
00007FE01FFC0000
00003FE00FF80000
00003FC00FF80000
00001FC007F00000
00001F8007E00000
00000F0003C00000
ENDCHAR
STARTCHAR wgrave
ENCODING 7809
SWIDTH 1268 0
DWIDTH 65 0
BBX 63 47 1 -1
BITMAP
0000018000000000
000001F800000000
000001FF00000000
000001FFE0000000
0000003FF0000000
00000001F0000000
0000000010000000
0000000000000000
0000000000000000
FF003FC0000001FE
7F001FE0000001FC
7F800FE0000003FC
3F800FF0000003F8
3FC007F0000007F8
1FC007F8000007F0
1FE003F800000FE0
0FE003FC00000FE0
0FF001FC00001FC0
07F001FE00001FC0
07F800FE00003F80
03F800FF00003F80
03FC007F00007F00
01FC007F80007F00
01FE003F8000FE00
00FF003FC000FE00
007F001FC001FC00
007F801FE001FC00
003F800FE003F800
003FC00FF007F800
001FC01FF007F000
001FE01FF80FE000
000FE03FF80FE000
000FF07FFC1FC000
0007F07FFC1FC000
0007F8FEFE3F8000
0003F8FEFE3F8000
0003FDFC7F7F0000
0001FDFC7F7F0000
0001FFF83FFE0000
0000FFF03FFE0000
00007FF01FFC0000
00007FE01FFC0000
00003FE00FF80000
00003FC00FF80000
00001FC007F00000
00001F8007E00000
00000F0003C00000
ENDCHAR
STARTCHAR Wacute
ENCODING 7810
SWIDTH 1268 0
DWIDTH 65 0
BBX 63 47 1 -1
BITMAP
0000000006000000
000000003E000000
00000001FE000000
0000001FFE000000
0000003FF8000000
0000003F00000000
0000002000000000
0000000000000000
0000000000000000
FF003FC0000001FE
7F001FE0000001FC
7F800FE0000003FC
3F800FF0000003F8
3FC007F0000007F8
1FC007F8000007F0
1FE003F800000FE0
0FE003FC00000FE0
0FF001FC00001FC0
07F001FE00001FC0
07F800FE00003F80
03F800FF00003F80
03FC007F00007F00
01FC007F80007F00
01FE003F8000FE00
00FF003FC000FE00
007F001FC001FC00
007F801FE001FC00
003F800FE003F800
003FC00FF007F800
001FC01FF007F000
001FE01FF80FE000
000FE03FF80FE000
000FF07FFC1FC000
0007F07FFC1FC000
0007F8FEFE3F8000
0003F8FEFE3F8000
0003FDFC7F7F0000
0001FDFC7F7F0000
0001FFF83FFE0000
0000FFF03FFE0000
00007FF01FFC0000
00007FE01FFC0000
00003FE00FF80000
00003FC00FF80000
00001FC007F00000
00001F8007E00000
00000F0003C00000
ENDCHAR
STARTCHAR wacute
ENCODING 7811
SWIDTH 1268 0
DWIDTH 65 0
BBX 63 47 1 -1
BITMAP
0000000006000000
000000003E000000
00000001FE000000
0000001FFE000000
0000003FF8000000
0000003F00000000
0000002000000000
0000000000000000
0000000000000000
FF003FC0000001FE
7F001FE0000001FC
7F800FE0000003FC
3F800FF0000003F8
3FC007F0000007F8
1FC007F8000007F0
1FE003F800000FE0
0FE003FC00000FE0
0FF001FC00001FC0
07F001FE00001FC0
07F800FE00003F80
03F800FF00003F80
03FC007F00007F00
01FC007F80007F00
01FE003F8000FE00
00FF003FC000FE00
007F001FC001FC00
007F801FE001FC00
003F800FE003F800
003FC00FF007F800
001FC01FF007F000
001FE01FF80FE000
000FE03FF80FE000
000FF07FFC1FC000
0007F07FFC1FC000
0007F8FEFE3F8000
0003F8FEFE3F8000
0003FDFC7F7F0000
0001FDFC7F7F0000
0001FFF83FFE0000
0000FFF03FFE0000
00007FF01FFC0000
00007FE01FFC0000
00003FE00FF80000
00003FC00FF80000
00001FC007F00000
00001F8007E00000
00000F0003C00000
ENDCHAR
STARTCHAR Wdieresis
ENCODING 7812
SWIDTH 1268 0
DWIDTH 65 0
BBX 63 47 1 -1
BITMAP
000000703C000000
000000F83C000000
000000F87E000000
000000F83C000000
000000703C000000
0000000000000000
0000000000000000
0000000000000000
0000000000000000
FF003FC0000001FE
7F001FE0000001FC
7F800FE0000003FC
3F800FF0000003F8
3FC007F0000007F8
1FC007F8000007F0
1FE003F800000FE0
0FE003FC00000FE0
0FF001FC00001FC0
07F001FE00001FC0
07F800FE00003F80
03F800FF00003F80
03FC007F00007F00
01FC007F80007F00
01FE003F8000FE00
00FF003FC000FE00
007F001FC001FC00
007F801FE001FC00
003F800FE003F800
003FC00FF007F800
001FC01FF007F000
001FE01FF80FE000
000FE03FF80FE000
000FF07FFC1FC000
0007F07FFC1FC000
0007F8FEFE3F8000
0003F8FEFE3F8000
0003FDFC7F7F0000
0001FDFC7F7F0000
0001FFF83FFE0000
0000FFF03FFE0000
00007FF01FFC0000
00007FE01FFC0000
00003FE00FF80000
00003FC00FF80000
00001FC007F00000
00001F8007E00000
00000F0003C00000
ENDCHAR
STARTCHAR wdieresis
ENCODING 7813
SWIDTH 1268 0
DWIDTH 65 0
BBX 63 47 1 -1
BITMAP
000000703C000000
000000F83C000000
000000F87E000000
000000F83C000000
000000703C000000
0000000000000000
0000000000000000
0000000000000000
0000000000000000
FF003FC0000001FE
7F001FE0000001FC
7F800FE0000003FC
3F800FF0000003F8
3FC007F0000007F8
1FC007F8000007F0
1FE003F800000FE0
0FE003FC00000FE0
0FF001FC00001FC0
07F001FE00001FC0
07F800FE00003F80
03F800FF00003F80
03FC007F00007F00
01FC007F80007F00
01FE003F8000FE00
00FF003FC000FE00
007F001FC001FC00
007F801FE001FC00
003F800FE003F800
003FC00FF007F800
001FC01FF007F000
001FE01FF80FE000
000FE03FF80FE000
000FF07FFC1FC000
0007F07FFC1FC000
0007F8FEFE3F8000
0003F8FEFE3F8000
0003FDFC7F7F0000
0001FDFC7F7F0000
0001FFF83FFE0000
0000FFF03FFE0000
00007FF01FFC0000
00007FE01FFC0000
00003FE00FF80000
00003FC00FF80000
00001FC007F00000
00001F8007E00000
00000F0003C00000
ENDCHAR
STARTCHAR Ygrave
ENCODING 7922
SWIDTH 926 0
DWIDTH 47 0
BBX 46 46 1 0
BITMAP
000180000000
0001F0000000
0001FE000000
0001FFE00000
00007FF00000
000003F00000
000000100000
000000000000
000000000000
FF80000007FC
7FC000000FF0
3FC000001FE0
1FE000003FE0
1FF000003FC0
0FF800007F80
07FC0000FF00
03FE0001FE00
01FE0003FC00
00FF0007F800
007F8007F800
007FC00FF000
003FE01FE000
001FF03FC000
000FF07F8000
0007F8FF0000
0003FCFF0000
0001FFFE0000
0001FFFC0000
0000FFF80000
00007FF00000
00003FE00000
00001FC00000
00001FC00000
00001FC00000
00001FC00000
00001FC00000
00001FC00000
00001FC00000
00001FC00000
00001FC00000
00001FC00000
00001FC00000
00001FC00000
00001FC00000
00001FC00000
00001FC00000
ENDCHAR
STARTCHAR ygrave
ENCODING 7923
SWIDTH 926 0
DWIDTH 47 0
BBX 46 46 1 0
BITMAP
000180000000
0001F0000000
0001FE000000
0001FFE00000
00007FF00000
000003F00000
000000100000
000000000000
000000000000
FF80000007FC
7FC000000FF0
3FC000001FE0
1FE000003FE0
1FF000003FC0
0FF800007F80
07FC0000FF00
03FE0001FE00
01FE0003FC00
00FF0007F800
007F8007F800
007FC00FF000
003FE01FE000
001FF03FC000
000FF07F8000
0007F8FF0000
0003FCFF0000
0001FFFE0000
0001FFFC0000
0000FFF80000
00007FF00000
00003FE00000
00001FC00000
00001FC00000
00001FC00000
00001FC00000
00001FC00000
00001FC00000
00001FC00000
00001FC00000
00001FC00000
00001FC00000
00001FC00000
00001FC00000
00001FC00000
00001FC00000
00001FC00000
ENDCHAR
STARTCHAR endash
ENCODING 8211
SWIDTH 590 0
DWIDTH 30 0
BBX 28 5 1 16
BITMAP
FFFFFFF0
FFFFFFF0
FFFFFFF0
FFFFFFF0
FFFFFFF0
ENDCHAR
STARTCHAR emdash
ENCODING 8212
SWIDTH 866 0
DWIDTH 44 0
BBX 42 5 1 16
BITMAP
FFFFFFFFFFC0
FFFFFFFFFFC0
FFFFFFFFFFC0
FFFFFFFFFFC0
FFFFFFFFFFC0
ENDCHAR
STARTCHAR quoteleft
ENCODING 8216
SWIDTH 259 0
DWIDTH 13 0
BBX 7 13 3 24
BITMAP
FE
7E
7E
7E
7E
7E
7E
3E
3E
3E
3E
3E
1E
ENDCHAR
STARTCHAR quoteright
ENCODING 8217
SWIDTH 259 0
DWIDTH 13 0
BBX 7 13 3 24
BITMAP
FE
FE
FE
FC
FC
FC
FC
FC
F8
F8
F8
F8
F8
ENDCHAR
STARTCHAR quotesinglbase
ENCODING 8218
SWIDTH 259 0
DWIDTH 13 0
BBX 7 13 3 -6
BITMAP
FE
FE
FE
FC
FC
FC
FC
FC
F8
F8
F8
F8
F8
ENDCHAR
STARTCHAR quotedblleft
ENCODING 8220
SWIDTH 462 0
DWIDTH 24 0
BBX 18 13 3 24
BITMAP
FE1FC0
7E1FC0
7E0FC0
7E0FC0
7E0FC0
7E0FC0
7E0FC0
3E07C0
3E07C0
3E07C0
3E07C0
3E07C0
1E03C0
ENDCHAR
STARTCHAR quotedblright
ENCODING 8221
SWIDTH 462 0
DWIDTH 24 0
BBX 18 13 3 24
BITMAP
FE1FC0
FE1FC0
FE1F80
FC1F80
FC1F80
FC1F80
FC1F80
FC1F00
F81F00
F81F00
F81F00
F81F00
F81E00
ENDCHAR
STARTCHAR quotedblbase
ENCODING 8222
SWIDTH 462 0
DWIDTH 24 0
BBX 18 13 3 -6
BITMAP
FE1FC0
FE1FC0
FE1F80
FC1F80
FC1F80
FC1F80
FC1F80
FC1F00
F81F00
F81F00
F81F00
F81F00
F81E00
ENDCHAR
STARTCHAR dagger
ENCODING 8224
SWIDTH 466 0
DWIDTH 24 0
BBX 18 37 3 0
BITMAP
01C000
01C000
01C000
01C000
01C000
01C000
01C000
01C000
FFFFC0
FFFFC0
FFFFC0
01C000
01C000
01C000
01C000
01C000
01C000
01C000
01C000
01C000
01C000
01C000
01C000
01C000
01C000
01C000
01C000
01C000
01C000
01C000
01C000
01C000
01C000
01C000
01C000
01C000
01C000
ENDCHAR
STARTCHAR daggerdbl
ENCODING 8225
SWIDTH 466 0
DWIDTH 24 0
BBX 18 37 3 0
BITMAP
01C000
01C000
01C000
01C000
01C000
01C000
01C000
01C000
FFFFC0
FFFFC0
FFFFC0
01C000
01C000
01C000
01C000
01C000
01C000
01C000
01C000
01C000
01C000
01C000
01C000
01C000
01C000
01C000
FFFFC0
FFFFC0
FFFFC0
01C000
01C000
01C000
01C000
01C000
01C000
01C000
01C000
ENDCHAR
STARTCHAR bullet
ENCODING 8226
SWIDTH 413 0
DWIDTH 21 0
BBX 15 15 3 12
BITMAP
07C0
1FF0
3FF8
7FFC
7FFC
FFFE
FFFE
FFFE
FFFE
FFFE
7FFC
7FFC
3FF8
1FF0
07C0
ENDCHAR
STARTCHAR ellipsis
ENCODING 8230
SWIDTH 1310 0
DWIDTH 67 0
BBX 61 6 3 0
BITMAP
7C00000F800001F0
FE00001FC00003F0
FE00001FC00003F8
FE00001FC00003F8
7E00001F800003F0
3C00000F000001E0
ENDCHAR
STARTCHAR perthousand
ENCODING 8240
SWIDTH 1314 0
DWIDTH 67 0
BBX 63 43 2 -3
BITMAP
000000001E000000
000000003C000000
03F800007C000000
0FFE000078000000
1FFF0000F0000000
3E0F8001E0000000
7803C003E0000000
7001E007C0000000
7000E00780000000
F000E00F00000000
E000E01E00000000
E000E03E00000000
E000E07C00000000
F000E07800000000
7001E0F000000000
7801C1E000000000
3803C3E000000000
3E0783C000000000
1FFF078000000000
07FE0F0000000000
01F81F0000000000
00003E0000000000
00003C0FE0003F80
0000783FF800FFE0
0000F07FFC01FFF0
0001F0F83E03C0F8
0003E1E00F07803C
0003C1C0070F003C
000783C0078E001C
000F0380078E001E
001F0380038E000E
003E0380038E000E
003C0380038E000E
00780380078E001E
00F803C0070E001C
01F001C00707003C
01E001E00F078038
03C000F83E03C0F8
0780007FFC01FFF0
0F80003FF800FFC0
1F00000FC0003F00
1E00000000000000
7C00000000000000
ENDCHAR
STARTCHAR guilsinglleft
ENCODING 8249
SWIDTH 367 0
DWIDTH 19 0
BBX 15 19 2 9
BITMAP
0006
001E
003E
00F8
03F0
07C0
1F00
7C00
F800
F000
7C00
1F00
0780
03E0
00F8
007C
001E
0006
0002
ENDCHAR
STARTCHAR guilsinglright
ENCODING 8250
SWIDTH 368 0
DWIDTH 19 0
BBX 15 19 2 9
BITMAP
C000
E000
F800
7E00
1F00
07C0
01F0
00F8
003E
001E
007C
01F0
07C0
0F80
3E00
F800
F000
C000
8000
ENDCHAR
STARTCHAR fraction
ENCODING 8260
SWIDTH 185 0
DWIDTH 9 0
BBX 38 43 -14 -3
BITMAP
000000007C
0000000078
00000000F0
00000001E0
00000003E0
00000007C0
0000000780
0000000F00
0000001E00
0000003E00
0000007C00
0000007800
000000F000
000001E000
000003E000
000007C000
0000078000
00000F0000
00001F0000
00003E0000
00003C0000
0000780000
0000F00000
0001F00000
0003E00000
0003C00000
0007800000
000F000000
001F000000
003E000000
003C000000
0078000000
00F8000000
01F0000000
01E0000000
03C0000000
0780000000
0F80000000
1F00000000
1E00000000
3C00000000
7800000000
F800000000
ENDCHAR
STARTCHAR zerosuperior
ENCODING 8304
SWIDTH 449 0
DWIDTH 23 0
BBX 19 19 2 19
BITMAP
03F800
0FFE00
1FFF00
3E0F80
7803C0
7001C0
F001E0
E000E0
E000E0
E000E0
E000E0
E000E0
F001E0
7001C0
7803C0
3E0F80
1FFF00
0FFE00
03F800
ENDCHAR
STARTCHAR foursuperior
ENCODING 8308
SWIDTH 452 0
DWIDTH 23 0
BBX 20 18 2 19
BITMAP
E00380
E00380
E00380
E00380
E00380
E00380
E00380
E00380
E00380
F00380
7FFFF0
7FFFF0
1FFFF0
000380
000380
000380
000380
000380
ENDCHAR
STARTCHAR fivesuperior
ENCODING 8309
SWIDTH 472 0
DWIDTH 24 0
BBX 20 18 2 19
BITMAP
FFFFE0
FFFFE0
FFFFE0
F00000
F00000
F00000
F00000
FFFF80
FFFFE0
FFFFE0
0000F0
000070
000070
000070
0000F0
FFFFE0
FFFFE0
FFFF80
ENDCHAR
STARTCHAR sixsuperior
ENCODING 8310
SWIDTH 466 0
DWIDTH 24 0
BBX 20 18 2 19
BITMAP
07FFE0
1FFFE0
3FFFE0
7C0000
F00000
F00000
E00000
FFFF00
FFFFC0
FFFFE0
E000E0
E000F0
F000F0
7000F0
7C00E0
3FFFE0
1FFFC0
07FF80
ENDCHAR
STARTCHAR sevensuperior
ENCODING 8311
SWIDTH 408 0
DWIDTH 21 0
BBX 17 19 2 19
BITMAP
FFFF80
FFFF80
FFFF80
000F80
001F00
001E00
003C00
007800
00F000
01F000
01E000
03C000
078000
0F0000
1F0000
3E0000
3C0000
780000
F00000
ENDCHAR
STARTCHAR eightsuperior
ENCODING 8312
SWIDTH 479 0
DWIDTH 24 0
BBX 20 18 2 19
BITMAP
1FFF80
3FFFE0
7FFFF0
F000F0
F00070
F00070
7000F0
3FFFE0
3FFFC0
7FFFE0
F000F0
E00070
E00070
F00070
F800F0
7FFFF0
3FFFE0
1FFF80
ENDCHAR
STARTCHAR ninesuperior
ENCODING 8313
SWIDTH 460 0
DWIDTH 23 0
BBX 20 18 2 19
BITMAP
1FFC00
7FFF00
7FFFC0
F003C0
E001E0
E000E0
E000E0
F000F0
FFFFF0
7FFFF0
1FFFF0
0000E0
0000E0
0001E0
0003C0
3FFFC0
3FFF80
3FFE00
ENDCHAR
STARTCHAR zeroinferior
ENCODING 8320
SWIDTH 449 0
DWIDTH 23 0
BBX 19 19 2 -1
BITMAP
03F800
0FFE00
1FFF00
3E0F80
7803C0
7001C0
F001E0
E000E0
E000E0
E000E0
E000E0
E000E0
F001E0
7001C0
7803C0
3E0F80
1FFF00
0FFE00
03F800
ENDCHAR
STARTCHAR oneinferior
ENCODING 8321
SWIDTH 222 0
DWIDTH 11 0
BBX 8 19 1 -1
BITMAP
F8
FC
FE
0F
07
07
07
07
07
07
07
07
07
07
07
07
07
07
07
ENDCHAR
STARTCHAR twoinferior
ENCODING 8322
SWIDTH 442 0
DWIDTH 23 0
BBX 18 18 2 -1
BITMAP
FFFF00
FFFF80
FFFFC0
0003C0
0001C0
0001C0
0001C0
0FFFC0
3FFF80
7FFE00
700000
F00000
E00000
E00000
E00000
FFFFC0
FFFFC0
FFFFC0
ENDCHAR
STARTCHAR threeinferior
ENCODING 8323
SWIDTH 443 0
DWIDTH 23 0
BBX 19 18 2 -1
BITMAP
FFFE00
FFFF80
FFFFC0
0003C0
0001C0
0001C0
0003C0
0FFF80
0FFF00
0FFFC0
0003C0
0001E0
0001E0
0001E0
0003C0
FFFFC0
FFFF80
FFFE00
ENDCHAR
STARTCHAR fourinferior
ENCODING 8324
SWIDTH 452 0
DWIDTH 23 0
BBX 20 18 2 -1
BITMAP
E00380
E00380
E00380
E00380
E00380
E00380
E00380
E00380
E00380
F00380
7FFFF0
7FFFF0
1FFFF0
000380
000380
000380
000380
000380
ENDCHAR
STARTCHAR fiveinferior
ENCODING 8325
SWIDTH 472 0
DWIDTH 24 0
BBX 20 18 2 -1
BITMAP
FFFFE0
FFFFE0
FFFFE0
F00000
F00000
F00000
F00000
FFFF80
FFFFE0
FFFFE0
0000F0
000070
000070
000070
0000F0
FFFFE0
FFFFE0
FFFF80
ENDCHAR
STARTCHAR sixinferior
ENCODING 8326
SWIDTH 466 0
DWIDTH 24 0
BBX 20 18 2 -1
BITMAP
07FFE0
1FFFE0
3FFFE0
7C0000
F00000
F00000
E00000
FFFF00
FFFFC0
FFFFE0
E000E0
E000F0
F000F0
7000F0
7C00E0
3FFFE0
1FFFC0
07FF80
ENDCHAR
STARTCHAR seveninferior
ENCODING 8327
SWIDTH 408 0
DWIDTH 21 0
BBX 17 19 2 -1
BITMAP
FFFF80
FFFF80
FFFF80
000F80
001F00
001E00
003C00
007800
00F000
01F000
01E000
03C000
078000
0F0000
1F0000
3E0000
3C0000
780000
F00000
ENDCHAR
STARTCHAR eightinferior
ENCODING 8328
SWIDTH 479 0
DWIDTH 24 0
BBX 20 18 2 -1
BITMAP
1FFF80
3FFFE0
7FFFF0
F000F0
F00070
F00070
7000F0
3FFFE0
3FFFC0
7FFFE0
F000F0
E00070
E00070
F00070
F800F0
7FFFF0
3FFFE0
1FFF80
ENDCHAR
STARTCHAR nineinferior
ENCODING 8329
SWIDTH 460 0
DWIDTH 23 0
BBX 20 18 2 -1
BITMAP
1FFC00
7FFF00
7FFFC0
F003C0
E001E0
E000E0
E000E0
F000F0
FFFFF0
7FFFF0
1FFFF0
0000E0
0000E0
0001E0
0003C0
3FFFC0
3FFF80
3FFE00
ENDCHAR
STARTCHAR Euro
ENCODING 8364
SWIDTH 884 0
DWIDTH 45 0
BBX 41 37 2 0
BITMAP
00007FFFFF80
0003FFFFFF00
000FFFFFFF00
003FFFFFFE00
007FFFFFFE00
00FFFFFFFC00
01FFF8000000
03FF00000000
03FE00000000
07FC00000000
07F800000000
0FF000000000
0FE000000000
0FE000000000
FFFFFFFF8000
FFFFFFFF0000
1FC000000000
1FC000000000
1FC000000000
1FC000000000
1FC000000000
FFFFFFF00000
FFFFFFE00000
0FE000000000
0FE000000000
07F000000000
07F800000000
07FC00000000
03FE00000000
01FF00000000
01FFF8000000
00FFFFFFFE00
007FFFFFFE00
003FFFFFFE00
000FFFFFFE00
0003FFFFFE00
00007FFFFE00
ENDCHAR
STARTCHAR uni2117
ENCODING 8471
SWIDTH 829 0
DWIDTH 42 0
BBX 38 38 2 -1
BITMAP
0001FF0000
000FFFE000
003E00F800
00F0001C00
01C0000E00
0300000380
0600000180
0C000000C0
1C00000060
1800000030
3000000030
301FFFC018
601FFFE018
6018007008
601800380C
C01800180C
C01800180C
C01800180C
C01800380C
C01800700C
C018FFE00C
C018FFC00C
C01800000C
601800000C
6018000008
6018000018
3018000018
3000000030
1800000030
1C00000060
0C000000C0
0600000180
0380000380
01C0000E00
00F0001C00
003E00F800
000FFFE000
0001FE0000
ENDCHAR
STARTCHAR trademark
ENCODING 8482
SWIDTH 536 0
DWIDTH 27 0
BBX 22 13 2 24
BITMAP
FFD80C
FFDC0C
0C1C1C
0C1E1C
0C1E3C
0C1E3C
0C1B3C
0C1B6C
0C1B6C
0C19EC
0C19CC
0C19CC
0C18CC
ENDCHAR
STARTCHAR onethird
ENCODING 8531
SWIDTH 951 0
DWIDTH 49 0
BBX 44 43 2 -3
BITMAP
000000003C00
000000007800
0F800000F000
0FC00001F000
0FE00003E000
00F00003C000
007000078000
0070000F0000
0070001F0000
0070001E0000
0070003C0000
007000780000
007000F80000
007001F00000
007001E00000
007003C00000
007007800000
00700F800000
00701F000000
00701E000000
00703C000000
000078000000
0000F8000000
0001F03FFF80
0001E03FFFE0
0003C03FFFF0
0007C00000F0
000F80000070
000F00000070
001E000000F0
003C0003FFE0
007C0003FFC0
00F80003FFE0
00F0000000F0
01E000000070
03C000000070
07C000000070
0F80000000F0
0F00003FFFF0
1E00003FFFE0
3E00003FFF80
7C0000000000
F80000000000
ENDCHAR
STARTCHAR twothirds
ENCODING 8532
SWIDTH 979 0
DWIDTH 50 0
BBX 46 43 2 -3
BITMAP
000000000780
000000000F00
000000001E00
FFFE00003E00
FFFF80007C00
FFFFC0007800
0003C000F000
0001C001E000
0001C003E000
0003C007C000
1FFFC0078000
3FFF800F0000
7FFE001F0000
F000003E0000
E000003C0000
E00000780000
E00000F00000
E00001F00000
FFFFC3E00000
FFFFC3C00000
FFFFC7800000
00000F000000
00001F000000
00003E1FFFE0
00003C1FFFF0
0000781FFFF8
0000F8000078
0001F0000038
0001E0000038
0003C0000038
00078000FFF0
000F8000FFF0
001F0000FFF8
001E00000038
003C0000003C
00780000003C
00F80000003C
01F000000078
01E0001FFFF8
03C0001FFFF0
07C0001FFFE0
0F8000000000
1F0000000000
ENDCHAR
STARTCHAR oneeighth
ENCODING 8539
SWIDTH 985 0
DWIDTH 50 0
BBX 46 43 2 -3
BITMAP
000000003C00
000000007800
0F800000F000
0FC00001F000
0FE00003E000
00F00003C000
007000078000
0070000F0000
0070001F0000
0070001E0000
0070003C0000
007000780000
007000F80000
007001F00000
007001E00000
007003C00000
007007800000
00700F800000
00701F000000
00701E000000
00703C000000
000078000000
0000F8000000
0001F007FFE0
0001E01FFFF8
0003C01FFFF8
0007C03C003C
000F8038003C
000F0038003C
001E001C0038
003C001FFFF0
007C000FFFF0
00F8001FFFF8
00F0003C003C
01E00038001C
03C00038001C
07C00038001C
0F80003C003C
0F00001FFFF8
1E00001FFFF0
3E000007FFE0
7C0000000000
F80000000000
ENDCHAR
STARTCHAR threeeighths
ENCODING 8540
SWIDTH 972 0
DWIDTH 50 0
BBX 45 43 2 -3
BITMAP
000000000F00
000000001F00
000000003E00
FFFF00003C00
FFFF80007800
FFFFC000F000
0003C001F000
0001C001E000
0001C003C000
0001C0078000
07FF800F8000
07FF801F0000
07FFC01E0000
0001C03C0000
0001E0780000
0001E0F80000
0001E1F00000
0003C1E00000
FFFFC3C00000
FFFF87800000
FFFF0F800000
00001F000000
00001E000000
00003C0FFFC0
00007C1FFFF0
0000F83FFFF8
0000F03C0078
0001E0780038
0003C0380038
0007C0380078
000F801FFFF0
000F001FFFE0
001E003FFFF0
003C00780078
007C00780038
00F800700038
00F000780038
01E0007C0078
03E0003FFFF8
07C0001FFFF0
0F80000FFFC0
0F0000000000
1E0000000000
ENDCHAR
STARTCHAR fiveeighths
ENCODING 8541
SWIDTH 973 0
DWIDTH 50 0
BBX 45 43 2 -3
BITMAP
000000000780
000000000F00
000000001E00
FFFFE0003E00
FFFFE0007C00
FFFFE0007800
F0000000F000
F0000001E000
F0000003E000
F0000007C000
FFFF80078000
FFFFC00F0000
FFFFE01F0000
0000F03E0000
0000703C0000
000070780000
000070F00000
0000F1F00000
FFFFE3E00000
FFFFC3C00000
FFFF87800000
00000F000000
00001F000000
00003E0FFFC0
00003C1FFFF0
0000783FFFF8
0000F83C0078
0001F0380038
0001E0380038
0003C0380078
0007801FFFF0
000F801FFFE0
001F003FFFF8
001E00380078
003C00780038
007800700038
00F800780038
01F0007C0078
01E0003FFFF8
03C0001FFFF0
07C0000FFFC0
0F8000000000
1F0000000000
ENDCHAR
STARTCHAR seveneighths
ENCODING 8542
SWIDTH 965 0
DWIDTH 49 0
BBX 45 43 2 -3
BITMAP
000000003C00
000000007800
3FFFE000F000
3FFFF001F000
3FFFF003E000
0001E003C000
0003C0078000
0007800F0000
000F001F0000
001F001E0000
003E003C0000
003C00780000
007800F80000
00F001F00000
01E001E00000
03E003C00000
03C007800000
07800F800000
0F001F000000
1E001E000000
3E003C000000
000078000000
0000F8000000
0001F00FFFC0
0001E03FFFF0
0003C03FFFF0
0007C0780078
000F80700078
000F00700078
001E00380070
003C003FFFF0
007C001FFFE0
00F8003FFFF0
00F000780078
01E000700038
03C000700038
07C000700038
0F8000780078
0F00003FFFF0
1E00003FFFE0
3E00000FFFC0
7C0000000000
F80000000000
ENDCHAR
STARTCHAR minus
ENCODING 8722
SWIDTH 690 0
DWIDTH 35 0
BBX 29 4 3 17
BITMAP
FFFFFFF8
FFFFFFF8
FFFFFFF8
FFFFFFF8
ENDCHAR
STARTCHAR approxequal
ENCODING 8776
SWIDTH 691 0
DWIDTH 35 0
BBX 29 20 3 9
BITMAP
0FE00000
3FF80008
7FFF0018
FFFFC078
F81FFFF8
E007FFF8
8000FFE0
80003F80
00000000
00000000
00000000
00000000
0FE00000
3FF80008
7FFF0018
FFFFC078
F81FFFF8
E007FFF8
8000FFE0
80003F80
ENDCHAR
STARTCHAR notequal
ENCODING 8800
SWIDTH 690 0
DWIDTH 35 0
BBX 38 43 -1 -3
BITMAP
000000007C
00000000F8
00000000F0
00000001E0
00000003C0
00000007C0
0000000F80
0000000F00
0000001E00
0000003E00
0000007C00
0000007800
0FFFFFFF80
0FFFFFFF80
0FFFFFFF80
0FFFFFFF80
00000F8000
00000F0000
00001E0000
00003E0000
00007C0000
0000780000
0000F00000
0001F00000
0003E00000
0003C00000
0FFFFFFF80
0FFFFFFF80
0FFFFFFF80
0FFFFFFF80
003C000000
0078000000
00F0000000
01F0000000
03E0000000
03C0000000
0780000000
0F00000000
1F00000000
3E00000000
3C00000000
7800000000
F800000000
ENDCHAR
STARTCHAR lessequal
ENCODING 8804
SWIDTH 690 0
DWIDTH 35 0
BBX 29 35 3 -3
BITMAP
00000008
00000038
000001F8
000007F8
00003FF8
0000FFE0
0003FF00
001FFC00
007FE000
03FF8000
0FFC0000
3FF00000
7F800000
FC000000
FF000000
7FC00000
1FF80000
07FE0000
01FFC000
003FF000
000FFE00
0001FF80
00007FF0
00001FF8
000003F8
000000F8
00000038
00000008
00000000
00000000
00000000
FFFFFFF8
FFFFFFF8
FFFFFFF8
FFFFFFF8
ENDCHAR
STARTCHAR greaterequal
ENCODING 8805
SWIDTH 690 0
DWIDTH 35 0
BBX 29 35 3 -3
BITMAP
80000000
F0000000
FC000000
FF000000
FFE00000
3FF80000
07FF0000
01FFC000
003FF000
000FFE00
0001FF80
00003FE0
00000FF8
000001F8
000003F8
00001FF0
00007FC0
0003FF00
001FFC00
007FE000
03FF8000
0FFE0000
7FF00000
FFC00000
FE000000
F8000000
E0000000
80000000
00000000
00000000
00000000
FFFFFFF8
FFFFFFF8
FFFFFFF8
FFFFFFF8
ENDCHAR
STARTCHAR .notdef
ENCODING -1
SWIDTH 430 0
DWIDTH 22 0
BBX 16 37 3 0
BITMAP
7FFE
FFFF
C003
C003
C003
C003
C003
C003
C003
C003
C003
C003
C003
C003
C003
C003
C003
C003
C003
C003
C003
C003
C003
C003
C003
C003
C003
C003
C003
C003
C003
C003
C003
C003
C003
FFFF
7FFE
ENDCHAR
STARTCHAR nonmarkingreturn
ENCODING -1
SWIDTH 104 0
DWIDTH 5 0
BBX 1 1 0 0
BITMAP
00
ENDCHAR
STARTCHAR .null
ENCODING -1
SWIDTH 104 0
DWIDTH 5 0
BBX 1 1 0 0
BITMAP
00
ENDCHAR
STARTCHAR .ttfautohint
ENCODING -1
SWIDTH 104 0
DWIDTH 5 0
BBX 1 1 0 0
BITMAP
00
ENDCHAR
ENDFONT
